Evolventa-BoldOblique.ufo
<glyph name="exclam" format="1">
  <advance width="321"/>
  <unicode hex="0021"/>
  <outline>
    <contour>
      <point x="129" y="188" type="line"/>
      <point x="231" y="739" type="line"/>
      <point x="364" y="739" type="line"/>
      <point x="262" y="188" type="line"/>
    </contour>
    <contour>
      <point x="94" y="0" type="line"/>
      <point x="118" y="128" type="line"/>
      <point x="251" y="128" type="line"/>
      <point x="227" y="0" type="line"/>
    </contour>
  </outline>
</glyph>
<glyph name="quotedbl" format="1">
  <advance width="337"/>
  <unicode hex="0022"/>
  <outline>
    <contour>
      <point x="368" y="513" type="line"/>
      <point x="292" y="513" type="line"/>
      <point x="334" y="739" type="line"/>
      <point x="410" y="739" type="line"/>
    </contour>
    <contour>
      <point x="235" y="513" type="line"/>
      <point x="159" y="513" type="line"/>
      <point x="201" y="739" type="line"/>
      <point x="277" y="739" type="line"/>
    </contour>
  </outline>
</glyph>
<glyph name="numbersign" format="1">
  <advance width="560"/>
  <unicode hex="0023"/>
  <outline>
    <contour>
      <point x="336" y="739" type="line"/>
      <point x="426" y="739" type="line"/>
      <point x="357" y="521" type="line"/>
      <point x="444" y="521" type="line"/>
      <point x="513" y="739" type="line"/>
      <point x="603" y="739" type="line"/>
      <point x="534" y="521" type="line"/>
      <point x="623" y="521" type="line"/>
      <point x="604" y="422" type="line"/>
      <point x="501" y="422" type="line"/>
      <point x="473" y="333" type="line"/>
      <point x="562" y="333" type="line"/>
      <point x="543" y="233" type="line"/>
      <point x="441" y="233" type="line"/>
      <point x="366" y="0" type="line"/>
      <point x="276" y="0" type="line"/>
      <point x="351" y="233" type="line"/>
      <point x="264" y="233" type="line"/>
      <point x="190" y="0" type="line"/>
      <point x="99" y="0" type="line"/>
      <point x="174" y="233" type="line"/>
      <point x="77" y="233" type="line"/>
      <point x="96" y="333" type="line"/>
      <point x="206" y="333" type="line"/>
      <point x="234" y="422" type="line"/>
      <point x="138" y="422" type="line"/>
      <point x="157" y="521" type="line"/>
      <point x="267" y="521" type="line"/>
    </contour>
    <contour>
      <point x="325" y="422" type="line"/>
      <point x="296" y="333" type="line"/>
      <point x="383" y="333" type="line"/>
      <point x="411" y="422" type="line"/>
    </contour>
  </outline>
</glyph>
<glyph name="dollar" format="1">
  <advance width="560"/>
  <unicode hex="0024"/>
  <outline>
    <contour>
      <point x="108" y="249" type="line"/>
      <point x="242" y="249" type="line"/>
      <point x="241" y="244"/>
      <point x="241" y="238"/>
      <point x="241" y="233" type="curve" smooth="yes"/>
      <point x="241" y="189"/>
      <point x="267" y="163"/>
      <point x="310" y="163" type="curve" smooth="yes"/>
      <point x="358" y="163"/>
      <point x="401" y="198"/>
      <point x="410" y="246" type="curve" smooth="yes"/>
      <point x="411" y="253"/>
      <point x="412" y="259"/>
      <point x="412" y="265" type="curve" smooth="yes"/>
      <point x="412" y="286"/>
      <point x="403" y="302"/>
      <point x="384" y="316" type="curve" smooth="yes"/>
      <point x="368" y="328"/>
      <point x="368" y="328"/>
      <point x="287" y="361" type="curve" smooth="yes"/>
      <point x="221" y="388"/>
      <point x="187" y="435"/>
      <point x="187" y="500" type="curve" smooth="yes"/>
      <point x="187" y="513"/>
      <point x="188" y="527"/>
      <point x="191" y="541" type="curve" smooth="yes"/>
      <point x="209" y="636"/>
      <point x="272" y="705"/>
      <point x="357" y="723" type="curve"/>
      <point x="382" y="856" type="line"/>
      <point x="509" y="856" type="line"/>
      <point x="484" y="723" type="line"/>
      <point x="541" y="712"/>
      <point x="579" y="654"/>
      <point x="579" y="583" type="curve" smooth="yes"/>
      <point x="579" y="573"/>
      <point x="578" y="562"/>
      <point x="576" y="551" type="curve"/>
      <point x="450" y="551" type="line"/>
      <point x="449" y="591"/>
      <point x="431" y="613"/>
      <point x="397" y="613" type="curve" smooth="yes"/>
      <point x="362" y="613"/>
      <point x="333" y="587"/>
      <point x="326" y="549" type="curve" smooth="yes"/>
      <point x="325" y="544"/>
      <point x="324" y="538"/>
      <point x="324" y="533" type="curve" smooth="yes"/>
      <point x="324" y="515"/>
      <point x="331" y="499"/>
      <point x="344" y="489" type="curve" smooth="yes"/>
      <point x="358" y="476"/>
      <point x="373" y="468"/>
      <point x="421" y="449" type="curve" smooth="yes"/>
      <point x="477" y="428"/>
      <point x="499" y="415"/>
      <point x="517" y="395" type="curve" smooth="yes"/>
      <point x="537" y="373"/>
      <point x="548" y="340"/>
      <point x="548" y="300" type="curve" smooth="yes"/>
      <point x="548" y="285"/>
      <point x="547" y="268"/>
      <point x="544" y="251" type="curve" smooth="yes"/>
      <point x="525" y="148"/>
      <point x="457" y="72"/>
      <point x="359" y="46" type="curve"/>
      <point x="334" y="-86" type="line"/>
      <point x="207" y="-86" type="line"/>
      <point x="232" y="46" type="line"/>
      <point x="150" y="70"/>
      <point x="103" y="129"/>
      <point x="103" y="202" type="curve" smooth="yes"/>
      <point x="103" y="213"/>
      <point x="104" y="224"/>
      <point x="106" y="236" type="curve" smooth="yes"/>
    </contour>
  </outline>
</glyph>
<glyph name="ampersand" format="1">
  <advance width="680"/>
  <unicode hex="0026"/>
  <outline>
    <contour>
      <point x="590" y="433" type="line"/>
      <point x="739" y="433" type="line"/>
      <point x="571" y="214" type="line"/>
      <point x="677" y="73" type="line"/>
      <point x="566" y="-13" type="line"/>
      <point x="481" y="98" type="line"/>
      <point x="402" y="14"/>
      <point x="352" y="-13"/>
      <point x="273" y="-13" type="curve" smooth="yes"/>
      <point x="153" y="-13"/>
      <point x="71" y="67"/>
      <point x="71" y="178" type="curve" smooth="yes"/>
      <point x="71" y="192"/>
      <point x="72" y="208"/>
      <point x="75" y="223" type="curve" smooth="yes"/>
      <point x="92" y="313"/>
      <point x="144" y="376"/>
      <point x="252" y="433" type="curve"/>
      <point x="223" y="473"/>
      <point x="212" y="500"/>
      <point x="212" y="533" type="curve" smooth="yes"/>
      <point x="212" y="544"/>
      <point x="213" y="556"/>
      <point x="215" y="569" type="curve" smooth="yes"/>
      <point x="234" y="672"/>
      <point x="330" y="752"/>
      <point x="435" y="752" type="curve" smooth="yes"/>
      <point x="532" y="752"/>
      <point x="596" y="691"/>
      <point x="596" y="605" type="curve" smooth="yes"/>
      <point x="596" y="594"/>
      <point x="595" y="582"/>
      <point x="593" y="570" type="curve" smooth="yes"/>
      <point x="584" y="520"/>
      <point x="559" y="476"/>
      <point x="522" y="442" type="curve" smooth="yes"/>
      <point x="503" y="424"/>
      <point x="485" y="413"/>
      <point x="443" y="389" type="curve"/>
      <point x="496" y="314" type="line"/>
    </contour>
    <contour>
      <point x="377" y="481" type="curve"/>
      <point x="437" y="509"/>
      <point x="458" y="530"/>
      <point x="465" y="566" type="curve" smooth="yes"/>
      <point x="466" y="571"/>
      <point x="466" y="575"/>
      <point x="466" y="579" type="curve" smooth="yes"/>
      <point x="466" y="608"/>
      <point x="446" y="627"/>
      <point x="415" y="627" type="curve" smooth="yes"/>
      <point x="379" y="627"/>
      <point x="348" y="601"/>
      <point x="342" y="566" type="curve" smooth="yes"/>
      <point x="341" y="561"/>
      <point x="341" y="557"/>
      <point x="341" y="553" type="curve" smooth="yes"/>
      <point x="341" y="532"/>
      <point x="351" y="512"/>
    </contour>
    <contour>
      <point x="408" y="198" type="curve"/>
      <point x="316" y="322" type="line"/>
      <point x="248" y="293"/>
      <point x="216" y="262"/>
      <point x="207" y="215" type="curve" smooth="yes"/>
      <point x="206" y="208"/>
      <point x="205" y="202"/>
      <point x="205" y="196" type="curve" smooth="yes"/>
      <point x="205" y="150"/>
      <point x="238" y="119"/>
      <point x="289" y="119" type="curve" smooth="yes"/>
      <point x="334" y="119"/>
      <point x="362" y="138"/>
    </contour>
  </outline>
</glyph>
<glyph name="quotesingle" format="1">
  <advance width="204"/>
  <unicode hex="0027"/>
  <outline>
    <contour>
      <point x="235" y="513" type="line"/>
      <point x="159" y="513" type="line"/>
      <point x="201" y="739" type="line"/>
      <point x="277" y="739" type="line"/>
    </contour>
  </outline>
</glyph>
<glyph name="parenleft" format="1">
  <advance width="357"/>
  <unicode hex="0028"/>
  <outline>
    <contour>
      <point x="312" y="8" type="curve"/>
      <point x="286" y="-137" type="line"/>
      <point x="228" y="-116"/>
      <point x="192" y="-88"/>
      <point x="153" y="-32" type="curve" smooth="yes"/>
      <point x="107" y="35"/>
      <point x="83" y="119"/>
      <point x="83" y="207" type="curve" smooth="yes"/>
      <point x="83" y="238"/>
      <point x="86" y="269"/>
      <point x="92" y="300" type="curve" smooth="yes"/>
      <point x="119" y="444"/>
      <point x="204" y="582"/>
      <point x="319" y="669" type="curve" smooth="yes"/>
      <point x="362" y="701"/>
      <point x="393" y="717"/>
      <point x="448" y="739" type="curve"/>
      <point x="421" y="595" type="line"/>
      <point x="317" y="525"/>
      <point x="249" y="421"/>
      <point x="227" y="300" type="curve" smooth="yes"/>
      <point x="223" y="277"/>
      <point x="220" y="254"/>
      <point x="220" y="231" type="curve" smooth="yes"/>
      <point x="220" y="138"/>
      <point x="254" y="51"/>
    </contour>
  </outline>
</glyph>
<glyph name="parenright" format="1">
  <advance width="357"/>
  <unicode hex="0029"/>
  <outline>
    <contour>
      <point x="156" y="594" type="curve"/>
      <point x="183" y="739" type="line"/>
      <point x="241" y="718"/>
      <point x="277" y="690"/>
      <point x="316" y="634" type="curve" smooth="yes"/>
      <point x="362" y="567"/>
      <point x="386" y="483"/>
      <point x="386" y="395" type="curve" smooth="yes"/>
      <point x="386" y="364"/>
      <point x="383" y="333"/>
      <point x="377" y="302" type="curve" smooth="yes"/>
      <point x="350" y="158"/>
      <point x="265" y="20"/>
      <point x="150" y="-67" type="curve" smooth="yes"/>
      <point x="107" y="-99"/>
      <point x="76" y="-115"/>
      <point x="21" y="-137" type="curve"/>
      <point x="47" y="7" type="line"/>
      <point x="151" y="77"/>
      <point x="220" y="181"/>
      <point x="242" y="302" type="curve" smooth="yes"/>
      <point x="246" y="325"/>
      <point x="248" y="348"/>
      <point x="248" y="371" type="curve" smooth="yes"/>
      <point x="248" y="464"/>
      <point x="214" y="551"/>
    </contour>
  </outline>
</glyph>
<glyph name="asterisk" format="1">
  <advance width="409"/>
  <unicode hex="002A"/>
  <outline>
    <contour>
      <point x="231" y="706" type="line"/>
      <point x="300" y="738" type="line"/>
      <point x="328" y="652" type="line"/>
      <point x="390" y="739" type="line"/>
      <point x="442" y="703" type="line"/>
      <point x="373" y="620" type="line"/>
      <point x="471" y="626" type="line"/>
      <point x="458" y="554" type="line"/>
      <point x="362" y="559" type="line"/>
      <point x="400" y="479" type="line"/>
      <point x="336" y="441" type="line"/>
      <point x="305" y="529" type="line"/>
      <point x="246" y="441" type="line"/>
      <point x="187" y="472" type="line"/>
      <point x="256" y="561" type="line"/>
      <point x="157" y="554" type="line"/>
      <point x="170" y="625" type="line"/>
      <point x="268" y="620" type="line"/>
    </contour>
  </outline>
</glyph>
<glyph name="plus" format="1">
  <advance width="600"/>
  <unicode hex="002B"/>
  <outline>
    <contour>
      <point x="320" y="430" type="line"/>
      <point x="356" y="625" type="line"/>
      <point x="476" y="625" type="line"/>
      <point x="440" y="430" type="line"/>
      <point x="632" y="430" type="line"/>
      <point x="610" y="312" type="line"/>
      <point x="418" y="312" type="line"/>
      <point x="382" y="117" type="line"/>
      <point x="262" y="117" type="line"/>
      <point x="298" y="312" type="line"/>
      <point x="106" y="312" type="line"/>
      <point x="128" y="430" type="line"/>
    </contour>
  </outline>
</glyph>
<glyph name="comma" format="1">
  <advance width="281"/>
  <unicode hex="002C"/>
  <outline>
    <contour>
      <point x="74" y="0" type="line"/>
      <point x="98" y="128" type="line"/>
      <point x="231" y="128" type="line"/>
      <point x="206" y="-7" type="line" smooth="yes"/>
      <point x="195" y="-65"/>
      <point x="167" y="-102"/>
      <point x="118" y="-126" type="curve" smooth="yes"/>
      <point x="94" y="-137"/>
      <point x="77" y="-140"/>
      <point x="48" y="-140" type="curve"/>
      <point x="60" y="-73" type="line"/>
      <point x="103" y="-65"/>
      <point x="124" y="-49"/>
      <point x="130" y="-18" type="curve" smooth="yes"/>
      <point x="131" y="-13"/>
      <point x="132" y="-7"/>
      <point x="132" y="0" type="curve"/>
    </contour>
  </outline>
</glyph>
<glyph name="slash" format="1">
  <advance width="460"/>
  <unicode hex="002F"/>
  <outline>
    <contour>
      <point x="-12" y="-128" type="line"/>
      <point x="472" y="739" type="line"/>
      <point x="566" y="739" type="line"/>
      <point x="82" y="-128" type="line"/>
    </contour>
  </outline>
</glyph>
<glyph name="zero" format="1">
  <advance width="560"/>
  <unicode hex="0030"/>
  <outline>
    <contour>
      <point x="621" y="505" type="curve" smooth="yes"/>
      <point x="573" y="247" type="line" smooth="yes"/>
      <point x="543" y="83"/>
      <point x="436" y="-13"/>
      <point x="284" y="-13" type="curve" smooth="yes"/>
      <point x="194" y="-13"/>
      <point x="129" y="20"/>
      <point x="94" y="81" type="curve" smooth="yes"/>
      <point x="78" y="110"/>
      <point x="71" y="141"/>
      <point x="71" y="178" type="curve" smooth="yes"/>
      <point x="71" y="199"/>
      <point x="73" y="221"/>
      <point x="78" y="247" type="curve" smooth="yes"/>
      <point x="124" y="498" type="line" smooth="yes"/>
      <point x="153" y="654"/>
      <point x="267" y="752"/>
      <point x="419" y="752" type="curve" smooth="yes"/>
      <point x="549" y="752"/>
      <point x="626" y="679"/>
      <point x="626" y="562" type="curve" smooth="yes"/>
      <point x="626" y="544"/>
      <point x="625" y="525"/>
    </contour>
    <contour>
      <point x="257" y="498" type="curve" smooth="yes"/>
      <point x="212" y="251" type="line" smooth="yes"/>
      <point x="209" y="235"/>
      <point x="207" y="220"/>
      <point x="207" y="206" type="curve" smooth="yes"/>
      <point x="207" y="143"/>
      <point x="239" y="109"/>
      <point x="302" y="109" type="curve" smooth="yes"/>
      <point x="377" y="109"/>
      <point x="423" y="155"/>
      <point x="440" y="248" type="curve" smooth="yes"/>
      <point x="486" y="498" type="line" smooth="yes"/>
      <point x="489" y="512"/>
      <point x="490" y="525"/>
      <point x="490" y="537" type="curve" smooth="yes"/>
      <point x="490" y="597"/>
      <point x="458" y="630"/>
      <point x="398" y="630" type="curve" smooth="yes"/>
      <point x="326" y="630"/>
      <point x="272" y="580"/>
    </contour>
  </outline>
</glyph>
<glyph name="one" format="1">
  <advance width="560"/>
  <unicode hex="0031"/>
  <outline>
    <contour>
      <point x="238" y="0" type="line"/>
      <point x="352" y="614" type="line"/>
      <point x="259" y="614" type="line"/>
      <point x="282" y="739" type="line"/>
      <point x="508" y="739" type="line"/>
      <point x="371" y="0" type="line"/>
    </contour>
  </outline>
</glyph>
<glyph name="three" format="1">
  <advance width="560"/>
  <unicode hex="0033"/>
  <outline>
    <contour>
      <point x="291" y="356" type="line"/>
      <point x="315" y="484" type="line"/>
      <point x="353" y="485"/>
      <point x="372" y="488"/>
      <point x="390" y="495" type="curve" smooth="yes"/>
      <point x="419" y="507"/>
      <point x="437" y="529"/>
      <point x="443" y="560" type="curve" smooth="yes"/>
      <point x="444" y="565"/>
      <point x="444" y="571"/>
      <point x="444" y="576" type="curve" smooth="yes"/>
      <point x="444" y="608"/>
      <point x="424" y="630"/>
      <point x="391" y="630" type="curve" smooth="yes"/>
      <point x="354" y="630"/>
      <point x="331" y="609"/>
      <point x="316" y="563" type="curve"/>
      <point x="181" y="563" type="line"/>
      <point x="197" y="625"/>
      <point x="217" y="658"/>
      <point x="256" y="692" type="curve" smooth="yes"/>
      <point x="300" y="731"/>
      <point x="356" y="752"/>
      <point x="412" y="752" type="curve" smooth="yes"/>
      <point x="512" y="752"/>
      <point x="578" y="686"/>
      <point x="578" y="593" type="curve" smooth="yes"/>
      <point x="578" y="580"/>
      <point x="577" y="567"/>
      <point x="574" y="553" type="curve" smooth="yes"/>
      <point x="563" y="496"/>
      <point x="538" y="457"/>
      <point x="489" y="426" type="curve"/>
      <point x="546" y="398"/>
      <point x="574" y="352"/>
      <point x="574" y="287" type="curve" smooth="yes"/>
      <point x="574" y="271"/>
      <point x="572" y="253"/>
      <point x="569" y="235" type="curve" smooth="yes"/>
      <point x="542" y="92"/>
      <point x="418" y="-13"/>
      <point x="275" y="-13" type="curve" smooth="yes"/>
      <point x="145" y="-13"/>
      <point x="61" y="69"/>
      <point x="61" y="189" type="curve" smooth="yes"/>
      <point x="61" y="200"/>
      <point x="62" y="212"/>
      <point x="64" y="224" type="curve"/>
      <point x="198" y="224" type="line" smooth="yes"/>
      <point x="198" y="221"/>
      <point x="197" y="217"/>
      <point x="197" y="214" type="curve" smooth="yes"/>
      <point x="197" y="150"/>
      <point x="234" y="109"/>
      <point x="296" y="109" type="curve" smooth="yes"/>
      <point x="363" y="109"/>
      <point x="422" y="161"/>
      <point x="435" y="232" type="curve" smooth="yes"/>
      <point x="437" y="241"/>
      <point x="437" y="249"/>
      <point x="437" y="257" type="curve" smooth="yes"/>
      <point x="437" y="318"/>
      <point x="392" y="356"/>
      <point x="313" y="356" type="curve" smooth="yes"/>
    </contour>
  </outline>
</glyph>
<glyph name="four" format="1">
  <advance width="560"/>
  <unicode hex="0034"/>
  <outline>
    <contour>
      <point x="51" y="219" type="line"/>
      <point x="487" y="739" type="line"/>
      <point x="599" y="739" type="line"/>
      <point x="505" y="230" type="line"/>
      <point x="583" y="230" type="line"/>
      <point x="561" y="111" type="line"/>
      <point x="483" y="111" type="line"/>
      <point x="462" y="0" type="line"/>
      <point x="329" y="0" type="line"/>
      <point x="350" y="111" type="line"/>
      <point x="31" y="111" type="line"/>
    </contour>
    <contour>
      <point x="372" y="230" type="line"/>
      <point x="424" y="515" type="line"/>
      <point x="188" y="230" type="line"/>
    </contour>
  </outline>
</glyph>
<glyph name="five" format="1">
  <advance width="560"/>
  <unicode hex="0035"/>
  <outline>
    <contour>
      <point x="120" y="353" type="line"/>
      <point x="261" y="739" type="line"/>
      <point x="595" y="739" type="line"/>
      <point x="572" y="614" type="line"/>
      <point x="338" y="614" type="line"/>
      <point x="289" y="478" type="line"/>
      <point x="330" y="494"/>
      <point x="353" y="499"/>
      <point x="387" y="499" type="curve" smooth="yes"/>
      <point x="504" y="499"/>
      <point x="580" y="418"/>
      <point x="580" y="302" type="curve" smooth="yes"/>
      <point x="580" y="284"/>
      <point x="579" y="266"/>
      <point x="575" y="247" type="curve" smooth="yes"/>
      <point x="547" y="98"/>
      <point x="420" y="-13"/>
      <point x="276" y="-13" type="curve" smooth="yes"/>
      <point x="149" y="-13"/>
      <point x="60" y="72"/>
      <point x="60" y="189" type="curve" smooth="yes"/>
      <point x="60" y="199"/>
      <point x="61" y="210"/>
      <point x="62" y="221" type="curve"/>
      <point x="195" y="221" type="line"/>
      <point x="196" y="149"/>
      <point x="230" y="109"/>
      <point x="294" y="109" type="curve" smooth="yes"/>
      <point x="366" y="109"/>
      <point x="426" y="165"/>
      <point x="441" y="245" type="curve" smooth="yes"/>
      <point x="443" y="255"/>
      <point x="444" y="265"/>
      <point x="444" y="274" type="curve" smooth="yes"/>
      <point x="444" y="334"/>
      <point x="406" y="377"/>
      <point x="346" y="377" type="curve" smooth="yes"/>
      <point x="304" y="377"/>
      <point x="273" y="362"/>
      <point x="232" y="321" type="curve"/>
    </contour>
  </outline>
</glyph>
<glyph name="six" format="1">
  <advance width="560"/>
  <unicode hex="0036"/>
  <outline>
    <contour>
      <point x="427" y="739" type="line"/>
      <point x="586" y="739" type="line"/>
      <point x="360" y="476" type="line"/>
      <point x="384" y="484"/>
      <point x="398" y="486"/>
      <point x="422" y="486" type="curve" smooth="yes"/>
      <point x="523" y="486"/>
      <point x="588" y="414"/>
      <point x="588" y="307" type="curve" smooth="yes"/>
      <point x="588" y="290"/>
      <point x="587" y="271"/>
      <point x="583" y="252" type="curve" smooth="yes"/>
      <point x="554" y="97"/>
      <point x="429" y="-13"/>
      <point x="281" y="-13" type="curve" smooth="yes"/>
      <point x="150" y="-13"/>
      <point x="64" y="71"/>
      <point x="64" y="191" type="curve" smooth="yes"/>
      <point x="64" y="207"/>
      <point x="66" y="224"/>
      <point x="69" y="242" type="curve" smooth="yes"/>
      <point x="82" y="314"/>
      <point x="111" y="369"/>
      <point x="180" y="449" type="curve" smooth="yes"/>
    </contour>
    <contour>
      <point x="346" y="370" type="curve" smooth="yes"/>
      <point x="276" y="370"/>
      <point x="215" y="315"/>
      <point x="201" y="239" type="curve" smooth="yes"/>
      <point x="199" y="229"/>
      <point x="199" y="220"/>
      <point x="199" y="211" type="curve" smooth="yes"/>
      <point x="199" y="150"/>
      <point x="239" y="109"/>
      <point x="304" y="109" type="curve" smooth="yes"/>
      <point x="374" y="109"/>
      <point x="433" y="162"/>
      <point x="447" y="239" type="curve" smooth="yes"/>
      <point x="449" y="249"/>
      <point x="450" y="259"/>
      <point x="450" y="268" type="curve" smooth="yes"/>
      <point x="450" y="329"/>
      <point x="411" y="370"/>
    </contour>
  </outline>
</glyph>
<glyph name="seven" format="1">
  <advance width="560"/>
  <unicode hex="0037"/>
  <outline>
    <contour>
      <point x="80" y="0" type="line"/>
      <point x="474" y="614" type="line"/>
      <point x="179" y="614" type="line"/>
      <point x="202" y="739" type="line"/>
      <point x="637" y="739" type="line"/>
      <point x="614" y="614" type="line"/>
      <point x="230" y="0" type="line"/>
    </contour>
  </outline>
</glyph>
<glyph name="eight" format="1">
  <advance width="560"/>
  <unicode hex="0038"/>
  <outline>
    <contour>
      <point x="216" y="411" type="curve"/>
      <point x="188" y="448"/>
      <point x="177" y="476"/>
      <point x="177" y="511" type="curve" smooth="yes"/>
      <point x="177" y="523"/>
      <point x="178" y="535"/>
      <point x="181" y="549" type="curve" smooth="yes"/>
      <point x="202" y="662"/>
      <point x="308" y="752"/>
      <point x="421" y="752" type="curve" smooth="yes"/>
      <point x="523" y="752"/>
      <point x="590" y="685"/>
      <point x="590" y="591" type="curve" smooth="yes"/>
      <point x="590" y="578"/>
      <point x="589" y="565"/>
      <point x="586" y="551" type="curve" smooth="yes"/>
      <point x="575" y="489"/>
      <point x="547" y="445"/>
      <point x="498" y="411" type="curve"/>
      <point x="525" y="393"/>
      <point x="537" y="383"/>
      <point x="549" y="366" type="curve" smooth="yes"/>
      <point x="565" y="343"/>
      <point x="573" y="312"/>
      <point x="573" y="277" type="curve" smooth="yes"/>
      <point x="573" y="263"/>
      <point x="572" y="248"/>
      <point x="569" y="232" type="curve" smooth="yes"/>
      <point x="543" y="92"/>
      <point x="419" y="-13"/>
      <point x="279" y="-13" type="curve" smooth="yes"/>
      <point x="155" y="-13"/>
      <point x="72" y="70"/>
      <point x="72" y="184" type="curve" smooth="yes"/>
      <point x="72" y="199"/>
      <point x="74" y="215"/>
      <point x="77" y="231" type="curve" smooth="yes"/>
      <point x="86" y="279"/>
      <point x="110" y="327"/>
      <point x="143" y="360" type="curve" smooth="yes"/>
      <point x="162" y="380"/>
      <point x="178" y="392"/>
    </contour>
    <contour>
      <point x="398" y="630" type="curve" smooth="yes"/>
      <point x="356" y="630"/>
      <point x="316" y="594"/>
      <point x="308" y="549" type="curve" smooth="yes"/>
      <point x="307" y="544"/>
      <point x="306" y="538"/>
      <point x="306" y="533" type="curve" smooth="yes"/>
      <point x="306" y="496"/>
      <point x="332" y="469"/>
      <point x="369" y="469" type="curve" smooth="yes"/>
      <point x="411" y="469"/>
      <point x="450" y="505"/>
      <point x="459" y="551" type="curve" smooth="yes"/>
      <point x="460" y="557"/>
      <point x="461" y="562"/>
      <point x="461" y="567" type="curve" smooth="yes"/>
      <point x="461" y="604"/>
      <point x="436" y="630"/>
    </contour>
    <contour>
      <point x="342" y="341" type="curve" smooth="yes"/>
      <point x="280" y="341"/>
      <point x="221" y="289"/>
      <point x="209" y="225" type="curve" smooth="yes"/>
      <point x="208" y="217"/>
      <point x="207" y="210"/>
      <point x="207" y="203" type="curve" smooth="yes"/>
      <point x="207" y="149"/>
      <point x="245" y="109"/>
      <point x="302" y="109" type="curve" smooth="yes"/>
      <point x="365" y="109"/>
      <point x="423" y="159"/>
      <point x="435" y="226" type="curve" smooth="yes"/>
      <point x="436" y="234"/>
      <point x="437" y="241"/>
      <point x="437" y="248" type="curve" smooth="yes"/>
      <point x="437" y="302"/>
      <point x="398" y="341"/>
    </contour>
  </outline>
</glyph>
<glyph name="nine" format="1">
  <advance width="560"/>
  <unicode hex="0039"/>
  <outline>
    <contour>
      <point x="269" y="0" type="line"/>
      <point x="110" y="0" type="line"/>
      <point x="337" y="263" type="line"/>
      <point x="311" y="254"/>
      <point x="298" y="251"/>
      <point x="275" y="251" type="curve" smooth="yes"/>
      <point x="175" y="251"/>
      <point x="110" y="326"/>
      <point x="110" y="433" type="curve" smooth="yes"/>
      <point x="110" y="450"/>
      <point x="112" y="468"/>
      <point x="115" y="487" type="curve" smooth="yes"/>
      <point x="144" y="642"/>
      <point x="268" y="752"/>
      <point x="415" y="752" type="curve" smooth="yes"/>
      <point x="546" y="752"/>
      <point x="632" y="667"/>
      <point x="632" y="547" type="curve" smooth="yes"/>
      <point x="632" y="531"/>
      <point x="630" y="514"/>
      <point x="627" y="496" type="curve" smooth="yes"/>
      <point x="614" y="425"/>
      <point x="584" y="370"/>
      <point x="516" y="290" type="curve" smooth="yes"/>
    </contour>
    <contour>
      <point x="391" y="630" type="curve" smooth="yes"/>
      <point x="323" y="630"/>
      <point x="265" y="576"/>
      <point x="251" y="500" type="curve" smooth="yes"/>
      <point x="249" y="490"/>
      <point x="248" y="480"/>
      <point x="248" y="471" type="curve" smooth="yes"/>
      <point x="248" y="410"/>
      <point x="287" y="369"/>
      <point x="349" y="369" type="curve" smooth="yes"/>
      <point x="419" y="369"/>
      <point x="481" y="423"/>
      <point x="495" y="500" type="curve" smooth="yes"/>
      <point x="497" y="510"/>
      <point x="497" y="520"/>
      <point x="497" y="529" type="curve" smooth="yes"/>
      <point x="497" y="590"/>
      <point x="457" y="630"/>
    </contour>
  </outline>
</glyph>
<glyph name="colon" format="1">
  <advance width="281"/>
  <unicode hex="003A"/>
  <outline>
    <contour>
      <point x="74" y="0" type="line"/>
      <point x="98" y="128" type="line"/>
      <point x="231" y="128" type="line"/>
      <point x="207" y="0" type="line"/>
    </contour>
    <contour>
      <point x="142" y="369" type="line"/>
      <point x="167" y="502" type="line"/>
      <point x="300" y="502" type="line"/>
      <point x="275" y="369" type="line"/>
    </contour>
  </outline>
</glyph>
<glyph name="semicolon" format="1">
  <advance width="281"/>
  <unicode hex="003B"/>
  <outline>
    <contour>
      <point x="74" y="0" type="line"/>
      <point x="98" y="128" type="line"/>
      <point x="231" y="128" type="line"/>
      <point x="206" y="-7" type="line" smooth="yes"/>
      <point x="197" y="-56"/>
      <point x="180" y="-84"/>
      <point x="144" y="-110" type="curve" smooth="yes"/>
      <point x="116" y="-131"/>
      <point x="85" y="-140"/>
      <point x="48" y="-140" type="curve"/>
      <point x="60" y="-73" type="line"/>
      <point x="104" y="-65"/>
      <point x="124" y="-49"/>
      <point x="130" y="-15" type="curve" smooth="yes"/>
      <point x="133" y="0" type="line"/>
    </contour>
    <contour>
      <point x="142" y="369" type="line"/>
      <point x="167" y="502" type="line"/>
      <point x="300" y="502" type="line"/>
      <point x="275" y="369" type="line"/>
    </contour>
  </outline>
</glyph>
<glyph name="less" format="1">
  <advance width="600"/>
  <unicode hex="003C"/>
  <outline>
    <contour>
      <point x="661" y="582" type="line"/>
      <point x="639" y="465" type="line"/>
      <point x="269" y="308" type="line"/>
      <point x="581" y="149" type="line"/>
      <point x="559" y="33" type="line"/>
      <point x="92" y="258" type="line"/>
      <point x="110" y="356" type="line"/>
    </contour>
  </outline>
</glyph>
<glyph name="equal" format="1">
  <advance width="600"/>
  <unicode hex="003D"/>
  <outline>
    <contour>
      <point x="649" y="523" type="line"/>
      <point x="627" y="405" type="line"/>
      <point x="123" y="405" type="line"/>
      <point x="145" y="523" type="line"/>
    </contour>
    <contour>
      <point x="613" y="328" type="line"/>
      <point x="591" y="210" type="line"/>
      <point x="87" y="210" type="line"/>
      <point x="109" y="328" type="line"/>
    </contour>
  </outline>
</glyph>
<glyph name="greater" format="1">
  <advance width="600"/>
  <unicode hex="003E"/>
  <outline>
    <contour>
      <point x="53" y="33" type="line"/>
      <point x="75" y="149" type="line"/>
      <point x="446" y="306" type="line"/>
      <point x="133" y="465" type="line"/>
      <point x="155" y="582" type="line"/>
      <point x="622" y="356" type="line"/>
      <point x="604" y="258" type="line"/>
    </contour>
  </outline>
</glyph>
<glyph name="question" format="1">
  <advance width="519"/>
  <unicode hex="003F"/>
  <outline>
    <contour>
      <point x="352" y="187" type="curve"/>
      <point x="219" y="187" type="line"/>
      <point x="242" y="311"/>
      <point x="273" y="360"/>
      <point x="388" y="442" type="curve" smooth="yes"/>
      <point x="421" y="466"/>
      <point x="443" y="496"/>
      <point x="449" y="527" type="curve" smooth="yes"/>
      <point x="450" y="534"/>
      <point x="450" y="540"/>
      <point x="450" y="546" type="curve" smooth="yes"/>
      <point x="450" y="590"/>
      <point x="419" y="620"/>
      <point x="371" y="620" type="curve" smooth="yes"/>
      <point x="317" y="620"/>
      <point x="282" y="588"/>
      <point x="260" y="520" type="curve"/>
      <point x="127" y="520" type="line"/>
      <point x="145" y="588"/>
      <point x="168" y="631"/>
      <point x="206" y="669" type="curve" smooth="yes"/>
      <point x="259" y="722"/>
      <point x="328" y="752"/>
      <point x="398" y="752" type="curve" smooth="yes"/>
      <point x="511" y="752"/>
      <point x="585" y="677"/>
      <point x="585" y="570" type="curve" smooth="yes"/>
      <point x="585" y="555"/>
      <point x="584" y="539"/>
      <point x="581" y="523" type="curve" smooth="yes"/>
      <point x="569" y="456"/>
      <point x="537" y="413"/>
      <point x="446" y="344" type="curve" smooth="yes"/>
      <point x="382" y="297"/>
      <point x="368" y="274"/>
    </contour>
    <contour>
      <point x="184" y="0" type="line"/>
      <point x="208" y="128" type="line"/>
      <point x="341" y="128" type="line"/>
      <point x="317" y="0" type="line"/>
    </contour>
  </outline>
</glyph>
<glyph name="at" format="1">
  <advance width="814"/>
  <unicode hex="0040"/>
  <outline>
    <contour>
      <point x="719" y="573" type="line"/>
      <point x="632" y="278" type="line" smooth="yes"/>
      <point x="630" y="274"/>
      <point x="629" y="269"/>
      <point x="628" y="265" type="curve" smooth="yes"/>
      <point x="627" y="261"/>
      <point x="627" y="258"/>
      <point x="627" y="255" type="curve" smooth="yes"/>
      <point x="627" y="242"/>
      <point x="634" y="237"/>
      <point x="650" y="237" type="curve" smooth="yes"/>
      <point x="703" y="237"/>
      <point x="764" y="318"/>
      <point x="782" y="413" type="curve" smooth="yes"/>
      <point x="786" y="434"/>
      <point x="787" y="454"/>
      <point x="787" y="474" type="curve" smooth="yes"/>
      <point x="787" y="607"/>
      <point x="698" y="694"/>
      <point x="552" y="694" type="curve" smooth="yes"/>
      <point x="370" y="694"/>
      <point x="211" y="558"/>
      <point x="177" y="375" type="curve" smooth="yes"/>
      <point x="173" y="355"/>
      <point x="171" y="335"/>
      <point x="171" y="315" type="curve" smooth="yes"/>
      <point x="171" y="244"/>
      <point x="195" y="179"/>
      <point x="239" y="134" type="curve" smooth="yes"/>
      <point x="284" y="87"/>
      <point x="361" y="60"/>
      <point x="445" y="60" type="curve" smooth="yes"/>
      <point x="504" y="60"/>
      <point x="552" y="74"/>
      <point x="603" y="107" type="curve"/>
      <point x="638" y="47" type="line"/>
      <point x="575" y="4"/>
      <point x="515" y="-13"/>
      <point x="430" y="-13" type="curve" smooth="yes"/>
      <point x="300" y="-13"/>
      <point x="203" y="34"/>
      <point x="146" y="126" type="curve" smooth="yes"/>
      <point x="115" y="176"/>
      <point x="99" y="236"/>
      <point x="99" y="301" type="curve" smooth="yes"/>
      <point x="99" y="326"/>
      <point x="101" y="351"/>
      <point x="106" y="377" type="curve" smooth="yes"/>
      <point x="147" y="598"/>
      <point x="344" y="766"/>
      <point x="562" y="766" type="curve" smooth="yes"/>
      <point x="705" y="766"/>
      <point x="814" y="695"/>
      <point x="849" y="581" type="curve" smooth="yes"/>
      <point x="857" y="555"/>
      <point x="861" y="524"/>
      <point x="861" y="490" type="curve" smooth="yes"/>
      <point x="861" y="461"/>
      <point x="858" y="429"/>
      <point x="852" y="397" type="curve" smooth="yes"/>
      <point x="825" y="253"/>
      <point x="722" y="154"/>
      <point x="596" y="154" type="curve" smooth="yes"/>
      <point x="543" y="154"/>
      <point x="513" y="172"/>
      <point x="507" y="208" type="curve"/>
      <point x="475" y="171"/>
      <point x="438" y="154"/>
      <point x="384" y="154" type="curve" smooth="yes"/>
      <point x="298" y="154"/>
      <point x="249" y="207"/>
      <point x="249" y="294" type="curve" smooth="yes"/>
      <point x="249" y="310"/>
      <point x="251" y="326"/>
      <point x="254" y="344" type="curve" smooth="yes"/>
      <point x="279" y="477"/>
      <point x="383" y="577"/>
      <point x="499" y="577" type="curve" smooth="yes"/>
      <point x="553" y="577"/>
      <point x="581" y="562"/>
      <point x="606" y="519" type="curve"/>
      <point x="623" y="573" type="line"/>
    </contour>
    <contour>
      <point x="497" y="465" type="curve" smooth="yes"/>
      <point x="442" y="465"/>
      <point x="387" y="415"/>
      <point x="376" y="355" type="curve" smooth="yes"/>
      <point x="374" y="345"/>
      <point x="373" y="336"/>
      <point x="373" y="328" type="curve" smooth="yes"/>
      <point x="373" y="285"/>
      <point x="396" y="260"/>
      <point x="437" y="260" type="curve" smooth="yes"/>
      <point x="495" y="260"/>
      <point x="545" y="307"/>
      <point x="557" y="374" type="curve" smooth="yes"/>
      <point x="559" y="384"/>
      <point x="560" y="393"/>
      <point x="560" y="401" type="curve" smooth="yes"/>
      <point x="560" y="442"/>
      <point x="538" y="465"/>
    </contour>
  </outline>
</glyph>
<glyph name="C" format="1">
  <advance width="802"/>
  <unicode hex="0043"/>
  <outline>
    <contour>
      <point x="643" y="206" type="curve"/>
      <point x="804" y="206" type="line"/>
      <point x="721" y="71"/>
      <point x="575" y="-13"/>
      <point x="423" y="-13" type="curve" smooth="yes"/>
      <point x="231" y="-13"/>
      <point x="98" y="121"/>
      <point x="98" y="301" type="curve" smooth="yes"/>
      <point x="98" y="324"/>
      <point x="101" y="348"/>
      <point x="105" y="372" type="curve" smooth="yes"/>
      <point x="144" y="581"/>
      <point x="346" y="752"/>
      <point x="555" y="752" type="curve" smooth="yes"/>
      <point x="648" y="752"/>
      <point x="732" y="720"/>
      <point x="790" y="662" type="curve" smooth="yes"/>
      <point x="830" y="622"/>
      <point x="847" y="589"/>
      <point x="864" y="527" type="curve"/>
      <point x="711" y="527" type="line"/>
      <point x="673" y="592"/>
      <point x="620" y="620"/>
      <point x="534" y="620" type="curve" smooth="yes"/>
      <point x="458" y="620"/>
      <point x="390" y="592"/>
      <point x="335" y="539" type="curve" smooth="yes"/>
      <point x="289" y="495"/>
      <point x="254" y="431"/>
      <point x="243" y="371" type="curve" smooth="yes"/>
      <point x="240" y="355"/>
      <point x="238" y="340"/>
      <point x="238" y="325" type="curve" smooth="yes"/>
      <point x="238" y="209"/>
      <point x="323" y="119"/>
      <point x="444" y="119" type="curve" smooth="yes"/>
      <point x="515" y="119"/>
      <point x="570" y="143"/>
    </contour>
  </outline>
</glyph>
<glyph name="D" format="1">
  <advance width="699"/>
  <unicode hex="0044"/>
  <outline>
    <contour>
      <point x="71" y="0" type="line"/>
      <point x="208" y="739" type="line"/>
      <point x="377" y="739" type="line" smooth="yes"/>
      <point x="498" y="739"/>
      <point x="583" y="720"/>
      <point x="636" y="681" type="curve" smooth="yes"/>
      <point x="704" y="632"/>
      <point x="739" y="551"/>
      <point x="739" y="453" type="curve" smooth="yes"/>
      <point x="739" y="426"/>
      <point x="736" y="398"/>
      <point x="731" y="368" type="curve" smooth="yes"/>
      <point x="703" y="215"/>
      <point x="610" y="93"/>
      <point x="483" y="38" type="curve" smooth="yes"/>
      <point x="419" y="11"/>
      <point x="352" y="0"/>
      <point x="243" y="0" type="curve" smooth="yes"/>
    </contour>
    <contour>
      <point x="232" y="131" type="line"/>
      <point x="262" y="131" type="line" smooth="yes"/>
      <point x="344" y="131"/>
      <point x="403" y="142"/>
      <point x="448" y="164" type="curve" smooth="yes"/>
      <point x="521" y="200"/>
      <point x="577" y="279"/>
      <point x="593" y="368" type="curve" smooth="yes"/>
      <point x="596" y="387"/>
      <point x="598" y="405"/>
      <point x="598" y="422" type="curve" smooth="yes"/>
      <point x="598" y="494"/>
      <point x="569" y="552"/>
      <point x="515" y="581" type="curve" smooth="yes"/>
      <point x="477" y="601"/>
      <point x="433" y="608"/>
      <point x="348" y="608" type="curve" smooth="yes"/>
      <point x="321" y="608" type="line"/>
    </contour>
  </outline>
</glyph>
<glyph name="F" format="1">
  <advance width="495"/>
  <unicode hex="0046"/>
  <outline>
    <contour>
      <point x="71" y="0" type="line"/>
      <point x="208" y="739" type="line"/>
      <point x="584" y="739" type="line"/>
      <point x="560" y="608" type="line"/>
      <point x="321" y="608" type="line"/>
      <point x="288" y="434" type="line"/>
      <point x="516" y="434" type="line"/>
      <point x="492" y="303" type="line"/>
      <point x="264" y="303" type="line"/>
      <point x="208" y="0" type="line"/>
    </contour>
  </outline>
</glyph>
<glyph name="G" format="1">
  <advance width="857"/>
  <unicode hex="0047"/>
  <outline>
    <contour>
      <point x="387" y="249" type="line"/>
      <point x="411" y="377" type="line"/>
      <point x="894" y="377" type="line"/>
      <point x="891" y="359" type="line" smooth="yes"/>
      <point x="873" y="264"/>
      <point x="818" y="172"/>
      <point x="737" y="101" type="curve" smooth="yes"/>
      <point x="650" y="26"/>
      <point x="548" y="-13"/>
      <point x="436" y="-13" type="curve" smooth="yes"/>
      <point x="235" y="-13"/>
      <point x="98" y="119"/>
      <point x="98" y="300" type="curve" smooth="yes"/>
      <point x="98" y="323"/>
      <point x="100" y="347"/>
      <point x="105" y="371" type="curve" smooth="yes"/>
      <point x="144" y="584"/>
      <point x="347" y="752"/>
      <point x="564" y="752" type="curve" smooth="yes"/>
      <point x="725" y="752"/>
      <point x="860" y="656"/>
      <point x="883" y="522" type="curve"/>
      <point x="722" y="522" type="line"/>
      <point x="688" y="586"/>
      <point x="623" y="620"/>
      <point x="537" y="620" type="curve" smooth="yes"/>
      <point x="466" y="620"/>
      <point x="397" y="594"/>
      <point x="345" y="548" type="curve" smooth="yes"/>
      <point x="295" y="503"/>
      <point x="254" y="433"/>
      <point x="242" y="369" type="curve" smooth="yes"/>
      <point x="239" y="353"/>
      <point x="238" y="336"/>
      <point x="238" y="321" type="curve" smooth="yes"/>
      <point x="238" y="203"/>
      <point x="324" y="119"/>
      <point x="452" y="119" type="curve" smooth="yes"/>
      <point x="550" y="119"/>
      <point x="638" y="167"/>
      <point x="693" y="249" type="curve"/>
    </contour>
  </outline>
</glyph>
<glyph name="H" format="1">
  <advance width="680"/>
  <unicode hex="0048"/>
  <outline>
    <contour>
      <point x="71" y="0" type="line"/>
      <point x="208" y="739" type="line"/>
      <point x="345" y="739" type="line"/>
      <point x="290" y="441" type="line"/>
      <point x="554" y="441" type="line"/>
      <point x="609" y="739" type="line"/>
      <point x="746" y="739" type="line"/>
      <point x="609" y="0" type="line"/>
      <point x="472" y="0" type="line"/>
      <point x="529" y="310" type="line"/>
      <point x="265" y="310" type="line"/>
      <point x="208" y="0" type="line"/>
    </contour>
  </outline>
</glyph>
<glyph name="N" format="1">
  <advance width="741"/>
  <unicode hex="004E"/>
  <outline>
    <contour>
      <point x="71" y="0" type="line"/>
      <point x="208" y="739" type="line"/>
      <point x="364" y="739" type="line"/>
      <point x="570" y="201" type="line"/>
      <point x="670" y="739" type="line"/>
      <point x="807" y="739" type="line"/>
      <point x="670" y="0" type="line"/>
      <point x="517" y="0" type="line"/>
      <point x="308" y="537" type="line"/>
      <point x="208" y="0" type="line"/>
    </contour>
  </outline>
</glyph>
<glyph name="Q" format="1">
  <advance width="864"/>
  <unicode hex="0051"/>
  <outline>
    <contour>
      <point x="854" y="110" type="curve"/>
      <point x="831" y="-14" type="line"/>
      <point x="823" y="-15"/>
      <point x="816" y="-15"/>
      <point x="812" y="-15" type="curve" smooth="yes"/>
      <point x="749" y="-15"/>
      <point x="704" y="2"/>
      <point x="649" y="45" type="curve"/>
      <point x="589" y="9"/>
      <point x="509" y="-13"/>
      <point x="435" y="-13" type="curve" smooth="yes"/>
      <point x="236" y="-13"/>
      <point x="98" y="121"/>
      <point x="98" y="301" type="curve" smooth="yes"/>
      <point x="98" y="323"/>
      <point x="101" y="346"/>
      <point x="105" y="370" type="curve" smooth="yes"/>
      <point x="145" y="585"/>
      <point x="347" y="752"/>
      <point x="568" y="752" type="curve" smooth="yes"/>
      <point x="766" y="752"/>
      <point x="896" y="624"/>
      <point x="896" y="442" type="curve" smooth="yes"/>
      <point x="896" y="417"/>
      <point x="894" y="392"/>
      <point x="889" y="366" type="curve" smooth="yes"/>
      <point x="871" y="268"/>
      <point x="828" y="192"/>
      <point x="756" y="129" type="curve"/>
      <point x="784" y="113"/>
      <point x="802" y="107"/>
      <point x="826" y="107" type="curve" smooth="yes"/>
      <point x="835" y="107"/>
      <point x="841" y="108"/>
    </contour>
    <contour>
      <point x="551" y="138" type="curve"/>
      <point x="478" y="207"/>
      <point x="413" y="235"/>
      <point x="332" y="235" type="curve" smooth="yes"/>
      <point x="307" y="235"/>
      <point x="291" y="233"/>
      <point x="259" y="227" type="curve"/>
      <point x="302" y="153"/>
      <point x="365" y="119"/>
      <point x="458" y="119" type="curve" smooth="yes"/>
      <point x="496" y="119"/>
      <point x="517" y="123"/>
    </contour>
    <contour>
      <point x="661" y="204" type="curve"/>
      <point x="709" y="245"/>
      <point x="738" y="297"/>
      <point x="750" y="364" type="curve" smooth="yes"/>
      <point x="753" y="382"/>
      <point x="755" y="399"/>
      <point x="755" y="416" type="curve" smooth="yes"/>
      <point x="755" y="536"/>
      <point x="671" y="620"/>
      <point x="543" y="620" type="curve" smooth="yes"/>
      <point x="397" y="620"/>
      <point x="268" y="512"/>
      <point x="241" y="368" type="curve" smooth="yes"/>
      <point x="239" y="359"/>
      <point x="238" y="351"/>
      <point x="237" y="334" type="curve"/>
      <point x="274" y="343"/>
      <point x="308" y="347"/>
      <point x="353" y="347" type="curve" smooth="yes"/>
      <point x="471" y="347"/>
      <point x="587" y="293"/>
    </contour>
  </outline>
</glyph>
<glyph name="R" format="1">
  <advance width="604"/>
  <unicode hex="0052"/>
  <outline>
    <contour>
      <point x="71" y="0" type="line"/>
      <point x="208" y="739" type="line"/>
      <point x="421" y="739" type="line" smooth="yes"/>
      <point x="525" y="739"/>
      <point x="576" y="724"/>
      <point x="617" y="680" type="curve" smooth="yes"/>
      <point x="647" y="648"/>
      <point x="662" y="605"/>
      <point x="662" y="555" type="curve" smooth="yes"/>
      <point x="662" y="538"/>
      <point x="660" y="521"/>
      <point x="657" y="502" type="curve" smooth="yes"/>
      <point x="643" y="427"/>
      <point x="605" y="367"/>
      <point x="544" y="324" type="curve" smooth="yes"/>
      <point x="508" y="299"/>
      <point x="480" y="287"/>
      <point x="422" y="273" type="curve"/>
      <point x="571" y="0" type="line"/>
      <point x="402" y="0" type="line"/>
      <point x="260" y="283" type="line"/>
      <point x="208" y="0" type="line"/>
    </contour>
    <contour>
      <point x="280" y="386" type="line"/>
      <point x="347" y="386" type="line" smooth="yes"/>
      <point x="453" y="386"/>
      <point x="504" y="420"/>
      <point x="518" y="498" type="curve" smooth="yes"/>
      <point x="520" y="507"/>
      <point x="521" y="515"/>
      <point x="521" y="523" type="curve" smooth="yes"/>
      <point x="521" y="548"/>
      <point x="512" y="570"/>
      <point x="496" y="584" type="curve" smooth="yes"/>
      <point x="477" y="601"/>
      <point x="444" y="608"/>
      <point x="382" y="608" type="curve" smooth="yes"/>
      <point x="321" y="608" type="line"/>
    </contour>
  </outline>
</glyph>
<glyph name="S" format="1">
  <advance width="524"/>
  <unicode hex="0053"/>
  <outline>
    <contour>
      <point x="58" y="211" type="curve"/>
      <point x="201" y="211" type="line"/>
      <point x="201" y="206"/>
      <point x="200" y="201"/>
      <point x="200" y="196" type="curve" smooth="yes"/>
      <point x="200" y="144"/>
      <point x="228" y="119"/>
      <point x="284" y="119" type="curve" smooth="yes"/>
      <point x="343" y="119"/>
      <point x="391" y="156"/>
      <point x="401" y="209" type="curve" smooth="yes"/>
      <point x="402" y="216"/>
      <point x="403" y="223"/>
      <point x="403" y="230" type="curve" smooth="yes"/>
      <point x="403" y="253"/>
      <point x="395" y="271"/>
      <point x="378" y="286" type="curve" smooth="yes"/>
      <point x="359" y="302"/>
      <point x="354" y="305"/>
      <point x="263" y="341" type="curve" smooth="yes"/>
      <point x="184" y="372"/>
      <point x="143" y="429"/>
      <point x="143" y="502" type="curve" smooth="yes"/>
      <point x="143" y="515"/>
      <point x="143" y="528"/>
      <point x="146" y="542" type="curve" smooth="yes"/>
      <point x="168" y="659"/>
      <point x="280" y="752"/>
      <point x="400" y="752" type="curve" smooth="yes"/>
      <point x="471" y="752"/>
      <point x="532" y="721"/>
      <point x="562" y="668" type="curve" smooth="yes"/>
      <point x="577" y="642"/>
      <point x="583" y="616"/>
      <point x="583" y="583" type="curve" smooth="yes"/>
      <point x="583" y="570"/>
      <point x="582" y="557"/>
      <point x="580" y="542" type="curve"/>
      <point x="438" y="542" type="line"/>
      <point x="438" y="547"/>
      <point x="439" y="552"/>
      <point x="439" y="556" type="curve" smooth="yes"/>
      <point x="439" y="597"/>
      <point x="417" y="620"/>
      <point x="375" y="620" type="curve" smooth="yes"/>
      <point x="330" y="620"/>
      <point x="293" y="589"/>
      <point x="285" y="545" type="curve" smooth="yes"/>
      <point x="284" y="540"/>
      <point x="284" y="536"/>
      <point x="284" y="532" type="curve" smooth="yes"/>
      <point x="284" y="510"/>
      <point x="294" y="491"/>
      <point x="315" y="477" type="curve" smooth="yes"/>
      <point x="323" y="471"/>
      <point x="326" y="470"/>
      <point x="389" y="445" type="curve" smooth="yes"/>
      <point x="457" y="417"/>
      <point x="478" y="405"/>
      <point x="502" y="378" type="curve" smooth="yes"/>
      <point x="530" y="348"/>
      <point x="544" y="310"/>
      <point x="544" y="267" type="curve" smooth="yes"/>
      <point x="544" y="253"/>
      <point x="543" y="239"/>
      <point x="540" y="224" type="curve" smooth="yes"/>
      <point x="515" y="90"/>
      <point x="393" y="-13"/>
      <point x="260" y="-13" type="curve" smooth="yes"/>
      <point x="179" y="-13"/>
      <point x="111" y="22"/>
      <point x="79" y="81" type="curve" smooth="yes"/>
      <point x="63" y="110"/>
      <point x="56" y="137"/>
      <point x="56" y="172" type="curve" smooth="yes"/>
      <point x="56" y="184"/>
      <point x="56" y="197"/>
    </contour>
  </outline>
</glyph>
<glyph name="V" format="1">
  <advance width="694"/>
  <unicode hex="0056"/>
  <outline>
    <contour>
      <point x="292" y="0" type="line"/>
      <point x="141" y="739" type="line"/>
      <point x="285" y="739" type="line"/>
      <point x="380" y="177" type="line"/>
      <point x="683" y="739" type="line"/>
      <point x="827" y="739" type="line"/>
      <point x="404" y="0" type="line"/>
    </contour>
  </outline>
</glyph>
<glyph name="W" format="1">
  <advance width="915"/>
  <unicode hex="0057"/>
  <outline>
    <contour>
      <point x="229" y="0" type="line"/>
      <point x="149" y="739" type="line"/>
      <point x="289" y="739" type="line"/>
      <point x="323" y="223" type="line"/>
      <point x="545" y="739" type="line"/>
      <point x="645" y="739" type="line"/>
      <point x="673" y="223" type="line"/>
      <point x="900" y="739" type="line"/>
      <point x="1040" y="739" type="line"/>
      <point x="687" y="0" type="line"/>
      <point x="578" y="0" type="line"/>
      <point x="550" y="489" type="line"/>
      <point x="337" y="0" type="line"/>
    </contour>
  </outline>
</glyph>
<glyph name="X" format="1">
  <advance width="685"/>
  <unicode hex="0058"/>
  <outline>
    <contour>
      <point x="7" y="0" type="line"/>
      <point x="329" y="368" type="line"/>
      <point x="144" y="739" type="line"/>
      <point x="307" y="739" type="line"/>
      <point x="431" y="481" type="line"/>
      <point x="656" y="739" type="line"/>
      <point x="815" y="739" type="line"/>
      <point x="490" y="368" type="line"/>
      <point x="678" y="0" type="line"/>
      <point x="519" y="0" type="line"/>
      <point x="389" y="255" type="line"/>
      <point x="170" y="0" type="line"/>
    </contour>
  </outline>
</glyph>
<glyph name="Y" format="1">
  <advance width="637"/>
  <unicode hex="0059"/>
  <outline>
    <contour>
      <point x="250" y="0" type="line"/>
      <point x="301" y="273" type="line"/>
      <point x="144" y="739" type="line"/>
      <point x="292" y="739" type="line"/>
      <point x="393" y="399" type="line"/>
      <point x="619" y="739" type="line"/>
      <point x="767" y="739" type="line"/>
      <point x="438" y="273" type="line"/>
      <point x="387" y="0" type="line"/>
    </contour>
  </outline>
</glyph>
<glyph name="Z" format="1">
  <advance width="522"/>
  <unicode hex="005A"/>
  <outline>
    <contour>
      <point x="51" y="116" type="line"/>
      <point x="423" y="608" type="line"/>
      <point x="158" y="608" type="line"/>
      <point x="182" y="739" type="line"/>
      <point x="610" y="739" type="line"/>
      <point x="587" y="616" type="line"/>
      <point x="219" y="131" type="line"/>
      <point x="516" y="131" type="line"/>
      <point x="492" y="0" type="line"/>
      <point x="30" y="0" type="line"/>
    </contour>
  </outline>
</glyph>
<glyph name="bracketleft" format="1">
  <advance width="313"/>
  <unicode hex="005B"/>
  <outline>
    <contour>
      <point x="413" y="739" type="curve"/>
      <point x="386" y="592" type="line"/>
      <point x="347" y="577"/>
      <point x="328" y="563"/>
      <point x="313" y="539" type="curve" smooth="yes"/>
      <point x="295" y="510"/>
      <point x="280" y="469"/>
      <point x="271" y="419" type="curve" smooth="yes"/>
      <point x="223" y="164" type="line" smooth="yes"/>
      <point x="219" y="145"/>
      <point x="218" y="127"/>
      <point x="218" y="111" type="curve" smooth="yes"/>
      <point x="218" y="93"/>
      <point x="220" y="76"/>
      <point x="224" y="62" type="curve" smooth="yes"/>
      <point x="231" y="37"/>
      <point x="246" y="24"/>
      <point x="278" y="10" type="curve"/>
      <point x="251" y="-137" type="line"/>
      <point x="173" y="-119"/>
      <point x="128" y="-83"/>
      <point x="100" y="-17" type="curve" smooth="yes"/>
      <point x="88" y="12"/>
      <point x="82" y="45"/>
      <point x="82" y="85" type="curve" smooth="yes"/>
      <point x="82" y="115"/>
      <point x="86" y="149"/>
      <point x="93" y="187" type="curve" smooth="yes"/>
      <point x="141" y="446" type="line" smooth="yes"/>
      <point x="159" y="541"/>
      <point x="197" y="612"/>
      <point x="262" y="666" type="curve" smooth="yes"/>
      <point x="304" y="702"/>
      <point x="339" y="719"/>
    </contour>
  </outline>
</glyph>
<glyph name="backslash" format="1">
  <advance width="481"/>
  <unicode hex="005C"/>
  <outline>
    <contour>
      <point x="450" y="0" type="line"/>
      <point x="356" y="0" type="line"/>
      <point x="168" y="739" type="line"/>
      <point x="262" y="739" type="line"/>
    </contour>
  </outline>
</glyph>
<glyph name="bracketright" format="1">
  <advance width="313"/>
  <unicode hex="005D"/>
  <outline>
    <contour>
      <point x="12" y="-137" type="curve"/>
      <point x="39" y="10" type="line"/>
      <point x="78" y="25"/>
      <point x="97" y="39"/>
      <point x="112" y="63" type="curve" smooth="yes"/>
      <point x="130" y="92"/>
      <point x="145" y="133"/>
      <point x="154" y="183" type="curve" smooth="yes"/>
      <point x="201" y="438" type="line" smooth="yes"/>
      <point x="205" y="457"/>
      <point x="206" y="475"/>
      <point x="206" y="491" type="curve" smooth="yes"/>
      <point x="206" y="509"/>
      <point x="204" y="526"/>
      <point x="200" y="540" type="curve" smooth="yes"/>
      <point x="193" y="565"/>
      <point x="179" y="578"/>
      <point x="147" y="592" type="curve"/>
      <point x="174" y="739" type="line"/>
      <point x="252" y="721"/>
      <point x="297" y="685"/>
      <point x="325" y="619" type="curve" smooth="yes"/>
      <point x="337" y="590"/>
      <point x="342" y="557"/>
      <point x="342" y="517" type="curve" smooth="yes"/>
      <point x="342" y="487"/>
      <point x="339" y="453"/>
      <point x="332" y="415" type="curve" smooth="yes"/>
      <point x="284" y="156" type="line" smooth="yes"/>
      <point x="266" y="61"/>
      <point x="227" y="-10"/>
      <point x="163" y="-64" type="curve" smooth="yes"/>
      <point x="122" y="-99"/>
      <point x="86" y="-117"/>
    </contour>
  </outline>
</glyph>
<glyph name="asciicircum" format="1">
  <advance width="600"/>
  <unicode hex="005E"/>
  <outline>
    <contour>
      <point x="222" y="313" type="line"/>
      <point x="127" y="363" type="line"/>
      <point x="376" y="739" type="line"/>
      <point x="498" y="739" type="line"/>
      <point x="607" y="363" type="line"/>
      <point x="494" y="313" type="line"/>
      <point x="409" y="589" type="line"/>
    </contour>
  </outline>
</glyph>
<glyph name="underscore" format="1">
  <advance width="500"/>
  <unicode hex="005F"/>
  <outline>
    <contour>
      <point x="-9" y="-48" type="line"/>
      <point x="491" y="-48" type="line"/>
      <point x="474" y="-138" type="line"/>
      <point x="-26" y="-138" type="line"/>
    </contour>
  </outline>
</glyph>
<glyph name="grave" format="1">
  <advance width="407"/>
  <unicode hex="0060"/>
  <outline>
    <contour>
      <point x="201" y="737" type="line"/>
      <point x="274" y="825" type="line"/>
      <point x="472" y="692" type="line"/>
      <point x="404" y="613" type="line"/>
    </contour>
  </outline>
</glyph>
<glyph name="b" format="1">
  <advance width="666"/>
  <unicode hex="0062"/>
  <outline>
    <contour>
      <point x="54" y="0" type="line"/>
      <point x="191" y="739" type="line"/>
      <point x="324" y="739" type="line"/>
      <point x="280" y="503" type="line"/>
      <point x="341" y="554"/>
      <point x="392" y="574"/>
      <point x="465" y="574" type="curve" smooth="yes"/>
      <point x="605" y="574"/>
      <point x="696" y="479"/>
      <point x="696" y="343" type="curve" smooth="yes"/>
      <point x="696" y="323"/>
      <point x="694" y="302"/>
      <point x="690" y="281" type="curve" smooth="yes"/>
      <point x="676" y="207"/>
      <point x="641" y="138"/>
      <point x="589" y="84" type="curve" smooth="yes"/>
      <point x="526" y="19"/>
      <point x="452" y="-13"/>
      <point x="366" y="-13" type="curve" smooth="yes"/>
      <point x="284" y="-13"/>
      <point x="235" y="10"/>
      <point x="189" y="71" type="curve"/>
      <point x="176" y="0" type="line"/>
    </contour>
    <contour>
      <point x="422" y="452" type="curve" smooth="yes"/>
      <point x="329" y="452"/>
      <point x="250" y="380"/>
      <point x="231" y="279" type="curve" smooth="yes"/>
      <point x="229" y="266"/>
      <point x="227" y="254"/>
      <point x="227" y="242" type="curve" smooth="yes"/>
      <point x="227" y="163"/>
      <point x="279" y="109"/>
      <point x="363" y="109" type="curve" smooth="yes"/>
      <point x="458" y="109"/>
      <point x="537" y="178"/>
      <point x="556" y="279" type="curve" smooth="yes"/>
      <point x="558" y="292"/>
      <point x="559" y="306"/>
      <point x="559" y="318" type="curve" smooth="yes"/>
      <point x="559" y="399"/>
      <point x="507" y="452"/>
    </contour>
  </outline>
</glyph>
<glyph name="c" format="1">
  <advance width="625"/>
  <unicode hex="0063"/>
  <outline>
    <contour>
      <point x="483" y="182" type="curve"/>
      <point x="633" y="182" type="line"/>
      <point x="564" y="58"/>
      <point x="452" y="-13"/>
      <point x="322" y="-13" type="curve" smooth="yes"/>
      <point x="176" y="-13"/>
      <point x="74" y="88"/>
      <point x="74" y="224" type="curve" smooth="yes"/>
      <point x="74" y="241"/>
      <point x="76" y="259"/>
      <point x="79" y="277" type="curve" smooth="yes"/>
      <point x="109" y="440"/>
      <point x="261" y="567"/>
      <point x="425" y="567" type="curve" smooth="yes"/>
      <point x="504" y="567"/>
      <point x="574" y="538"/>
      <point x="618" y="485" type="curve" smooth="yes"/>
      <point x="647" y="451"/>
      <point x="658" y="423"/>
      <point x="667" y="369" type="curve"/>
      <point x="517" y="369" type="line"/>
      <point x="500" y="421"/>
      <point x="462" y="445"/>
      <point x="402" y="445" type="curve" smooth="yes"/>
      <point x="309" y="445"/>
      <point x="232" y="376"/>
      <point x="214" y="278" type="curve" smooth="yes"/>
      <point x="212" y="266"/>
      <point x="210" y="254"/>
      <point x="210" y="243" type="curve" smooth="yes"/>
      <point x="210" y="164"/>
      <point x="263" y="109"/>
      <point x="343" y="109" type="curve" smooth="yes"/>
      <point x="398" y="109"/>
      <point x="441" y="131"/>
    </contour>
  </outline>
</glyph>
<glyph name="d" format="1">
  <advance width="665"/>
  <unicode hex="0064"/>
  <outline>
    <contour>
      <point x="748" y="739" type="line"/>
      <point x="611" y="0" type="line"/>
      <point x="489" y="0" type="line"/>
      <point x="502" y="72" type="line"/>
      <point x="437" y="12"/>
      <point x="379" y="-13"/>
      <point x="304" y="-13" type="curve" smooth="yes"/>
      <point x="166" y="-13"/>
      <point x="74" y="84"/>
      <point x="74" y="219" type="curve" smooth="yes"/>
      <point x="74" y="238"/>
      <point x="76" y="258"/>
      <point x="80" y="278" type="curve" smooth="yes"/>
      <point x="111" y="444"/>
      <point x="256" y="574"/>
      <point x="411" y="574" type="curve" smooth="yes"/>
      <point x="481" y="574"/>
      <point x="541" y="548"/>
      <point x="572" y="505" type="curve"/>
      <point x="615" y="739" type="line"/>
    </contour>
    <contour>
      <point x="406" y="452" type="curve" smooth="yes"/>
      <point x="316" y="452"/>
      <point x="232" y="378"/>
      <point x="214" y="282" type="curve" smooth="yes"/>
      <point x="212" y="270"/>
      <point x="211" y="259"/>
      <point x="211" y="248" type="curve" smooth="yes"/>
      <point x="211" y="168"/>
      <point x="266" y="109"/>
      <point x="347" y="109" type="curve" smooth="yes"/>
      <point x="437" y="109"/>
      <point x="522" y="184"/>
      <point x="540" y="279" type="curve" smooth="yes"/>
      <point x="542" y="292"/>
      <point x="543" y="304"/>
      <point x="543" y="316" type="curve" smooth="yes"/>
      <point x="543" y="397"/>
      <point x="490" y="452"/>
    </contour>
  </outline>
</glyph>
<glyph name="f" format="1">
  <advance width="294"/>
  <unicode hex="0066"/>
  <outline>
    <contour>
      <point x="68" y="0" type="line"/>
      <point x="148" y="433" type="line"/>
      <point x="100" y="433" type="line"/>
      <point x="121" y="544" type="line"/>
      <point x="169" y="544" type="line"/>
      <point x="189" y="616"/>
      <point x="206" y="648"/>
      <point x="241" y="680" type="curve" smooth="yes"/>
      <point x="282" y="719"/>
      <point x="332" y="739"/>
      <point x="388" y="739" type="curve" smooth="yes"/>
      <point x="397" y="739"/>
      <point x="405" y="739"/>
      <point x="421" y="737" type="curve"/>
      <point x="397" y="611" type="line"/>
      <point x="383" y="611" type="line" smooth="yes"/>
      <point x="332" y="611"/>
      <point x="312" y="594"/>
      <point x="302" y="544" type="curve"/>
      <point x="377" y="544" type="line"/>
      <point x="356" y="433" type="line"/>
      <point x="281" y="433" type="line"/>
      <point x="201" y="0" type="line"/>
    </contour>
  </outline>
</glyph>
<glyph name="h" format="1">
  <advance width="597"/>
  <unicode hex="0068"/>
  <outline>
    <contour>
      <point x="54" y="0" type="line"/>
      <point x="191" y="739" type="line"/>
      <point x="324" y="739" type="line"/>
      <point x="283" y="516" type="line"/>
      <point x="330" y="552"/>
      <point x="375" y="568"/>
      <point x="433" y="568" type="curve" smooth="yes"/>
      <point x="514" y="568"/>
      <point x="574" y="535"/>
      <point x="599" y="476" type="curve" smooth="yes"/>
      <point x="608" y="454"/>
      <point x="613" y="432"/>
      <point x="613" y="403" type="curve" smooth="yes"/>
      <point x="613" y="378"/>
      <point x="610" y="349"/>
      <point x="603" y="313" type="curve" smooth="yes"/>
      <point x="545" y="0" type="line"/>
      <point x="412" y="0" type="line"/>
      <point x="464" y="283" type="line" smooth="yes"/>
      <point x="469" y="311"/>
      <point x="472" y="336"/>
      <point x="472" y="356" type="curve" smooth="yes"/>
      <point x="472" y="420"/>
      <point x="445" y="445"/>
      <point x="386" y="445" type="curve" smooth="yes"/>
      <point x="340" y="445"/>
      <point x="303" y="426"/>
      <point x="277" y="389" type="curve" smooth="yes"/>
      <point x="260" y="365"/>
      <point x="249" y="334"/>
      <point x="239" y="281" type="curve" smooth="yes"/>
      <point x="187" y="0" type="line"/>
    </contour>
  </outline>
</glyph>
<glyph name="k" format="1">
  <advance width="557"/>
  <unicode hex="006B"/>
  <outline>
    <contour>
      <point x="54" y="0" type="line"/>
      <point x="191" y="739" type="line"/>
      <point x="324" y="739" type="line"/>
      <point x="241" y="293" type="line"/>
      <point x="467" y="554" type="line"/>
      <point x="626" y="554" type="line"/>
      <point x="377" y="283" type="line"/>
      <point x="555" y="0" type="line"/>
      <point x="376" y="0" type="line"/>
      <point x="235" y="259" type="line"/>
      <point x="187" y="0" type="line"/>
    </contour>
  </outline>
</glyph>
<glyph name="l" format="1">
  <advance width="241"/>
  <unicode hex="006C"/>
  <outline>
    <contour>
      <point x="54" y="0" type="line"/>
      <point x="191" y="739" type="line"/>
      <point x="324" y="739" type="line"/>
      <point x="187" y="0" type="line"/>
    </contour>
  </outline>
</glyph>
<glyph name="m" format="1">
  <advance width="937"/>
  <unicode hex="006D"/>
  <outline>
    <contour>
      <point x="54" y="0" type="line"/>
      <point x="157" y="554" type="line"/>
      <point x="279" y="554" type="line"/>
      <point x="269" y="502" type="line"/>
      <point x="317" y="549"/>
      <point x="360" y="567"/>
      <point x="425" y="567" type="curve" smooth="yes"/>
      <point x="502" y="567"/>
      <point x="545" y="542"/>
      <point x="572" y="481" type="curve"/>
      <point x="628" y="541"/>
      <point x="687" y="567"/>
      <point x="765" y="567" type="curve" smooth="yes"/>
      <point x="852" y="567"/>
      <point x="916" y="533"/>
      <point x="940" y="474" type="curve" smooth="yes"/>
      <point x="948" y="453"/>
      <point x="952" y="427"/>
      <point x="952" y="397" type="curve" smooth="yes"/>
      <point x="952" y="374"/>
      <point x="949" y="348"/>
      <point x="944" y="320" type="curve" smooth="yes"/>
      <point x="885" y="0" type="line"/>
      <point x="752" y="0" type="line"/>
      <point x="808" y="304" type="line" smooth="yes"/>
      <point x="812" y="327"/>
      <point x="815" y="346"/>
      <point x="815" y="362" type="curve" smooth="yes"/>
      <point x="815" y="385"/>
      <point x="811" y="401"/>
      <point x="802" y="413" type="curve" smooth="yes"/>
      <point x="788" y="434"/>
      <point x="762" y="445"/>
      <point x="730" y="445" type="curve" smooth="yes"/>
      <point x="687" y="445"/>
      <point x="650" y="425"/>
      <point x="625" y="389" type="curve" smooth="yes"/>
      <point x="608" y="364"/>
      <point x="598" y="333"/>
      <point x="587" y="273" type="curve" smooth="yes"/>
      <point x="536" y="0" type="line"/>
      <point x="403" y="0" type="line"/>
      <point x="459" y="304" type="line" smooth="yes"/>
      <point x="463" y="327"/>
      <point x="466" y="346"/>
      <point x="466" y="362" type="curve" smooth="yes"/>
      <point x="466" y="384"/>
      <point x="462" y="400"/>
      <point x="454" y="412" type="curve" smooth="yes"/>
      <point x="440" y="433"/>
      <point x="412" y="445"/>
      <point x="378" y="445" type="curve" smooth="yes"/>
      <point x="331" y="445"/>
      <point x="294" y="424"/>
      <point x="271" y="385" type="curve" smooth="yes"/>
      <point x="258" y="363"/>
      <point x="248" y="326"/>
      <point x="238" y="273" type="curve" smooth="yes"/>
      <point x="187" y="0" type="line"/>
    </contour>
  </outline>
</glyph>
<glyph name="n" format="1">
  <advance width="598"/>
  <unicode hex="006E"/>
  <outline>
    <contour>
      <point x="54" y="0" type="line"/>
      <point x="157" y="554" type="line"/>
      <point x="280" y="554" type="line"/>
      <point x="270" y="501" type="line"/>
      <point x="328" y="549"/>
      <point x="374" y="567"/>
      <point x="438" y="567" type="curve" smooth="yes"/>
      <point x="517" y="567"/>
      <point x="573" y="537"/>
      <point x="599" y="482" type="curve" smooth="yes"/>
      <point x="609" y="460"/>
      <point x="614" y="437"/>
      <point x="614" y="407" type="curve" smooth="yes"/>
      <point x="614" y="379"/>
      <point x="610" y="344"/>
      <point x="601" y="297" type="curve" smooth="yes"/>
      <point x="546" y="0" type="line"/>
      <point x="413" y="0" type="line"/>
      <point x="463" y="271" type="line" smooth="yes"/>
      <point x="470" y="308"/>
      <point x="473" y="336"/>
      <point x="473" y="358" type="curve" smooth="yes"/>
      <point x="473" y="382"/>
      <point x="469" y="400"/>
      <point x="461" y="412" type="curve" smooth="yes"/>
      <point x="447" y="434"/>
      <point x="423" y="445"/>
      <point x="389" y="445" type="curve" smooth="yes"/>
      <point x="345" y="445"/>
      <point x="306" y="426"/>
      <point x="280" y="391" type="curve" smooth="yes"/>
      <point x="259" y="365"/>
      <point x="248" y="333"/>
      <point x="235" y="261" type="curve" smooth="yes"/>
      <point x="187" y="0" type="line"/>
    </contour>
  </outline>
</glyph>
<glyph name="q" format="1">
  <advance width="663"/>
  <unicode hex="0071"/>
  <outline>
    <contour>
      <point x="590" y="554" type="line"/>
      <point x="712" y="554" type="line"/>
      <point x="575" y="-185" type="line"/>
      <point x="442" y="-185" type="line"/>
      <point x="486" y="53" type="line"/>
      <point x="434" y="9"/>
      <point x="375" y="-13"/>
      <point x="307" y="-13" type="curve" smooth="yes"/>
      <point x="167" y="-13"/>
      <point x="74" y="85"/>
      <point x="74" y="220" type="curve" smooth="yes"/>
      <point x="74" y="239"/>
      <point x="76" y="259"/>
      <point x="80" y="279" type="curve" smooth="yes"/>
      <point x="110" y="440"/>
      <point x="256" y="567"/>
      <point x="412" y="567" type="curve" smooth="yes"/>
      <point x="493" y="567"/>
      <point x="544" y="541"/>
      <point x="577" y="483" type="curve"/>
    </contour>
    <contour>
      <point x="404" y="445" type="curve" smooth="yes"/>
      <point x="314" y="445"/>
      <point x="231" y="371"/>
      <point x="213" y="276" type="curve" smooth="yes"/>
      <point x="211" y="264"/>
      <point x="210" y="252"/>
      <point x="210" y="241" type="curve" smooth="yes"/>
      <point x="210" y="163"/>
      <point x="263" y="109"/>
      <point x="345" y="109" type="curve" smooth="yes"/>
      <point x="436" y="109"/>
      <point x="517" y="179"/>
      <point x="535" y="275" type="curve" smooth="yes"/>
      <point x="537" y="288"/>
      <point x="539" y="300"/>
      <point x="539" y="312" type="curve" smooth="yes"/>
      <point x="539" y="391"/>
      <point x="487" y="445"/>
    </contour>
  </outline>
</glyph>
<glyph name="r" format="1">
  <advance width="330"/>
  <unicode hex="0072"/>
  <outline>
    <contour>
      <point x="54" y="0" type="line"/>
      <point x="157" y="554" type="line"/>
      <point x="279" y="554" type="line"/>
      <point x="269" y="500" type="line"/>
      <point x="314" y="552"/>
      <point x="344" y="567"/>
      <point x="401" y="567" type="curve" smooth="yes"/>
      <point x="411" y="567" type="line"/>
      <point x="387" y="439" type="line"/>
      <point x="307" y="437"/>
      <point x="260" y="394"/>
      <point x="244" y="308" type="curve" smooth="yes"/>
      <point x="187" y="0" type="line"/>
    </contour>
  </outline>
</glyph>
<glyph name="s" format="1">
  <advance width="438"/>
  <unicode hex="0073"/>
  <outline>
    <contour>
      <point x="48" y="176" type="curve"/>
      <point x="182" y="176" type="line"/>
      <point x="186" y="129"/>
      <point x="204" y="109"/>
      <point x="243" y="109" type="curve" smooth="yes"/>
      <point x="278" y="109"/>
      <point x="307" y="132"/>
      <point x="313" y="163" type="curve" smooth="yes"/>
      <point x="314" y="166"/>
      <point x="314" y="169"/>
      <point x="314" y="172" type="curve" smooth="yes"/>
      <point x="314" y="186"/>
      <point x="308" y="198"/>
      <point x="296" y="206" type="curve" smooth="yes"/>
      <point x="284" y="215"/>
      <point x="279" y="217"/>
      <point x="232" y="234" type="curve" smooth="yes"/>
      <point x="143" y="266"/>
      <point x="105" y="303"/>
      <point x="105" y="364" type="curve" smooth="yes"/>
      <point x="105" y="374"/>
      <point x="107" y="386"/>
      <point x="109" y="398" type="curve" smooth="yes"/>
      <point x="127" y="493"/>
      <point x="220" y="567"/>
      <point x="324" y="567" type="curve" smooth="yes"/>
      <point x="381" y="567"/>
      <point x="431" y="543"/>
      <point x="458" y="502" type="curve" smooth="yes"/>
      <point x="472" y="481"/>
      <point x="478" y="461"/>
      <point x="478" y="434" type="curve" smooth="yes"/>
      <point x="478" y="424"/>
      <point x="477" y="413"/>
      <point x="475" y="401" type="curve"/>
      <point x="345" y="401" type="line"/>
      <point x="344" y="430"/>
      <point x="329" y="445"/>
      <point x="301" y="445" type="curve" smooth="yes"/>
      <point x="272" y="445"/>
      <point x="247" y="425"/>
      <point x="242" y="398" type="curve" smooth="yes"/>
      <point x="242" y="396"/>
      <point x="241" y="393"/>
      <point x="241" y="391" type="curve" smooth="yes"/>
      <point x="241" y="378"/>
      <point x="248" y="368"/>
      <point x="261" y="361" type="curve" smooth="yes"/>
      <point x="274" y="355"/>
      <point x="274" y="355"/>
      <point x="325" y="338" type="curve" smooth="yes"/>
      <point x="415" y="309"/>
      <point x="452" y="273"/>
      <point x="452" y="212" type="curve" smooth="yes"/>
      <point x="452" y="201"/>
      <point x="451" y="189"/>
      <point x="449" y="176" type="curve" smooth="yes"/>
      <point x="429" y="70"/>
      <point x="327" y="-13"/>
      <point x="216" y="-13" type="curve" smooth="yes"/>
      <point x="147" y="-13"/>
      <point x="88" y="18"/>
      <point x="62" y="67" type="curve" smooth="yes"/>
      <point x="51" y="89"/>
      <point x="46" y="110"/>
      <point x="46" y="140" type="curve" smooth="yes"/>
      <point x="46" y="151"/>
      <point x="47" y="163"/>
    </contour>
  </outline>
</glyph>
<glyph name="t" format="1">
  <advance width="303"/>
  <unicode hex="0074"/>
  <outline>
    <contour>
      <point x="78" y="0" type="line"/>
      <point x="158" y="433" type="line"/>
      <point x="93" y="433" type="line"/>
      <point x="116" y="554" type="line"/>
      <point x="181" y="554" type="line"/>
      <point x="215" y="739" type="line"/>
      <point x="348" y="739" type="line"/>
      <point x="314" y="554" type="line"/>
      <point x="394" y="554" type="line"/>
      <point x="371" y="433" type="line"/>
      <point x="291" y="433" type="line"/>
      <point x="211" y="0" type="line"/>
    </contour>
  </outline>
</glyph>
<glyph name="v" format="1">
  <advance width="558"/>
  <unicode hex="0076"/>
  <outline>
    <contour>
      <point x="226" y="0" type="line"/>
      <point x="106" y="554" type="line"/>
      <point x="254" y="554" type="line"/>
      <point x="314" y="187" type="line"/>
      <point x="508" y="554" type="line"/>
      <point x="658" y="554" type="line"/>
      <point x="332" y="0" type="line"/>
    </contour>
  </outline>
</glyph>
<glyph name="w" format="1">
  <advance width="781"/>
  <unicode hex="0077"/>
  <outline>
    <contour>
      <point x="201" y="0" type="line"/>
      <point x="106" y="554" type="line"/>
      <point x="249" y="554" type="line"/>
      <point x="285" y="216" type="line"/>
      <point x="441" y="554" type="line"/>
      <point x="547" y="554" type="line"/>
      <point x="575" y="216" type="line"/>
      <point x="739" y="554" type="line"/>
      <point x="881" y="554" type="line"/>
      <point x="578" y="0" type="line"/>
      <point x="495" y="0" type="line"/>
      <point x="457" y="359" type="line"/>
      <point x="283" y="0" type="line"/>
    </contour>
  </outline>
</glyph>
<glyph name="x" format="1">
  <advance width="558"/>
  <unicode hex="0078"/>
  <outline>
    <contour>
      <point x="3" y="0" type="line"/>
      <point x="252" y="286" type="line"/>
      <point x="132" y="554" type="line"/>
      <point x="282" y="554" type="line"/>
      <point x="351" y="387" type="line"/>
      <point x="480" y="554" type="line"/>
      <point x="630" y="554" type="line"/>
      <point x="411" y="286" type="line"/>
      <point x="555" y="0" type="line"/>
      <point x="395" y="0" type="line"/>
      <point x="314" y="190" type="line"/>
      <point x="163" y="0" type="line"/>
    </contour>
  </outline>
</glyph>
<glyph name="z" format="1">
  <advance width="482"/>
  <unicode hex="007A"/>
  <outline>
    <contour>
      <point x="30" y="0" type="line"/>
      <point x="52" y="119" type="line"/>
      <point x="355" y="435" type="line"/>
      <point x="139" y="435" type="line"/>
      <point x="161" y="554" type="line"/>
      <point x="536" y="554" type="line"/>
      <point x="514" y="435" type="line"/>
      <point x="211" y="119" type="line"/>
      <point x="474" y="119" type="line"/>
      <point x="452" y="0" type="line"/>
    </contour>
  </outline>
</glyph>
<glyph name="braceleft" format="1">
  <advance width="335"/>
  <unicode hex="007B"/>
  <outline>
    <contour>
      <point x="329" y="557" type="curve" smooth="yes"/>
      <point x="306" y="434" type="line" smooth="yes"/>
      <point x="292" y="356"/>
      <point x="263" y="323"/>
      <point x="193" y="305" type="curve"/>
      <point x="242" y="292"/>
      <point x="264" y="269"/>
      <point x="264" y="222" type="curve" smooth="yes"/>
      <point x="264" y="209"/>
      <point x="262" y="194"/>
      <point x="259" y="177" type="curve" smooth="yes"/>
      <point x="236" y="54" type="line" smooth="yes"/>
      <point x="232" y="30"/>
      <point x="229" y="12"/>
      <point x="229" y="-2" type="curve" smooth="yes"/>
      <point x="229" y="-37"/>
      <point x="246" y="-44"/>
      <point x="296" y="-48" type="curve"/>
      <point x="281" y="-128" type="line"/>
      <point x="265" y="-129"/>
      <point x="248" y="-129"/>
      <point x="238" y="-129" type="curve" smooth="yes"/>
      <point x="156" y="-129"/>
      <point x="118" y="-100"/>
      <point x="118" y="-34" type="curve" smooth="yes"/>
      <point x="118" y="-21"/>
      <point x="120" y="-6"/>
      <point x="123" y="10" type="curve" smooth="yes"/>
      <point x="152" y="167" type="line" smooth="yes"/>
      <point x="154" y="178"/>
      <point x="155" y="188"/>
      <point x="155" y="197" type="curve" smooth="yes"/>
      <point x="155" y="238"/>
      <point x="134" y="259"/>
      <point x="89" y="265" type="curve"/>
      <point x="104" y="346" type="line"/>
      <point x="161" y="353"/>
      <point x="192" y="384"/>
      <point x="203" y="444" type="curve" smooth="yes"/>
      <point x="232" y="601" type="line" smooth="yes"/>
      <point x="250" y="698"/>
      <point x="300" y="740"/>
      <point x="399" y="740" type="curve" smooth="yes"/>
      <point x="409" y="740"/>
      <point x="426" y="740"/>
      <point x="442" y="739" type="curve"/>
      <point x="427" y="659" type="line"/>
      <point x="355" y="653"/>
      <point x="345" y="642"/>
    </contour>
  </outline>
</glyph>
<glyph name="bar" format="1">
  <advance width="599"/>
  <unicode hex="007C"/>
  <outline>
    <contour>
      <point x="496" y="739" type="line"/>
      <point x="359" y="0" type="line"/>
      <point x="240" y="0" type="line"/>
      <point x="377" y="739" type="line"/>
    </contour>
  </outline>
</glyph>
<glyph name="braceright" format="1">
  <advance width="335"/>
  <unicode hex="007D"/>
  <outline>
    <contour>
      <point x="119" y="54" type="curve" smooth="yes"/>
      <point x="142" y="177" type="line" smooth="yes"/>
      <point x="156" y="255"/>
      <point x="186" y="288"/>
      <point x="256" y="306" type="curve"/>
      <point x="207" y="319"/>
      <point x="185" y="342"/>
      <point x="185" y="389" type="curve" smooth="yes"/>
      <point x="185" y="402"/>
      <point x="186" y="417"/>
      <point x="189" y="434" type="curve" smooth="yes"/>
      <point x="212" y="557" type="line" smooth="yes"/>
      <point x="216" y="581"/>
      <point x="219" y="599"/>
      <point x="219" y="613" type="curve" smooth="yes"/>
      <point x="219" y="648"/>
      <point x="202" y="655"/>
      <point x="152" y="659" type="curve"/>
      <point x="167" y="739" type="line"/>
      <point x="183" y="740"/>
      <point x="200" y="740"/>
      <point x="210" y="740" type="curve" smooth="yes"/>
      <point x="292" y="740"/>
      <point x="330" y="711"/>
      <point x="330" y="645" type="curve" smooth="yes"/>
      <point x="330" y="632"/>
      <point x="328" y="617"/>
      <point x="325" y="601" type="curve" smooth="yes"/>
      <point x="296" y="444" type="line" smooth="yes"/>
      <point x="294" y="433"/>
      <point x="293" y="423"/>
      <point x="293" y="414" type="curve" smooth="yes"/>
      <point x="293" y="373"/>
      <point x="314" y="352"/>
      <point x="359" y="346" type="curve"/>
      <point x="344" y="265" type="line"/>
      <point x="287" y="258"/>
      <point x="256" y="227"/>
      <point x="245" y="167" type="curve" smooth="yes"/>
      <point x="216" y="10" type="line" smooth="yes"/>
      <point x="198" y="-87"/>
      <point x="148" y="-129"/>
      <point x="49" y="-129" type="curve" smooth="yes"/>
      <point x="39" y="-129"/>
      <point x="22" y="-129"/>
      <point x="6" y="-128" type="curve"/>
      <point x="21" y="-48" type="line"/>
      <point x="93" y="-42"/>
      <point x="103" y="-31"/>
    </contour>
  </outline>
</glyph>
<glyph name="asciitilde" format="1">
  <advance width="600"/>
  <unicode hex="007E"/>
  <outline>
    <contour>
      <point x="566" y="421" type="curve"/>
      <point x="616" y="347" type="line"/>
      <point x="548" y="262"/>
      <point x="504" y="230"/>
      <point x="450" y="230" type="curve" smooth="yes"/>
      <point x="429" y="230"/>
      <point x="396" y="239"/>
      <point x="363" y="254" type="curve" smooth="yes"/>
      <point x="313" y="276" type="line" smooth="yes"/>
      <point x="280" y="291"/>
      <point x="268" y="295"/>
      <point x="253" y="295" type="curve" smooth="yes"/>
      <point x="234" y="295"/>
      <point x="216" y="287"/>
      <point x="199" y="271" type="curve" smooth="yes"/>
      <point x="194" y="266"/>
      <point x="195" y="266"/>
      <point x="160" y="224" type="curve" smooth="yes"/>
      <point x="156" y="221"/>
      <point x="154" y="217"/>
      <point x="151" y="214" type="curve"/>
      <point x="102" y="289" type="line"/>
      <point x="134" y="330"/>
      <point x="143" y="342"/>
      <point x="163" y="361" type="curve" smooth="yes"/>
      <point x="194" y="393"/>
      <point x="234" y="412"/>
      <point x="272" y="412" type="curve" smooth="yes"/>
      <point x="296" y="412"/>
      <point x="323" y="406"/>
      <point x="346" y="396" type="curve" smooth="yes"/>
      <point x="408" y="369" type="line" smooth="yes"/>
      <point x="458" y="347"/>
      <point x="458" y="347"/>
      <point x="475" y="347" type="curve" smooth="yes"/>
      <point x="498" y="347"/>
      <point x="532" y="374"/>
    </contour>
  </outline>
</glyph>
<glyph name="exclamdown" format="1">
  <advance width="321"/>
  <unicode hex="00A1"/>
  <outline>
    <contour>
      <point x="295" y="366" type="line"/>
      <point x="193" y="-185" type="line"/>
      <point x="60" y="-185" type="line"/>
      <point x="162" y="366" type="line"/>
    </contour>
    <contour>
      <point x="330" y="554" type="line"/>
      <point x="306" y="426" type="line"/>
      <point x="173" y="426" type="line"/>
      <point x="197" y="554" type="line"/>
    </contour>
  </outline>
</glyph>
<glyph name="cent" format="1">
  <advance width="560"/>
  <unicode hex="00A2"/>
  <outline>
    <contour>
      <point x="355" y="39" type="line"/>
      <point x="230" y="39" type="line"/>
      <point x="250" y="148" type="line"/>
      <point x="202" y="159"/>
      <point x="173" y="177"/>
      <point x="147" y="213" type="curve" smooth="yes"/>
      <point x="122" y="245"/>
      <point x="110" y="287"/>
      <point x="110" y="333" type="curve" smooth="yes"/>
      <point x="110" y="349"/>
      <point x="112" y="365"/>
      <point x="115" y="381" type="curve" smooth="yes"/>
      <point x="128" y="449"/>
      <point x="168" y="514"/>
      <point x="225" y="559" type="curve" smooth="yes"/>
      <point x="260" y="586"/>
      <point x="288" y="599"/>
      <point x="336" y="611" type="curve"/>
      <point x="356" y="715" type="line"/>
      <point x="481" y="715" type="line"/>
      <point x="461" y="611" type="line"/>
      <point x="543" y="590"/>
      <point x="595" y="525"/>
      <point x="598" y="443" type="curve"/>
      <point x="456" y="443" type="line"/>
      <point x="441" y="471"/>
      <point x="409" y="489"/>
      <point x="372" y="489" type="curve" smooth="yes"/>
      <point x="312" y="489"/>
      <point x="259" y="442"/>
      <point x="247" y="379" type="curve" smooth="yes"/>
      <point x="246" y="371"/>
      <point x="245" y="364"/>
      <point x="245" y="357" type="curve" smooth="yes"/>
      <point x="245" y="306"/>
      <point x="281" y="270"/>
      <point x="335" y="270" type="curve" smooth="yes"/>
      <point x="369" y="270"/>
      <point x="397" y="282"/>
      <point x="427" y="310" type="curve"/>
      <point x="573" y="310" type="line"/>
      <point x="523" y="221"/>
      <point x="459" y="169"/>
      <point x="375" y="148" type="curve"/>
    </contour>
  </outline>
</glyph>
<glyph name="sterling" format="1">
  <advance width="560"/>
  <unicode hex="00A3"/>
  <outline>
    <contour>
      <point x="41" y="0" type="line"/>
      <point x="64" y="125" type="line"/>
      <point x="203" y="125" type="line"/>
      <point x="220" y="147"/>
      <point x="232" y="171"/>
      <point x="237" y="197" type="curve" smooth="yes"/>
      <point x="239" y="206"/>
      <point x="239" y="214"/>
      <point x="239" y="222" type="curve" smooth="yes"/>
      <point x="239" y="252"/>
      <point x="226" y="278"/>
      <point x="199" y="310" type="curve"/>
      <point x="57" y="310" type="line"/>
      <point x="81" y="435" type="line"/>
      <point x="139" y="435" type="line"/>
      <point x="135" y="450"/>
      <point x="133" y="463"/>
      <point x="133" y="478" type="curve" smooth="yes"/>
      <point x="133" y="490"/>
      <point x="134" y="502"/>
      <point x="137" y="516" type="curve" smooth="yes"/>
      <point x="161" y="648"/>
      <point x="285" y="752"/>
      <point x="419" y="752" type="curve" smooth="yes"/>
      <point x="538" y="752"/>
      <point x="615" y="677"/>
      <point x="615" y="566" type="curve" smooth="yes"/>
      <point x="615" y="558"/>
      <point x="615" y="549"/>
      <point x="614" y="541" type="curve"/>
      <point x="479" y="541" type="line"/>
      <point x="476" y="598"/>
      <point x="446" y="630"/>
      <point x="398" y="630" type="curve" smooth="yes"/>
      <point x="338" y="630"/>
      <point x="281" y="578"/>
      <point x="269" y="511" type="curve" smooth="yes"/>
      <point x="267" y="502"/>
      <point x="266" y="494"/>
      <point x="266" y="486" type="curve" smooth="yes"/>
      <point x="266" y="467"/>
      <point x="271" y="451"/>
      <point x="282" y="435" type="curve"/>
      <point x="489" y="435" type="line"/>
      <point x="465" y="310" type="line"/>
      <point x="358" y="310" type="line"/>
      <point x="368" y="279"/>
      <point x="373" y="256"/>
      <point x="373" y="234" type="curve" smooth="yes"/>
      <point x="373" y="223"/>
      <point x="372" y="212"/>
      <point x="370" y="200" type="curve" smooth="yes"/>
      <point x="366" y="178"/>
      <point x="355" y="149"/>
      <point x="343" y="125" type="curve"/>
      <point x="373" y="125"/>
      <point x="392" y="129"/>
      <point x="410" y="138" type="curve" smooth="yes"/>
      <point x="442" y="155"/>
      <point x="465" y="186"/>
      <point x="471" y="220" type="curve" smooth="yes"/>
      <point x="473" y="229"/>
      <point x="473" y="236"/>
      <point x="473" y="244" type="curve" smooth="yes"/>
      <point x="473" y="252"/>
      <point x="473" y="262"/>
      <point x="471" y="274" type="curve"/>
      <point x="603" y="274" type="line"/>
      <point x="605" y="262"/>
      <point x="606" y="253"/>
      <point x="606" y="244" type="curve" smooth="yes"/>
      <point x="606" y="237"/>
      <point x="605" y="230"/>
      <point x="604" y="222" type="curve" smooth="yes"/>
      <point x="592" y="157"/>
      <point x="553" y="95"/>
      <point x="498" y="54" type="curve" smooth="yes"/>
      <point x="444" y="14"/>
      <point x="393" y="0"/>
      <point x="301" y="0" type="curve" smooth="yes"/>
    </contour>
  </outline>
</glyph>
<glyph name="currency" format="1">
  <advance width="560"/>
  <unicode hex="00A4"/>
  <outline>
    <contour>
      <point x="133" y="574" type="line"/>
      <point x="228" y="654" type="line"/>
      <point x="265" y="610" type="line"/>
      <point x="312" y="635"/>
      <point x="353" y="646"/>
      <point x="400" y="646" type="curve" smooth="yes"/>
      <point x="447" y="646"/>
      <point x="487" y="635"/>
      <point x="525" y="610" type="curve"/>
      <point x="578" y="653" type="line"/>
      <point x="640" y="572" type="line"/>
      <point x="590" y="529" type="line"/>
      <point x="603" y="497"/>
      <point x="608" y="474"/>
      <point x="608" y="448" type="curve" smooth="yes"/>
      <point x="608" y="433"/>
      <point x="606" y="418"/>
      <point x="603" y="399" type="curve" smooth="yes"/>
      <point x="594" y="348"/>
      <point x="579" y="317"/>
      <point x="541" y="271" type="curve"/>
      <point x="575" y="228" type="line"/>
      <point x="483" y="148" type="line"/>
      <point x="447" y="190" type="line"/>
      <point x="402" y="166"/>
      <point x="354" y="153"/>
      <point x="309" y="153" type="curve" smooth="yes"/>
      <point x="264" y="153"/>
      <point x="221" y="166"/>
      <point x="185" y="190" type="curve"/>
      <point x="133" y="148" type="line"/>
      <point x="69" y="229" type="line"/>
      <point x="119" y="272" type="line"/>
      <point x="107" y="307"/>
      <point x="102" y="330"/>
      <point x="102" y="354" type="curve" smooth="yes"/>
      <point x="102" y="368"/>
      <point x="104" y="382"/>
      <point x="107" y="400" type="curve" smooth="yes"/>
      <point x="116" y="450"/>
      <point x="128" y="473"/>
      <point x="167" y="529" type="curve"/>
    </contour>
    <contour>
      <point x="378" y="526" type="curve" smooth="yes"/>
      <point x="308" y="526"/>
      <point x="240" y="469"/>
      <point x="227" y="401" type="curve" smooth="yes"/>
      <point x="226" y="393"/>
      <point x="225" y="386"/>
      <point x="225" y="378" type="curve" smooth="yes"/>
      <point x="225" y="318"/>
      <point x="270" y="273"/>
      <point x="332" y="273" type="curve" smooth="yes"/>
      <point x="402" y="273"/>
      <point x="468" y="329"/>
      <point x="481" y="398" type="curve" smooth="yes"/>
      <point x="483" y="407"/>
      <point x="483" y="415"/>
      <point x="483" y="423" type="curve" smooth="yes"/>
      <point x="483" y="483"/>
      <point x="441" y="526"/>
    </contour>
  </outline>
</glyph>
<glyph name="yen" format="1">
  <advance width="560"/>
  <unicode hex="00A5"/>
  <outline>
    <contour>
      <point x="211" y="0" type="line"/>
      <point x="246" y="187" type="line"/>
      <point x="50" y="187" type="line"/>
      <point x="66" y="275" type="line"/>
      <point x="262" y="275" type="line"/>
      <point x="225" y="380" type="line"/>
      <point x="85" y="380" type="line"/>
      <point x="102" y="468" type="line"/>
      <point x="196" y="468" type="line"/>
      <point x="105" y="739" type="line"/>
      <point x="254" y="739" type="line"/>
      <point x="351" y="398" type="line"/>
      <point x="575" y="739" type="line"/>
      <point x="729" y="739" type="line"/>
      <point x="536" y="468" type="line"/>
      <point x="628" y="468" type="line"/>
      <point x="611" y="380" type="line"/>
      <point x="471" y="380" type="line"/>
      <point x="395" y="275" type="line"/>
      <point x="592" y="275" type="line"/>
      <point x="576" y="187" type="line"/>
      <point x="379" y="187" type="line"/>
      <point x="344" y="0" type="line"/>
    </contour>
  </outline>
</glyph>
<glyph name="brokenbar" format="1">
  <advance width="600"/>
  <unicode hex="00A6"/>
  <outline>
    <contour>
      <point x="496" y="739" type="line"/>
      <point x="440" y="437" type="line"/>
      <point x="321" y="437" type="line"/>
      <point x="377" y="739" type="line"/>
    </contour>
    <contour>
      <point x="415" y="302" type="line"/>
      <point x="359" y="0" type="line"/>
      <point x="240" y="0" type="line"/>
      <point x="296" y="302" type="line"/>
    </contour>
  </outline>
</glyph>
<glyph name="section" format="1">
  <advance width="560"/>
  <unicode hex="00A7"/>
  <outline>
    <contour>
      <point x="596" y="563" type="curve"/>
      <point x="470" y="563" type="line"/>
      <point x="470" y="610"/>
      <point x="448" y="630"/>
      <point x="397" y="630" type="curve" smooth="yes"/>
      <point x="355" y="630"/>
      <point x="326" y="612"/>
      <point x="320" y="581" type="curve" smooth="yes"/>
      <point x="319" y="578"/>
      <point x="319" y="575"/>
      <point x="319" y="572" type="curve" smooth="yes"/>
      <point x="319" y="549"/>
      <point x="336" y="529"/>
      <point x="368" y="512" type="curve" smooth="yes"/>
      <point x="517" y="431" type="line" smooth="yes"/>
      <point x="557" y="409"/>
      <point x="581" y="368"/>
      <point x="581" y="320" type="curve" smooth="yes"/>
      <point x="581" y="311"/>
      <point x="580" y="301"/>
      <point x="578" y="292" type="curve" smooth="yes"/>
      <point x="568" y="237"/>
      <point x="532" y="186"/>
      <point x="477" y="150" type="curve"/>
      <point x="499" y="123"/>
      <point x="508" y="97"/>
      <point x="508" y="66" type="curve" smooth="yes"/>
      <point x="508" y="55"/>
      <point x="507" y="43"/>
      <point x="505" y="31" type="curve" smooth="yes"/>
      <point x="485" y="-79"/>
      <point x="381" y="-157"/>
      <point x="255" y="-157" type="curve" smooth="yes"/>
      <point x="177" y="-157"/>
      <point x="119" y="-128"/>
      <point x="87" y="-75" type="curve" smooth="yes"/>
      <point x="70" y="-47"/>
      <point x="63" y="-21"/>
      <point x="63" y="16" type="curve" smooth="yes"/>
      <point x="63" y="28"/>
      <point x="64" y="41"/>
      <point x="65" y="55" type="curve"/>
      <point x="199" y="55" type="line"/>
      <point x="197" y="42"/>
      <point x="195" y="33"/>
      <point x="195" y="26" type="curve" smooth="yes"/>
      <point x="195" y="20"/>
      <point x="196" y="16"/>
      <point x="198" y="10" type="curve" smooth="yes"/>
      <point x="208" y="-18"/>
      <point x="238" y="-35"/>
      <point x="279" y="-35" type="curve" smooth="yes"/>
      <point x="329" y="-35"/>
      <point x="371" y="-8"/>
      <point x="378" y="30" type="curve" smooth="yes"/>
      <point x="379" y="34"/>
      <point x="379" y="38"/>
      <point x="379" y="42" type="curve" smooth="yes"/>
      <point x="379" y="64"/>
      <point x="364" y="77"/>
      <point x="318" y="103" type="curve" smooth="yes"/>
      <point x="171" y="187" type="line" smooth="yes"/>
      <point x="121" y="215"/>
      <point x="96" y="255"/>
      <point x="96" y="309" type="curve" smooth="yes"/>
      <point x="96" y="321"/>
      <point x="97" y="334"/>
      <point x="99" y="347" type="curve" smooth="yes"/>
      <point x="110" y="409"/>
      <point x="141" y="452"/>
      <point x="204" y="493" type="curve"/>
      <point x="194" y="513"/>
      <point x="190" y="531"/>
      <point x="190" y="552" type="curve" smooth="yes"/>
      <point x="190" y="562"/>
      <point x="192" y="574"/>
      <point x="194" y="586" type="curve" smooth="yes"/>
      <point x="212" y="684"/>
      <point x="306" y="752"/>
      <point x="425" y="752" type="curve" smooth="yes"/>
      <point x="539" y="752"/>
      <point x="597" y="694"/>
      <point x="597" y="583" type="curve" smooth="yes"/>
      <point x="597" y="577"/>
      <point x="596" y="570"/>
    </contour>
    <contour>
      <point x="403" y="339" type="curve" smooth="yes"/>
      <point x="268" y="413" type="line"/>
      <point x="236" y="391"/>
      <point x="222" y="375"/>
      <point x="218" y="354" type="curve" smooth="yes"/>
      <point x="218" y="351"/>
      <point x="217" y="349"/>
      <point x="217" y="346" type="curve" smooth="yes"/>
      <point x="217" y="327"/>
      <point x="232" y="310"/>
      <point x="266" y="291" type="curve" smooth="yes"/>
      <point x="403" y="215" type="line"/>
      <point x="429" y="231"/>
      <point x="448" y="255"/>
      <point x="452" y="278" type="curve" smooth="yes"/>
      <point x="453" y="281"/>
      <point x="453" y="285"/>
      <point x="453" y="288" type="curve" smooth="yes"/>
      <point x="453" y="306"/>
      <point x="440" y="318"/>
    </contour>
  </outline>
</glyph>
<glyph name="dieresis" format="1">
  <advance width="471"/>
  <unicode hex="00A8"/>
  <outline>
    <contour>
      <point x="181" y="630" type="line"/>
      <point x="205" y="763" type="line"/>
      <point x="338" y="763" type="line"/>
      <point x="314" y="630" type="line"/>
    </contour>
    <contour>
      <point x="391" y="630" type="line"/>
      <point x="415" y="763" type="line"/>
      <point x="548" y="763" type="line"/>
      <point x="524" y="630" type="line"/>
    </contour>
  </outline>
</glyph>
<glyph name="copyright" format="1">
  <advance width="791"/>
  <unicode hex="00A9"/>
  <outline>
    <contour>
      <point x="558" y="320" type="curve"/>
      <point x="669" y="320" type="line"/>
      <point x="627" y="222"/>
      <point x="531" y="157"/>
      <point x="430" y="157" type="curve" smooth="yes"/>
      <point x="322" y="157"/>
      <point x="248" y="232"/>
      <point x="248" y="332" type="curve" smooth="yes"/>
      <point x="248" y="345"/>
      <point x="249" y="358"/>
      <point x="252" y="372" type="curve" smooth="yes"/>
      <point x="274" y="493"/>
      <point x="387" y="587"/>
      <point x="509" y="587" type="curve" smooth="yes"/>
      <point x="611" y="587"/>
      <point x="688" y="515"/>
      <point x="688" y="422" type="curve"/>
      <point x="577" y="422" type="line"/>
      <point x="569" y="466"/>
      <point x="536" y="494"/>
      <point x="491" y="494" type="curve" smooth="yes"/>
      <point x="428" y="494"/>
      <point x="370" y="442"/>
      <point x="357" y="373" type="curve" smooth="yes"/>
      <point x="355" y="364"/>
      <point x="355" y="355"/>
      <point x="355" y="347" type="curve" smooth="yes"/>
      <point x="355" y="291"/>
      <point x="390" y="250"/>
      <point x="445" y="250" type="curve" smooth="yes"/>
      <point x="489" y="250"/>
      <point x="527" y="274"/>
    </contour>
    <contour>
      <point x="539" y="752" type="curve" smooth="yes"/>
      <point x="724" y="752"/>
      <point x="856" y="615"/>
      <point x="856" y="438" type="curve" smooth="yes"/>
      <point x="856" y="415"/>
      <point x="853" y="393"/>
      <point x="849" y="369" type="curve" smooth="yes"/>
      <point x="810" y="158"/>
      <point x="606" y="-13"/>
      <point x="394" y="-13" type="curve" smooth="yes"/>
      <point x="205" y="-13"/>
      <point x="72" y="122"/>
      <point x="72" y="300" type="curve" smooth="yes"/>
      <point x="72" y="322"/>
      <point x="74" y="345"/>
      <point x="78" y="369" type="curve" smooth="yes"/>
      <point x="118" y="583"/>
      <point x="321" y="752"/>
    </contour>
    <contour>
      <point x="517" y="675" type="curve" smooth="yes"/>
      <point x="352" y="675"/>
      <point x="190" y="537"/>
      <point x="159" y="370" type="curve" smooth="yes"/>
      <point x="156" y="351"/>
      <point x="153" y="333"/>
      <point x="153" y="315" type="curve" smooth="yes"/>
      <point x="153" y="174"/>
      <point x="258" y="67"/>
      <point x="407" y="67" type="curve" smooth="yes"/>
      <point x="576" y="67"/>
      <point x="738" y="203"/>
      <point x="769" y="369" type="curve" smooth="yes"/>
      <point x="773" y="389"/>
      <point x="775" y="407"/>
      <point x="775" y="426" type="curve" smooth="yes"/>
      <point x="775" y="569"/>
      <point x="670" y="675"/>
    </contour>
  </outline>
</glyph>
<glyph name="ordfeminine" format="1">
  <advance width="382"/>
  <unicode hex="00AA"/>
  <outline>
    <contour>
      <point x="477" y="739" type="line"/>
      <point x="422" y="441" type="line"/>
      <point x="356" y="441" type="line"/>
      <point x="363" y="482" type="line"/>
      <point x="332" y="449"/>
      <point x="293" y="431"/>
      <point x="252" y="431" type="curve" smooth="yes"/>
      <point x="183" y="431"/>
      <point x="136" y="484"/>
      <point x="136" y="557" type="curve" smooth="yes"/>
      <point x="136" y="568"/>
      <point x="138" y="580"/>
      <point x="140" y="592" type="curve" smooth="yes"/>
      <point x="156" y="681"/>
      <point x="234" y="750"/>
      <point x="316" y="750" type="curve" smooth="yes"/>
      <point x="355" y="750"/>
      <point x="384" y="734"/>
      <point x="404" y="700" type="curve"/>
      <point x="411" y="739" type="line"/>
    </contour>
    <contour>
      <point x="311" y="676" type="curve" smooth="yes"/>
      <point x="267" y="676"/>
      <point x="224" y="637"/>
      <point x="215" y="589" type="curve" smooth="yes"/>
      <point x="214" y="583"/>
      <point x="214" y="578"/>
      <point x="214" y="573" type="curve" smooth="yes"/>
      <point x="214" y="534"/>
      <point x="241" y="505"/>
      <point x="281" y="505" type="curve" smooth="yes"/>
      <point x="327" y="505"/>
      <point x="369" y="542"/>
      <point x="378" y="591" type="curve" smooth="yes"/>
      <point x="379" y="597"/>
      <point x="379" y="603"/>
      <point x="379" y="609" type="curve" smooth="yes"/>
      <point x="379" y="649"/>
      <point x="352" y="676"/>
    </contour>
    <contour>
      <point x="90" y="310" type="line"/>
      <point x="103" y="380" type="line"/>
      <point x="414" y="380" type="line"/>
      <point x="401" y="310" type="line"/>
    </contour>
  </outline>
</glyph>
<glyph name="guillemotleft" format="1">
  <advance width="460"/>
  <unicode hex="00AB"/>
  <outline>
    <contour>
      <point x="417" y="108" type="line"/>
      <point x="302" y="239" type="line"/>
      <point x="321" y="339" type="line"/>
      <point x="484" y="469" type="line"/>
      <point x="461" y="346" type="line"/>
      <point x="384" y="289" type="line"/>
      <point x="440" y="231" type="line"/>
    </contour>
    <contour>
      <point x="204" y="108" type="line"/>
      <point x="89" y="239" type="line"/>
      <point x="108" y="339" type="line"/>
      <point x="271" y="469" type="line"/>
      <point x="248" y="346" type="line"/>
      <point x="171" y="289" type="line"/>
      <point x="227" y="231" type="line"/>
    </contour>
  </outline>
</glyph>
<glyph name="logicalnot" format="1">
  <advance width="600"/>
  <unicode hex="00AC"/>
  <outline>
    <contour>
      <point x="132" y="473" type="line"/>
      <point x="636" y="473" type="line"/>
      <point x="582" y="182" type="line"/>
      <point x="468" y="182" type="line"/>
      <point x="501" y="359" type="line"/>
      <point x="111" y="359" type="line"/>
    </contour>
  </outline>
</glyph>
<glyph name="registered" format="1">
  <advance width="791"/>
  <unicode hex="00AE"/>
  <outline>
    <contour>
      <point x="282" y="166" type="line"/>
      <point x="358" y="579" type="line"/>
      <point x="489" y="579" type="line" smooth="yes"/>
      <point x="558" y="579"/>
      <point x="586" y="572"/>
      <point x="610" y="549" type="curve" smooth="yes"/>
      <point x="631" y="529"/>
      <point x="643" y="499"/>
      <point x="643" y="465" type="curve" smooth="yes"/>
      <point x="643" y="456"/>
      <point x="642" y="447"/>
      <point x="640" y="437" type="curve" smooth="yes"/>
      <point x="627" y="369"/>
      <point x="578" y="318"/>
      <point x="514" y="307" type="curve"/>
      <point x="600" y="166" type="line"/>
      <point x="479" y="166" type="line"/>
      <point x="408" y="300" type="line"/>
      <point x="383" y="166" type="line"/>
    </contour>
    <contour>
      <point x="421" y="372" type="line"/>
      <point x="458" y="372" type="line" smooth="yes"/>
      <point x="502" y="372"/>
      <point x="531" y="393"/>
      <point x="538" y="430" type="curve" smooth="yes"/>
      <point x="539" y="434"/>
      <point x="539" y="439"/>
      <point x="539" y="443" type="curve" smooth="yes"/>
      <point x="539" y="471"/>
      <point x="519" y="486"/>
      <point x="480" y="486" type="curve" smooth="yes"/>
      <point x="442" y="486" type="line"/>
    </contour>
    <contour>
      <point x="539" y="752" type="curve" smooth="yes"/>
      <point x="724" y="752"/>
      <point x="856" y="615"/>
      <point x="856" y="438" type="curve" smooth="yes"/>
      <point x="856" y="415"/>
      <point x="853" y="393"/>
      <point x="849" y="369" type="curve" smooth="yes"/>
      <point x="810" y="158"/>
      <point x="606" y="-13"/>
      <point x="394" y="-13" type="curve" smooth="yes"/>
      <point x="205" y="-13"/>
      <point x="72" y="122"/>
      <point x="72" y="300" type="curve" smooth="yes"/>
      <point x="72" y="322"/>
      <point x="74" y="345"/>
      <point x="78" y="369" type="curve" smooth="yes"/>
      <point x="118" y="583"/>
      <point x="321" y="752"/>
    </contour>
    <contour>
      <point x="517" y="675" type="curve" smooth="yes"/>
      <point x="352" y="675"/>
      <point x="190" y="537"/>
      <point x="159" y="370" type="curve" smooth="yes"/>
      <point x="156" y="351"/>
      <point x="153" y="333"/>
      <point x="153" y="315" type="curve" smooth="yes"/>
      <point x="153" y="174"/>
      <point x="258" y="67"/>
      <point x="407" y="67" type="curve" smooth="yes"/>
      <point x="576" y="67"/>
      <point x="738" y="203"/>
      <point x="769" y="369" type="curve" smooth="yes"/>
      <point x="773" y="389"/>
      <point x="775" y="407"/>
      <point x="775" y="426" type="curve" smooth="yes"/>
      <point x="775" y="569"/>
      <point x="670" y="675"/>
    </contour>
  </outline>
</glyph>
<glyph name="macron" format="1">
  <advance width="405"/>
  <unicode hex="00AF"/>
  <outline>
    <contour>
      <point x="184" y="648" type="line"/>
      <point x="203" y="748" type="line"/>
      <point x="480" y="748" type="line"/>
      <point x="461" y="648" type="line"/>
    </contour>
  </outline>
</glyph>
<glyph name="plusminus" format="1">
  <advance width="600"/>
  <unicode hex="00B1"/>
  <outline>
    <contour>
      <point x="325" y="458" type="line"/>
      <point x="361" y="653" type="line"/>
      <point x="481" y="653" type="line"/>
      <point x="445" y="458" type="line"/>
      <point x="637" y="458" type="line"/>
      <point x="615" y="340" type="line"/>
      <point x="423" y="340" type="line"/>
      <point x="392" y="175" type="line"/>
      <point x="272" y="175" type="line"/>
      <point x="303" y="340" type="line"/>
      <point x="111" y="340" type="line"/>
      <point x="133" y="458" type="line"/>
    </contour>
    <contour>
      <point x="574" y="118" type="line"/>
      <point x="552" y="0" type="line"/>
      <point x="48" y="0" type="line"/>
      <point x="70" y="118" type="line"/>
    </contour>
  </outline>
</glyph>
<glyph name="uni00B2" format="1">
  <advance width="336"/>
  <unicode hex="00B2"/>
  <outline>
    <contour>
      <point x="68" y="296" type="line"/>
      <point x="82" y="370" type="line"/>
      <point x="279" y="518" type="line" smooth="yes"/>
      <point x="327" y="555"/>
      <point x="345" y="576"/>
      <point x="350" y="603" type="curve" smooth="yes"/>
      <point x="351" y="607"/>
      <point x="351" y="611"/>
      <point x="351" y="615" type="curve" smooth="yes"/>
      <point x="351" y="646"/>
      <point x="329" y="668"/>
      <point x="294" y="668" type="curve" smooth="yes"/>
      <point x="249" y="668"/>
      <point x="216" y="637"/>
      <point x="205" y="582" type="curve"/>
      <point x="118" y="582" type="line"/>
      <point x="127" y="629"/>
      <point x="139" y="657"/>
      <point x="165" y="685" type="curve" smooth="yes"/>
      <point x="199" y="724"/>
      <point x="253" y="747"/>
      <point x="307" y="747" type="curve" smooth="yes"/>
      <point x="387" y="747"/>
      <point x="440" y="699"/>
      <point x="440" y="629" type="curve" smooth="yes"/>
      <point x="440" y="620"/>
      <point x="439" y="610"/>
      <point x="437" y="601" type="curve" smooth="yes"/>
      <point x="427" y="549"/>
      <point x="389" y="498"/>
      <point x="321" y="451" type="curve" smooth="yes"/>
      <point x="213" y="376" type="line"/>
      <point x="394" y="376" type="line"/>
      <point x="379" y="296" type="line"/>
    </contour>
  </outline>
</glyph>
<glyph name="uni00B3" format="1">
  <advance width="336"/>
  <unicode hex="00B3"/>
  <outline>
    <contour>
      <point x="221" y="506" type="line"/>
      <point x="236" y="588" type="line"/>
      <point x="297" y="589"/>
      <point x="321" y="600"/>
      <point x="327" y="630" type="curve"/>
      <point x="327" y="637" type="line" smooth="yes"/>
      <point x="327" y="655"/>
      <point x="313" y="668"/>
      <point x="291" y="668" type="curve" smooth="yes"/>
      <point x="265" y="668"/>
      <point x="251" y="657"/>
      <point x="241" y="628" type="curve"/>
      <point x="152" y="628" type="line"/>
      <point x="164" y="669"/>
      <point x="176" y="689"/>
      <point x="203" y="710" type="curve" smooth="yes"/>
      <point x="231" y="733"/>
      <point x="267" y="746"/>
      <point x="304" y="746" type="curve" smooth="yes"/>
      <point x="371" y="746"/>
      <point x="416" y="706"/>
      <point x="416" y="648" type="curve" smooth="yes"/>
      <point x="416" y="641"/>
      <point x="415" y="633"/>
      <point x="414" y="625" type="curve" smooth="yes"/>
      <point x="408" y="593"/>
      <point x="391" y="568"/>
      <point x="366" y="551" type="curve"/>
      <point x="397" y="535"/>
      <point x="414" y="505"/>
      <point x="414" y="467" type="curve" smooth="yes"/>
      <point x="414" y="458"/>
      <point x="413" y="449"/>
      <point x="411" y="439" type="curve" smooth="yes"/>
      <point x="395" y="352"/>
      <point x="315" y="288"/>
      <point x="222" y="288" type="curve" smooth="yes"/>
      <point x="136" y="288"/>
      <point x="82" y="339"/>
      <point x="82" y="414" type="curve" smooth="yes"/>
      <point x="82" y="421"/>
      <point x="83" y="428"/>
      <point x="84" y="435" type="curve"/>
      <point x="172" y="435" type="line"/>
      <point x="172" y="391"/>
      <point x="194" y="367"/>
      <point x="237" y="367" type="curve" smooth="yes"/>
      <point x="280" y="367"/>
      <point x="317" y="396"/>
      <point x="324" y="436" type="curve" smooth="yes"/>
      <point x="325" y="440"/>
      <point x="325" y="445"/>
      <point x="325" y="449" type="curve" smooth="yes"/>
      <point x="325" y="485"/>
      <point x="294" y="506"/>
      <point x="242" y="506" type="curve" smooth="yes"/>
    </contour>
  </outline>
</glyph>
<glyph name="acute" format="1">
  <advance width="406"/>
  <unicode hex="00B4"/>
  <outline>
    <contour>
      <point x="229" y="613" type="line"/>
      <point x="192" y="691" type="line"/>
      <point x="441" y="825" type="line"/>
      <point x="478" y="733" type="line"/>
    </contour>
  </outline>
</glyph>
<glyph name="mu" format="1">
  <advance width="601"/>
  <unicode hex="00B5"/>
  <outline>
    <contour>
      <point x="197" y="52" type="curve"/>
      <point x="153" y="-185" type="line"/>
      <point x="20" y="-185" type="line"/>
      <point x="157" y="554" type="line"/>
      <point x="290" y="554" type="line"/>
      <point x="241" y="293" type="line" smooth="yes"/>
      <point x="233" y="251"/>
      <point x="230" y="226"/>
      <point x="230" y="207" type="curve" smooth="yes"/>
      <point x="230" y="189"/>
      <point x="233" y="177"/>
      <point x="241" y="162" type="curve" smooth="yes"/>
      <point x="258" y="128"/>
      <point x="288" y="109"/>
      <point x="326" y="109" type="curve" smooth="yes"/>
      <point x="365" y="109"/>
      <point x="404" y="129"/>
      <point x="427" y="162" type="curve" smooth="yes"/>
      <point x="444" y="187"/>
      <point x="455" y="222"/>
      <point x="468" y="293" type="curve" smooth="yes"/>
      <point x="517" y="554" type="line"/>
      <point x="650" y="554" type="line"/>
      <point x="547" y="0" type="line"/>
      <point x="424" y="0" type="line"/>
      <point x="434" y="53" type="line"/>
      <point x="385" y="5"/>
      <point x="349" y="-13"/>
      <point x="298" y="-13" type="curve" smooth="yes"/>
      <point x="251" y="-13"/>
      <point x="221" y="6"/>
    </contour>
  </outline>
</glyph>
<glyph name="paragraph" format="1">
  <advance width="600"/>
  <unicode hex="00B6"/>
  <outline>
    <contour>
      <point x="217" y="-128" type="line"/>
      <point x="302" y="330" type="line"/>
      <point x="196" y="332"/>
      <point x="132" y="394"/>
      <point x="132" y="489" type="curve" smooth="yes"/>
      <point x="132" y="503"/>
      <point x="133" y="518"/>
      <point x="136" y="533" type="curve" smooth="yes"/>
      <point x="151" y="612"/>
      <point x="201" y="678"/>
      <point x="272" y="711" type="curve" smooth="yes"/>
      <point x="312" y="729"/>
      <point x="371" y="739"/>
      <point x="446" y="739" type="curve" smooth="yes"/>
      <point x="664" y="739" type="line"/>
      <point x="503" y="-128" type="line"/>
      <point x="402" y="-128" type="line"/>
      <point x="543" y="632" type="line"/>
      <point x="459" y="632" type="line"/>
      <point x="318" y="-128" type="line"/>
    </contour>
  </outline>
</glyph>
<glyph name="periodcentered" format="1">
  <advance width="281"/>
  <unicode hex="00B7"/>
  <outline>
    <contour>
      <point x="130" y="300" type="line"/>
      <point x="154" y="433" type="line"/>
      <point x="288" y="433" type="line"/>
      <point x="263" y="300" type="line"/>
    </contour>
  </outline>
</glyph>
<glyph name="cedilla" format="1">
  <advance width="324"/>
  <unicode hex="00B8"/>
  <outline>
    <contour>
      <point x="109" y="0" type="line"/>
      <point x="161" y="0" type="line"/>
      <point x="129" y="-58" type="line"/>
      <point x="143" y="-53"/>
      <point x="151" y="-51"/>
      <point x="160" y="-51" type="curve" smooth="yes"/>
      <point x="204" y="-51"/>
      <point x="234" y="-86"/>
      <point x="234" y="-132" type="curve" smooth="yes"/>
      <point x="234" y="-138"/>
      <point x="233" y="-145"/>
      <point x="232" y="-152" type="curve" smooth="yes"/>
      <point x="221" y="-211"/>
      <point x="174" y="-251"/>
      <point x="117" y="-251" type="curve" smooth="yes"/>
      <point x="66" y="-251"/>
      <point x="33" y="-216"/>
      <point x="33" y="-166" type="curve"/>
      <point x="94" y="-166" type="line"/>
      <point x="99" y="-186"/>
      <point x="110" y="-196"/>
      <point x="127" y="-196" type="curve" smooth="yes"/>
      <point x="149" y="-196"/>
      <point x="169" y="-175"/>
      <point x="174" y="-150" type="curve" smooth="yes"/>
      <point x="175" y="-147"/>
      <point x="175" y="-144"/>
      <point x="175" y="-141" type="curve" smooth="yes"/>
      <point x="175" y="-121"/>
      <point x="162" y="-106"/>
      <point x="144" y="-106" type="curve" smooth="yes"/>
      <point x="129" y="-106"/>
      <point x="118" y="-113"/>
      <point x="100" y="-133" type="curve"/>
      <point x="53" y="-107" type="line"/>
    </contour>
  </outline>
</glyph>
<glyph name="uni00B9" format="1">
  <advance width="336"/>
  <unicode hex="00B9"/>
  <outline>
    <contour>
      <point x="195" y="296" type="line"/>
      <point x="262" y="659" type="line"/>
      <point x="203" y="659" type="line"/>
      <point x="218" y="739" type="line"/>
      <point x="365" y="739" type="line"/>
      <point x="283" y="296" type="line"/>
    </contour>
  </outline>
</glyph>
<glyph name="ordmasculine" format="1">
  <advance width="367"/>
  <unicode hex="00BA"/>
  <outline>
    <contour>
      <point x="325" y="750" type="curve" smooth="yes"/>
      <point x="399" y="750"/>
      <point x="450" y="696"/>
      <point x="450" y="625" type="curve" smooth="yes"/>
      <point x="450" y="616"/>
      <point x="450" y="607"/>
      <point x="448" y="597" type="curve" smooth="yes"/>
      <point x="432" y="511"/>
      <point x="351" y="442"/>
      <point x="266" y="442" type="curve" smooth="yes"/>
      <point x="191" y="442"/>
      <point x="138" y="497"/>
      <point x="138" y="569" type="curve" smooth="yes"/>
      <point x="138" y="578"/>
      <point x="139" y="588"/>
      <point x="141" y="598" type="curve" smooth="yes"/>
      <point x="157" y="683"/>
      <point x="238" y="750"/>
    </contour>
    <contour>
      <point x="308" y="680" type="curve" smooth="yes"/>
      <point x="265" y="680"/>
      <point x="222" y="643"/>
      <point x="214" y="598" type="curve" smooth="yes"/>
      <point x="213" y="592"/>
      <point x="212" y="586"/>
      <point x="212" y="581" type="curve" smooth="yes"/>
      <point x="212" y="543"/>
      <point x="239" y="516"/>
      <point x="280" y="516" type="curve" smooth="yes"/>
      <point x="326" y="516"/>
      <point x="366" y="551"/>
      <point x="375" y="598" type="curve" smooth="yes"/>
      <point x="376" y="603"/>
      <point x="376" y="608"/>
      <point x="376" y="613" type="curve" smooth="yes"/>
      <point x="376" y="651"/>
      <point x="348" y="680"/>
    </contour>
    <contour>
      <point x="88" y="311" type="line"/>
      <point x="101" y="381" type="line"/>
      <point x="408" y="381" type="line"/>
      <point x="395" y="311" type="line"/>
    </contour>
  </outline>
</glyph>
<glyph name="guillemotright" format="1">
  <advance width="460"/>
  <unicode hex="00BB"/>
  <outline>
    <contour>
      <point x="83" y="108" type="line"/>
      <point x="106" y="231" type="line"/>
      <point x="184" y="289" type="line"/>
      <point x="127" y="346" type="line"/>
      <point x="150" y="469" type="line"/>
      <point x="265" y="339" type="line"/>
      <point x="246" y="239" type="line"/>
    </contour>
    <contour>
      <point x="296" y="108" type="line"/>
      <point x="319" y="231" type="line"/>
      <point x="397" y="289" type="line"/>
      <point x="340" y="346" type="line"/>
      <point x="363" y="469" type="line"/>
      <point x="478" y="339" type="line"/>
      <point x="459" y="239" type="line"/>
    </contour>
  </outline>
</glyph>
<glyph name="onequarter" format="1">
  <advance width="840"/>
  <unicode hex="00BC"/>
  <outline>
    <contour>
      <point x="177" y="0" type="line"/>
      <point x="620" y="739" type="line"/>
      <point x="715" y="739" type="line"/>
      <point x="272" y="0" type="line"/>
    </contour>
    <contour>
      <point x="488" y="133" type="line"/>
      <point x="753" y="443" type="line"/>
      <point x="827" y="443" type="line"/>
      <point x="771" y="142" type="line"/>
      <point x="819" y="142" type="line"/>
      <point x="805" y="66" type="line"/>
      <point x="757" y="66" type="line"/>
      <point x="745" y="0" type="line"/>
      <point x="657" y="0" type="line"/>
      <point x="669" y="66" type="line"/>
      <point x="475" y="66" type="line"/>
    </contour>
    <contour>
      <point x="683" y="142" type="line"/>
      <point x="712" y="296" type="line"/>
      <point x="581" y="142" type="line"/>
    </contour>
    <contour>
      <point x="165" y="296" type="line"/>
      <point x="232" y="659" type="line"/>
      <point x="173" y="659" type="line"/>
      <point x="188" y="739" type="line"/>
      <point x="335" y="739" type="line"/>
      <point x="253" y="296" type="line"/>
    </contour>
  </outline>
</glyph>
<glyph name="onehalf" format="1">
  <advance width="840"/>
  <unicode hex="00BD"/>
  <outline>
    <contour>
      <point x="152" y="0" type="line"/>
      <point x="595" y="739" type="line"/>
      <point x="690" y="739" type="line"/>
      <point x="247" y="0" type="line"/>
    </contour>
    <contour>
      <point x="161" y="296" type="line"/>
      <point x="228" y="659" type="line"/>
      <point x="169" y="659" type="line"/>
      <point x="184" y="739" type="line"/>
      <point x="331" y="739" type="line"/>
      <point x="249" y="296" type="line"/>
    </contour>
    <contour>
      <point x="470" y="0" type="line"/>
      <point x="484" y="74" type="line"/>
      <point x="681" y="222" type="line" smooth="yes"/>
      <point x="729" y="259"/>
      <point x="747" y="280"/>
      <point x="752" y="307" type="curve" smooth="yes"/>
      <point x="753" y="311"/>
      <point x="753" y="315"/>
      <point x="753" y="319" type="curve" smooth="yes"/>
      <point x="753" y="350"/>
      <point x="731" y="372"/>
      <point x="696" y="372" type="curve" smooth="yes"/>
      <point x="651" y="372"/>
      <point x="618" y="341"/>
      <point x="607" y="286" type="curve"/>
      <point x="520" y="286" type="line"/>
      <point x="529" y="334"/>
      <point x="542" y="361"/>
      <point x="567" y="389" type="curve" smooth="yes"/>
      <point x="601" y="428"/>
      <point x="656" y="451"/>
      <point x="710" y="451" type="curve" smooth="yes"/>
      <point x="790" y="451"/>
      <point x="842" y="403"/>
      <point x="842" y="333" type="curve" smooth="yes"/>
      <point x="842" y="324"/>
      <point x="842" y="314"/>
      <point x="840" y="305" type="curve" smooth="yes"/>
      <point x="830" y="253"/>
      <point x="791" y="202"/>
      <point x="723" y="155" type="curve" smooth="yes"/>
      <point x="615" y="80" type="line"/>
      <point x="796" y="80" type="line"/>
      <point x="781" y="0" type="line"/>
    </contour>
  </outline>
</glyph>
<glyph name="threequarters" format="1">
  <advance width="840"/>
  <unicode hex="00BE"/>
  <outline>
    <contour>
      <point x="252" y="0" type="line"/>
      <point x="695" y="739" type="line"/>
      <point x="790" y="739" type="line"/>
      <point x="347" y="0" type="line"/>
    </contour>
    <contour>
      <point x="533" y="133" type="line"/>
      <point x="798" y="443" type="line"/>
      <point x="872" y="443" type="line"/>
      <point x="816" y="142" type="line"/>
      <point x="864" y="142" type="line"/>
      <point x="850" y="66" type="line"/>
      <point x="802" y="66" type="line"/>
      <point x="790" y="0" type="line"/>
      <point x="702" y="0" type="line"/>
      <point x="714" y="66" type="line"/>
      <point x="520" y="66" type="line"/>
    </contour>
    <contour>
      <point x="728" y="142" type="line"/>
      <point x="757" y="296" type="line"/>
      <point x="626" y="142" type="line"/>
    </contour>
    <contour>
      <point x="224" y="506" type="line"/>
      <point x="239" y="588" type="line"/>
      <point x="300" y="589"/>
      <point x="324" y="600"/>
      <point x="330" y="630" type="curve"/>
      <point x="330" y="637" type="line" smooth="yes"/>
      <point x="330" y="655"/>
      <point x="316" y="668"/>
      <point x="294" y="668" type="curve" smooth="yes"/>
      <point x="268" y="668"/>
      <point x="254" y="657"/>
      <point x="244" y="628" type="curve"/>
      <point x="155" y="628" type="line"/>
      <point x="167" y="669"/>
      <point x="179" y="689"/>
      <point x="206" y="710" type="curve" smooth="yes"/>
      <point x="234" y="733"/>
      <point x="270" y="746"/>
      <point x="307" y="746" type="curve" smooth="yes"/>
      <point x="374" y="746"/>
      <point x="419" y="706"/>
      <point x="419" y="648" type="curve" smooth="yes"/>
      <point x="419" y="641"/>
      <point x="418" y="633"/>
      <point x="417" y="625" type="curve" smooth="yes"/>
      <point x="411" y="593"/>
      <point x="394" y="568"/>
      <point x="369" y="551" type="curve"/>
      <point x="400" y="535"/>
      <point x="417" y="505"/>
      <point x="417" y="467" type="curve" smooth="yes"/>
      <point x="417" y="458"/>
      <point x="416" y="449"/>
      <point x="414" y="439" type="curve" smooth="yes"/>
      <point x="398" y="352"/>
      <point x="318" y="288"/>
      <point x="225" y="288" type="curve" smooth="yes"/>
      <point x="139" y="288"/>
      <point x="85" y="339"/>
      <point x="85" y="414" type="curve" smooth="yes"/>
      <point x="85" y="421"/>
      <point x="86" y="428"/>
      <point x="87" y="435" type="curve"/>
      <point x="175" y="435" type="line"/>
      <point x="175" y="391"/>
      <point x="197" y="367"/>
      <point x="240" y="367" type="curve" smooth="yes"/>
      <point x="283" y="367"/>
      <point x="320" y="396"/>
      <point x="327" y="436" type="curve" smooth="yes"/>
      <point x="328" y="440"/>
      <point x="328" y="445"/>
      <point x="328" y="449" type="curve" smooth="yes"/>
      <point x="328" y="485"/>
      <point x="297" y="506"/>
      <point x="245" y="506" type="curve" smooth="yes"/>
    </contour>
  </outline>
</glyph>
<glyph name="questiondown" format="1">
  <advance width="519"/>
  <unicode hex="00BF"/>
  <outline>
    <contour>
      <point x="270" y="367" type="line"/>
      <point x="403" y="367" type="line"/>
      <point x="400" y="352" type="line" smooth="yes"/>
      <point x="387" y="283"/>
      <point x="366" y="236"/>
      <point x="331" y="196" type="curve" smooth="yes"/>
      <point x="305" y="166"/>
      <point x="298" y="159"/>
      <point x="234" y="112" type="curve" smooth="yes"/>
      <point x="199" y="86"/>
      <point x="179" y="58"/>
      <point x="173" y="27" type="curve" smooth="yes"/>
      <point x="172" y="20"/>
      <point x="171" y="14"/>
      <point x="171" y="8" type="curve" smooth="yes"/>
      <point x="171" y="-36"/>
      <point x="203" y="-66"/>
      <point x="251" y="-66" type="curve" smooth="yes"/>
      <point x="305" y="-66"/>
      <point x="341" y="-33"/>
      <point x="361" y="34" type="curve"/>
      <point x="494" y="34" type="line"/>
      <point x="475" y="-35"/>
      <point x="454" y="-77"/>
      <point x="416" y="-115" type="curve" smooth="yes"/>
      <point x="363" y="-168"/>
      <point x="292" y="-198"/>
      <point x="223" y="-198" type="curve" smooth="yes"/>
      <point x="110" y="-198"/>
      <point x="36" y="-123"/>
      <point x="36" y="-16" type="curve" smooth="yes"/>
      <point x="36" y="-1"/>
      <point x="38" y="15"/>
      <point x="41" y="31" type="curve" smooth="yes"/>
      <point x="53" y="98"/>
      <point x="86" y="142"/>
      <point x="176" y="210" type="curve" smooth="yes"/>
      <point x="239" y="257"/>
      <point x="255" y="283"/>
      <point x="268" y="354" type="curve" smooth="yes"/>
    </contour>
    <contour>
      <point x="438" y="554" type="line"/>
      <point x="414" y="426" type="line"/>
      <point x="281" y="426" type="line"/>
      <point x="305" y="554" type="line"/>
    </contour>
  </outline>
</glyph>
<glyph name="Agrave" format="1">
  <advance width="740"/>
  <unicode hex="00C0"/>
  <outline>
    <contour>
      <point x="7" y="0" type="line"/>
      <point x="452" y="739" type="line"/>
      <point x="560" y="739" type="line"/>
      <point x="733" y="0" type="line"/>
      <point x="582" y="0" type="line"/>
      <point x="538" y="191" type="line"/>
      <point x="275" y="191" type="line"/>
      <point x="158" y="0" type="line"/>
    </contour>
    <contour>
      <point x="350" y="322" type="line"/>
      <point x="508" y="322" type="line"/>
      <point x="470" y="546" type="line"/>
    </contour>
    <contour>
      <point x="366" y="912" type="line"/>
      <point x="439" y="1000" type="line"/>
      <point x="637" y="867" type="line"/>
      <point x="569" y="788" type="line"/>
    </contour>
  </outline>
</glyph>
<glyph name="Atilde" format="1">
  <advance width="740"/>
  <unicode hex="00C3"/>
  <outline>
    <contour>
      <point x="7" y="0" type="line"/>
      <point x="452" y="739" type="line"/>
      <point x="560" y="739" type="line"/>
      <point x="733" y="0" type="line"/>
      <point x="582" y="0" type="line"/>
      <point x="538" y="191" type="line"/>
      <point x="275" y="191" type="line"/>
      <point x="158" y="0" type="line"/>
    </contour>
    <contour>
      <point x="350" y="322" type="line"/>
      <point x="508" y="322" type="line"/>
      <point x="470" y="546" type="line"/>
    </contour>
    <contour>
      <point x="409" y="811" type="curve"/>
      <point x="370" y="891" type="line"/>
      <point x="411" y="926"/>
      <point x="440" y="938"/>
      <point x="482" y="938" type="curve" smooth="yes"/>
      <point x="504" y="938"/>
      <point x="512" y="936"/>
      <point x="539" y="924" type="curve" smooth="yes"/>
      <point x="558" y="916"/>
      <point x="570" y="913"/>
      <point x="584" y="913" type="curve" smooth="yes"/>
      <point x="610" y="913"/>
      <point x="633" y="923"/>
      <point x="658" y="947" type="curve"/>
      <point x="697" y="866" type="line"/>
      <point x="658" y="827"/>
      <point x="627" y="811"/>
      <point x="592" y="811" type="curve" smooth="yes"/>
      <point x="577" y="811"/>
      <point x="560" y="815"/>
      <point x="536" y="824" type="curve" smooth="yes"/>
      <point x="511" y="834"/>
      <point x="501" y="836"/>
      <point x="484" y="836" type="curve" smooth="yes"/>
      <point x="458" y="836"/>
      <point x="451" y="834"/>
    </contour>
  </outline>
</glyph>
<glyph name="Adieresis" format="1">
  <advance width="740"/>
  <unicode hex="00C4"/>
  <outline>
    <contour>
      <point x="7" y="0" type="line"/>
      <point x="452" y="739" type="line"/>
      <point x="560" y="739" type="line"/>
      <point x="733" y="0" type="line"/>
      <point x="582" y="0" type="line"/>
      <point x="538" y="191" type="line"/>
      <point x="275" y="191" type="line"/>
      <point x="158" y="0" type="line"/>
    </contour>
    <contour>
      <point x="350" y="322" type="line"/>
      <point x="508" y="322" type="line"/>
      <point x="470" y="546" type="line"/>
    </contour>
    <contour>
      <point x="348" y="805" type="line"/>
      <point x="373" y="938" type="line"/>
      <point x="506" y="938" type="line"/>
      <point x="481" y="805" type="line"/>
    </contour>
    <contour>
      <point x="558" y="805" type="line"/>
      <point x="583" y="938" type="line"/>
      <point x="716" y="938" type="line"/>
      <point x="691" y="805" type="line"/>
    </contour>
  </outline>
</glyph>
<glyph name="Aring" format="1">
  <advance width="740"/>
  <unicode hex="00C5"/>
  <outline>
    <contour>
      <point x="7" y="0" type="line"/>
      <point x="452" y="739" type="line"/>
      <point x="560" y="739" type="line"/>
      <point x="733" y="0" type="line"/>
      <point x="582" y="0" type="line"/>
      <point x="538" y="191" type="line"/>
      <point x="275" y="191" type="line"/>
      <point x="158" y="0" type="line"/>
    </contour>
    <contour>
      <point x="350" y="322" type="line"/>
      <point x="508" y="322" type="line"/>
      <point x="470" y="546" type="line"/>
    </contour>
    <contour>
      <point x="555" y="991" type="curve" smooth="yes"/>
      <point x="605" y="991"/>
      <point x="639" y="954"/>
      <point x="639" y="907" type="curve" smooth="yes"/>
      <point x="639" y="901"/>
      <point x="639" y="894"/>
      <point x="638" y="888" type="curve" smooth="yes"/>
      <point x="627" y="831"/>
      <point x="572" y="785"/>
      <point x="515" y="785" type="curve" smooth="yes"/>
      <point x="464" y="785"/>
      <point x="430" y="821"/>
      <point x="430" y="869" type="curve" smooth="yes"/>
      <point x="430" y="875"/>
      <point x="431" y="882"/>
      <point x="432" y="888" type="curve" smooth="yes"/>
      <point x="443" y="945"/>
      <point x="497" y="991"/>
    </contour>
    <contour>
      <point x="540" y="924" type="curve" smooth="yes"/>
      <point x="521" y="924"/>
      <point x="503" y="908"/>
      <point x="499" y="888" type="curve" smooth="yes"/>
      <point x="499" y="886"/>
      <point x="498" y="883"/>
      <point x="498" y="881" type="curve" smooth="yes"/>
      <point x="498" y="864"/>
      <point x="510" y="852"/>
      <point x="528" y="852" type="curve" smooth="yes"/>
      <point x="548" y="852"/>
      <point x="567" y="868"/>
      <point x="571" y="888" type="curve"/>
      <point x="571" y="895" type="line" smooth="yes"/>
      <point x="571" y="912"/>
      <point x="559" y="924"/>
    </contour>
  </outline>
</glyph>
<glyph name="AE" format="1">
  <advance width="884"/>
  <unicode hex="00C6"/>
  <outline>
    <contour>
      <point x="2" y="0" type="line"/>
      <point x="626" y="739" type="line"/>
      <point x="965" y="739" type="line"/>
      <point x="941" y="608" type="line"/>
      <point x="723" y="608" type="line"/>
      <point x="690" y="434" type="line"/>
      <point x="897" y="434" type="line"/>
      <point x="873" y="303" type="line"/>
      <point x="666" y="303" type="line"/>
      <point x="634" y="131" type="line"/>
      <point x="852" y="131" type="line"/>
      <point x="828" y="0" type="line"/>
      <point x="473" y="0" type="line"/>
      <point x="508" y="191" type="line"/>
      <point x="314" y="191" type="line"/>
      <point x="167" y="0" type="line"/>
    </contour>
    <contour>
      <point x="418" y="322" type="line"/>
      <point x="533" y="322" type="line"/>
      <point x="568" y="513" type="line"/>
    </contour>
  </outline>
</glyph>
<glyph name="Ccedilla" format="1">
  <advance width="802"/>
  <unicode hex="00C7"/>
  <outline>
    <contour>
      <point x="403" y="-13" type="line"/>
      <point x="378" y="-58" type="line"/>
      <point x="392" y="-53"/>
      <point x="400" y="-51"/>
      <point x="409" y="-51" type="curve" smooth="yes"/>
      <point x="453" y="-51"/>
      <point x="483" y="-86"/>
      <point x="483" y="-132" type="curve" smooth="yes"/>
      <point x="483" y="-138"/>
      <point x="482" y="-145"/>
      <point x="481" y="-152" type="curve" smooth="yes"/>
      <point x="470" y="-211"/>
      <point x="423" y="-251"/>
      <point x="366" y="-251" type="curve" smooth="yes"/>
      <point x="315" y="-251"/>
      <point x="282" y="-216"/>
      <point x="282" y="-166" type="curve"/>
      <point x="344" y="-166" type="line"/>
      <point x="348" y="-186"/>
      <point x="359" y="-196"/>
      <point x="376" y="-196" type="curve" smooth="yes"/>
      <point x="398" y="-196"/>
      <point x="418" y="-176"/>
      <point x="423" y="-150" type="curve" smooth="yes"/>
      <point x="424" y="-147"/>
      <point x="424" y="-144"/>
      <point x="424" y="-141" type="curve" smooth="yes"/>
      <point x="424" y="-121"/>
      <point x="411" y="-106"/>
      <point x="393" y="-106" type="curve" smooth="yes"/>
      <point x="378" y="-106"/>
      <point x="367" y="-113"/>
      <point x="350" y="-133" type="curve"/>
      <point x="302" y="-107" type="line"/>
      <point x="354" y="-7" type="line"/>
      <point x="202" y="17"/>
      <point x="99" y="147"/>
      <point x="99" y="304" type="curve" smooth="yes"/>
      <point x="99" y="326"/>
      <point x="101" y="349"/>
      <point x="105" y="372" type="curve" smooth="yes"/>
      <point x="144" y="581"/>
      <point x="346" y="752"/>
      <point x="555" y="752" type="curve" smooth="yes"/>
      <point x="648" y="752"/>
      <point x="732" y="720"/>
      <point x="790" y="662" type="curve" smooth="yes"/>
      <point x="830" y="622"/>
      <point x="847" y="589"/>
      <point x="864" y="527" type="curve"/>
      <point x="711" y="527" type="line"/>
      <point x="673" y="592"/>
      <point x="620" y="620"/>
      <point x="534" y="620" type="curve" smooth="yes"/>
      <point x="458" y="620"/>
      <point x="390" y="592"/>
      <point x="335" y="539" type="curve" smooth="yes"/>
      <point x="289" y="495"/>
      <point x="254" y="431"/>
      <point x="243" y="371" type="curve" smooth="yes"/>
      <point x="240" y="355"/>
      <point x="238" y="340"/>
      <point x="238" y="325" type="curve" smooth="yes"/>
      <point x="238" y="209"/>
      <point x="323" y="119"/>
      <point x="444" y="119" type="curve" smooth="yes"/>
      <point x="515" y="119"/>
      <point x="570" y="143"/>
      <point x="643" y="206" type="curve"/>
      <point x="804" y="206" type="line"/>
      <point x="719" y="69"/>
      <point x="573" y="-13"/>
      <point x="417" y="-13" type="curve" smooth="yes"/>
    </contour>
  </outline>
</glyph>
<glyph name="Egrave" format="1">
  <advance width="524"/>
  <unicode hex="00C8"/>
  <outline>
    <contour>
      <point x="71" y="0" type="line"/>
      <point x="208" y="739" type="line"/>
      <point x="605" y="739" type="line"/>
      <point x="581" y="608" type="line"/>
      <point x="321" y="608" type="line"/>
      <point x="288" y="434" type="line"/>
      <point x="537" y="434" type="line"/>
      <point x="513" y="303" type="line"/>
      <point x="264" y="303" type="line"/>
      <point x="232" y="131" type="line"/>
      <point x="492" y="131" type="line"/>
      <point x="468" y="0" type="line"/>
    </contour>
    <contour>
      <point x="259" y="912" type="line"/>
      <point x="332" y="1000" type="line"/>
      <point x="530" y="867" type="line"/>
      <point x="462" y="788" type="line"/>
    </contour>
  </outline>
</glyph>
<glyph name="Eacute" format="1">
  <advance width="524"/>
  <unicode hex="00C9"/>
  <outline>
    <contour>
      <point x="71" y="0" type="line"/>
      <point x="208" y="739" type="line"/>
      <point x="605" y="739" type="line"/>
      <point x="581" y="608" type="line"/>
      <point x="321" y="608" type="line"/>
      <point x="288" y="434" type="line"/>
      <point x="537" y="434" type="line"/>
      <point x="513" y="303" type="line"/>
      <point x="264" y="303" type="line"/>
      <point x="232" y="131" type="line"/>
      <point x="492" y="131" type="line"/>
      <point x="468" y="0" type="line"/>
    </contour>
    <contour>
      <point x="374" y="788" type="line"/>
      <point x="338" y="866" type="line"/>
      <point x="586" y="1000" type="line"/>
      <point x="623" y="908" type="line"/>
    </contour>
  </outline>
</glyph>
<glyph name="Igrave" format="1">
  <advance width="279"/>
  <unicode hex="00CC"/>
  <outline>
    <contour>
      <point x="71" y="0" type="line"/>
      <point x="208" y="739" type="line"/>
      <point x="345" y="739" type="line"/>
      <point x="208" y="0" type="line"/>
    </contour>
    <contour>
      <point x="176" y="912" type="line"/>
      <point x="249" y="1000" type="line"/>
      <point x="447" y="867" type="line"/>
      <point x="379" y="788" type="line"/>
    </contour>
  </outline>
</glyph>
<glyph name="Iacute" format="1">
  <advance width="279"/>
  <unicode hex="00CD"/>
  <outline>
    <contour>
      <point x="71" y="0" type="line"/>
      <point x="208" y="739" type="line"/>
      <point x="345" y="739" type="line"/>
      <point x="208" y="0" type="line"/>
    </contour>
    <contour>
      <point x="204" y="788" type="line"/>
      <point x="168" y="866" type="line"/>
      <point x="416" y="1000" type="line"/>
      <point x="453" y="908" type="line"/>
    </contour>
  </outline>
</glyph>
<glyph name="Icircumflex" format="1">
  <advance width="279"/>
  <unicode hex="00CE"/>
  <outline>
    <contour>
      <point x="71" y="0" type="line"/>
      <point x="208" y="739" type="line"/>
      <point x="345" y="739" type="line"/>
      <point x="208" y="0" type="line"/>
    </contour>
    <contour>
      <point x="89" y="805" type="line"/>
      <point x="262" y="943" type="line"/>
      <point x="369" y="943" type="line"/>
      <point x="488" y="805" type="line"/>
      <point x="343" y="805" type="line"/>
      <point x="302" y="869" type="line"/>
      <point x="236" y="805" type="line"/>
    </contour>
  </outline>
</glyph>
<glyph name="Idieresis" format="1">
  <advance width="279"/>
  <unicode hex="00CF"/>
  <outline>
    <contour>
      <point x="71" y="0" type="line"/>
      <point x="208" y="739" type="line"/>
      <point x="345" y="739" type="line"/>
      <point x="208" y="0" type="line"/>
    </contour>
    <contour>
      <point x="117" y="805" type="line"/>
      <point x="142" y="938" type="line"/>
      <point x="275" y="938" type="line"/>
      <point x="250" y="805" type="line"/>
    </contour>
    <contour>
      <point x="327" y="805" type="line"/>
      <point x="352" y="938" type="line"/>
      <point x="485" y="938" type="line"/>
      <point x="460" y="805" type="line"/>
    </contour>
  </outline>
</glyph>
<glyph name="Eth" format="1">
  <advance width="744"/>
  <unicode hex="00D0"/>
  <outline>
    <contour>
      <point x="116" y="0" type="line"/>
      <point x="174" y="315" type="line"/>
      <point x="78" y="315" type="line"/>
      <point x="98" y="422" type="line"/>
      <point x="194" y="422" type="line"/>
      <point x="253" y="739" type="line"/>
      <point x="422" y="739" type="line" smooth="yes"/>
      <point x="543" y="739"/>
      <point x="628" y="720"/>
      <point x="681" y="681" type="curve" smooth="yes"/>
      <point x="749" y="632"/>
      <point x="784" y="551"/>
      <point x="784" y="453" type="curve" smooth="yes"/>
      <point x="784" y="426"/>
      <point x="781" y="398"/>
      <point x="776" y="368" type="curve" smooth="yes"/>
      <point x="748" y="215"/>
      <point x="656" y="93"/>
      <point x="528" y="38" type="curve" smooth="yes"/>
      <point x="464" y="11"/>
      <point x="397" y="0"/>
      <point x="288" y="0" type="curve" smooth="yes"/>
    </contour>
    <contour>
      <point x="277" y="131" type="line"/>
      <point x="307" y="131" type="line" smooth="yes"/>
      <point x="389" y="131"/>
      <point x="448" y="141"/>
      <point x="494" y="164" type="curve" smooth="yes"/>
      <point x="566" y="200"/>
      <point x="622" y="279"/>
      <point x="638" y="368" type="curve" smooth="yes"/>
      <point x="641" y="387"/>
      <point x="643" y="405"/>
      <point x="643" y="422" type="curve" smooth="yes"/>
      <point x="643" y="494"/>
      <point x="614" y="552"/>
      <point x="560" y="581" type="curve" smooth="yes"/>
      <point x="522" y="601"/>
      <point x="478" y="608"/>
      <point x="393" y="608" type="curve" smooth="yes"/>
      <point x="366" y="608" type="line"/>
      <point x="331" y="422" type="line"/>
      <point x="485" y="422" type="line"/>
      <point x="465" y="315" type="line"/>
      <point x="311" y="315" type="line"/>
    </contour>
  </outline>
</glyph>
<glyph name="Ntilde" format="1">
  <advance width="741"/>
  <unicode hex="00D1"/>
  <outline>
    <contour>
      <point x="71" y="0" type="line"/>
      <point x="208" y="739" type="line"/>
      <point x="364" y="739" type="line"/>
      <point x="570" y="201" type="line"/>
      <point x="670" y="739" type="line"/>
      <point x="807" y="739" type="line"/>
      <point x="670" y="0" type="line"/>
      <point x="517" y="0" type="line"/>
      <point x="308" y="537" type="line"/>
      <point x="208" y="0" type="line"/>
    </contour>
    <contour>
      <point x="416" y="811" type="curve"/>
      <point x="377" y="891" type="line"/>
      <point x="418" y="926"/>
      <point x="447" y="938"/>
      <point x="489" y="938" type="curve" smooth="yes"/>
      <point x="511" y="938"/>
      <point x="519" y="936"/>
      <point x="546" y="924" type="curve" smooth="yes"/>
      <point x="565" y="916"/>
      <point x="577" y="913"/>
      <point x="591" y="913" type="curve" smooth="yes"/>
      <point x="617" y="913"/>
      <point x="640" y="923"/>
      <point x="665" y="947" type="curve"/>
      <point x="704" y="866" type="line"/>
      <point x="665" y="827"/>
      <point x="634" y="811"/>
      <point x="599" y="811" type="curve" smooth="yes"/>
      <point x="584" y="811"/>
      <point x="567" y="815"/>
      <point x="543" y="824" type="curve" smooth="yes"/>
      <point x="518" y="834"/>
      <point x="508" y="836"/>
      <point x="491" y="836" type="curve" smooth="yes"/>
      <point x="465" y="836"/>
      <point x="458" y="834"/>
    </contour>
  </outline>
</glyph>
<glyph name="Ocircumflex" format="1">
  <advance width="842"/>
  <unicode hex="00D4"/>
  <outline>
    <contour>
      <point x="566" y="752" type="curve" smooth="yes"/>
      <point x="752" y="752"/>
      <point x="881" y="618"/>
      <point x="881" y="441" type="curve" smooth="yes"/>
      <point x="881" y="418"/>
      <point x="879" y="394"/>
      <point x="875" y="370" type="curve" smooth="yes"/>
      <point x="835" y="154"/>
      <point x="638" y="-13"/>
      <point x="423" y="-13" type="curve" smooth="yes"/>
      <point x="231" y="-13"/>
      <point x="98" y="119"/>
      <point x="98" y="298" type="curve" smooth="yes"/>
      <point x="98" y="321"/>
      <point x="99" y="345"/>
      <point x="104" y="369" type="curve" smooth="yes"/>
      <point x="144" y="585"/>
      <point x="345" y="752"/>
    </contour>
    <contour>
      <point x="533" y="620" type="curve" smooth="yes"/>
      <point x="398" y="620"/>
      <point x="269" y="509"/>
      <point x="243" y="370" type="curve" smooth="yes"/>
      <point x="240" y="354"/>
      <point x="238" y="337"/>
      <point x="238" y="322" type="curve" smooth="yes"/>
      <point x="238" y="205"/>
      <point x="322" y="119"/>
      <point x="446" y="119" type="curve" smooth="yes"/>
      <point x="586" y="119"/>
      <point x="709" y="225"/>
      <point x="736" y="368" type="curve" smooth="yes"/>
      <point x="739" y="386"/>
      <point x="741" y="403"/>
      <point x="741" y="419" type="curve" smooth="yes"/>
      <point x="741" y="537"/>
      <point x="659" y="620"/>
    </contour>
    <contour>
      <point x="371" y="805" type="line"/>
      <point x="544" y="943" type="line"/>
      <point x="651" y="943" type="line"/>
      <point x="770" y="805" type="line"/>
      <point x="625" y="805" type="line"/>
      <point x="584" y="869" type="line"/>
      <point x="518" y="805" type="line"/>
    </contour>
  </outline>
</glyph>
<glyph name="Otilde" format="1">
  <advance width="842"/>
  <unicode hex="00D5"/>
  <outline>
    <contour>
      <point x="566" y="752" type="curve" smooth="yes"/>
      <point x="752" y="752"/>
      <point x="881" y="618"/>
      <point x="881" y="441" type="curve" smooth="yes"/>
      <point x="881" y="418"/>
      <point x="879" y="394"/>
      <point x="875" y="370" type="curve" smooth="yes"/>
      <point x="835" y="154"/>
      <point x="638" y="-13"/>
      <point x="423" y="-13" type="curve" smooth="yes"/>
      <point x="231" y="-13"/>
      <point x="98" y="119"/>
      <point x="98" y="298" type="curve" smooth="yes"/>
      <point x="98" y="321"/>
      <point x="99" y="345"/>
      <point x="104" y="369" type="curve" smooth="yes"/>
      <point x="144" y="585"/>
      <point x="345" y="752"/>
    </contour>
    <contour>
      <point x="533" y="620" type="curve" smooth="yes"/>
      <point x="398" y="620"/>
      <point x="269" y="509"/>
      <point x="243" y="370" type="curve" smooth="yes"/>
      <point x="240" y="354"/>
      <point x="238" y="337"/>
      <point x="238" y="322" type="curve" smooth="yes"/>
      <point x="238" y="205"/>
      <point x="322" y="119"/>
      <point x="446" y="119" type="curve" smooth="yes"/>
      <point x="586" y="119"/>
      <point x="709" y="225"/>
      <point x="736" y="368" type="curve" smooth="yes"/>
      <point x="739" y="386"/>
      <point x="741" y="403"/>
      <point x="741" y="419" type="curve" smooth="yes"/>
      <point x="741" y="537"/>
      <point x="659" y="620"/>
    </contour>
    <contour>
      <point x="460" y="811" type="curve"/>
      <point x="421" y="891" type="line"/>
      <point x="462" y="926"/>
      <point x="491" y="938"/>
      <point x="533" y="938" type="curve" smooth="yes"/>
      <point x="555" y="938"/>
      <point x="563" y="936"/>
      <point x="590" y="924" type="curve" smooth="yes"/>
      <point x="609" y="916"/>
      <point x="621" y="913"/>
      <point x="635" y="913" type="curve" smooth="yes"/>
      <point x="661" y="913"/>
      <point x="684" y="923"/>
      <point x="709" y="947" type="curve"/>
      <point x="748" y="866" type="line"/>
      <point x="709" y="827"/>
      <point x="678" y="811"/>
      <point x="643" y="811" type="curve" smooth="yes"/>
      <point x="628" y="811"/>
      <point x="611" y="815"/>
      <point x="587" y="824" type="curve" smooth="yes"/>
      <point x="562" y="834"/>
      <point x="552" y="836"/>
      <point x="535" y="836" type="curve" smooth="yes"/>
      <point x="509" y="836"/>
      <point x="502" y="834"/>
    </contour>
  </outline>
</glyph>
<glyph name="multiply" format="1">
  <advance width="600"/>
  <unicode hex="00D7"/>
  <outline>
    <contour>
      <point x="450" y="366" type="line"/>
      <point x="588" y="196" type="line"/>
      <point x="491" y="114" type="line"/>
      <point x="353" y="284" type="line"/>
      <point x="151" y="114" type="line"/>
      <point x="84" y="196" type="line"/>
      <point x="286" y="366" type="line"/>
      <point x="147" y="536" type="line"/>
      <point x="245" y="618" type="line"/>
      <point x="383" y="448" type="line"/>
      <point x="585" y="618" type="line"/>
      <point x="651" y="536" type="line"/>
    </contour>
  </outline>
</glyph>
<glyph name="Oslash" format="1">
  <advance width="845"/>
  <unicode hex="00D8"/>
  <outline>
    <contour>
      <point x="882" y="743" type="line"/>
      <point x="804" y="653" type="line"/>
      <point x="858" y="595"/>
      <point x="884" y="522"/>
      <point x="884" y="442" type="curve" smooth="yes"/>
      <point x="884" y="419"/>
      <point x="883" y="395"/>
      <point x="878" y="370" type="curve" smooth="yes"/>
      <point x="838" y="154"/>
      <point x="641" y="-13"/>
      <point x="425" y="-13" type="curve" smooth="yes"/>
      <point x="365" y="-13"/>
      <point x="312" y="-1"/>
      <point x="263" y="23" type="curve"/>
      <point x="187" y="-65" type="line"/>
      <point x="103" y="0" type="line"/>
      <point x="178" y="87" type="line"/>
      <point x="126" y="143"/>
      <point x="98" y="219"/>
      <point x="98" y="301" type="curve" smooth="yes"/>
      <point x="98" y="324"/>
      <point x="101" y="347"/>
      <point x="105" y="370" type="curve" smooth="yes"/>
      <point x="144" y="582"/>
      <point x="346" y="752"/>
      <point x="561" y="752" type="curve" smooth="yes"/>
      <point x="619" y="752"/>
      <point x="668" y="741"/>
      <point x="720" y="717" type="curve"/>
      <point x="799" y="809" type="line"/>
    </contour>
    <contour>
      <point x="707" y="540" type="curve"/>
      <point x="360" y="135" type="line"/>
      <point x="390" y="124"/>
      <point x="416" y="119"/>
      <point x="448" y="119" type="curve" smooth="yes"/>
      <point x="588" y="119"/>
      <point x="713" y="226"/>
      <point x="739" y="368" type="curve" smooth="yes"/>
      <point x="742" y="385"/>
      <point x="744" y="401"/>
      <point x="744" y="417" type="curve" smooth="yes"/>
      <point x="744" y="462"/>
      <point x="731" y="504"/>
    </contour>
    <contour>
      <point x="276" y="201" type="curve"/>
      <point x="623" y="605" type="line"/>
      <point x="596" y="615"/>
      <point x="569" y="620"/>
      <point x="537" y="620" type="curve" smooth="yes"/>
      <point x="398" y="620"/>
      <point x="269" y="510"/>
      <point x="243" y="370" type="curve" smooth="yes"/>
      <point x="240" y="355"/>
      <point x="238" y="340"/>
      <point x="238" y="325" type="curve" smooth="yes"/>
      <point x="238" y="280"/>
      <point x="251" y="237"/>
    </contour>
  </outline>
</glyph>
<glyph name="Ucircumflex" format="1">
  <advance width="641"/>
  <unicode hex="00DB"/>
  <outline>
    <contour>
      <point x="208" y="739" type="line"/>
      <point x="345" y="739" type="line"/>
      <point x="258" y="271" type="line" smooth="yes"/>
      <point x="253" y="243"/>
      <point x="250" y="223"/>
      <point x="250" y="207" type="curve" smooth="yes"/>
      <point x="250" y="192"/>
      <point x="252" y="181"/>
      <point x="257" y="169" type="curve" smooth="yes"/>
      <point x="270" y="138"/>
      <point x="302" y="119"/>
      <point x="342" y="119" type="curve" smooth="yes"/>
      <point x="383" y="119"/>
      <point x="421" y="138"/>
      <point x="446" y="169" type="curve" smooth="yes"/>
      <point x="464" y="193"/>
      <point x="473" y="216"/>
      <point x="483" y="271" type="curve" smooth="yes"/>
      <point x="570" y="739" type="line"/>
      <point x="707" y="739" type="line"/>
      <point x="620" y="271" type="line" smooth="yes"/>
      <point x="604" y="182"/>
      <point x="577" y="126"/>
      <point x="531" y="78" type="curve" smooth="yes"/>
      <point x="475" y="21"/>
      <point x="396" y="-13"/>
      <point x="318" y="-13" type="curve" smooth="yes"/>
      <point x="229" y="-13"/>
      <point x="156" y="31"/>
      <point x="127" y="102" type="curve" smooth="yes"/>
      <point x="117" y="127"/>
      <point x="112" y="152"/>
      <point x="112" y="184" type="curve" smooth="yes"/>
      <point x="112" y="209"/>
      <point x="115" y="238"/>
      <point x="121" y="271" type="curve" smooth="yes"/>
    </contour>
    <contour>
      <point x="270" y="805" type="line"/>
      <point x="443" y="943" type="line"/>
      <point x="550" y="943" type="line"/>
      <point x="669" y="805" type="line"/>
      <point x="524" y="805" type="line"/>
      <point x="483" y="869" type="line"/>
      <point x="417" y="805" type="line"/>
    </contour>
  </outline>
</glyph>
<glyph name="Thorn" format="1">
  <advance width="576"/>
  <unicode hex="00DE"/>
  <outline>
    <contour>
      <point x="71" y="0" type="line"/>
      <point x="208" y="739" type="line"/>
      <point x="345" y="739" type="line"/>
      <point x="321" y="608" type="line"/>
      <point x="367" y="608" type="line" smooth="yes"/>
      <point x="468" y="608"/>
      <point x="516" y="598"/>
      <point x="555" y="570" type="curve" smooth="yes"/>
      <point x="597" y="539"/>
      <point x="618" y="491"/>
      <point x="618" y="431" type="curve" smooth="yes"/>
      <point x="618" y="415"/>
      <point x="616" y="398"/>
      <point x="613" y="380" type="curve" smooth="yes"/>
      <point x="597" y="291"/>
      <point x="544" y="215"/>
      <point x="473" y="179" type="curve" smooth="yes"/>
      <point x="429" y="157"/>
      <point x="381" y="149"/>
      <point x="280" y="149" type="curve" smooth="yes"/>
      <point x="236" y="149" type="line"/>
      <point x="208" y="0" type="line"/>
    </contour>
    <contour>
      <point x="260" y="280" type="line"/>
      <point x="300" y="280" type="line" smooth="yes"/>
      <point x="340" y="280"/>
      <point x="373" y="283"/>
      <point x="396" y="290" type="curve" smooth="yes"/>
      <point x="437" y="301"/>
      <point x="467" y="334"/>
      <point x="475" y="377" type="curve" smooth="yes"/>
      <point x="476" y="385"/>
      <point x="477" y="393"/>
      <point x="477" y="400" type="curve" smooth="yes"/>
      <point x="477" y="435"/>
      <point x="460" y="461"/>
      <point x="428" y="470" type="curve" smooth="yes"/>
      <point x="408" y="475"/>
      <point x="387" y="477"/>
      <point x="342" y="477" type="curve" smooth="yes"/>
      <point x="296" y="477" type="line"/>
    </contour>
  </outline>
</glyph>
<glyph name="germandbls" format="1">
  <advance width="616"/>
  <unicode hex="00DF"/>
  <outline>
    <contour>
      <point x="54" y="0" type="line"/>
      <point x="144" y="487" type="line" smooth="yes"/>
      <point x="156" y="553"/>
      <point x="175" y="600"/>
      <point x="205" y="643" type="curve" smooth="yes"/>
      <point x="254" y="711"/>
      <point x="332" y="752"/>
      <point x="414" y="752" type="curve" smooth="yes"/>
      <point x="524" y="752"/>
      <point x="598" y="682"/>
      <point x="598" y="584" type="curve" smooth="yes"/>
      <point x="598" y="572"/>
      <point x="596" y="559"/>
      <point x="594" y="546" type="curve" smooth="yes"/>
      <point x="582" y="480"/>
      <point x="551" y="437"/>
      <point x="494" y="408" type="curve"/>
      <point x="540" y="397"/>
      <point x="560" y="387"/>
      <point x="585" y="364" type="curve" smooth="yes"/>
      <point x="615" y="335"/>
      <point x="631" y="299"/>
      <point x="631" y="256" type="curve" smooth="yes"/>
      <point x="631" y="243"/>
      <point x="630" y="230"/>
      <point x="627" y="216" type="curve" smooth="yes"/>
      <point x="602" y="82"/>
      <point x="488" y="-13"/>
      <point x="351" y="-13" type="curve" smooth="yes"/>
      <point x="269" y="-13"/>
      <point x="217" y="17"/>
      <point x="191" y="79" type="curve"/>
      <point x="176" y="0" type="line"/>
    </contour>
    <contour>
      <point x="222" y="189" type="line"/>
      <point x="304" y="189" type="line"/>
      <point x="304" y="143"/>
      <point x="337" y="109"/>
      <point x="383" y="109" type="curve" smooth="yes"/>
      <point x="434" y="109"/>
      <point x="481" y="150"/>
      <point x="491" y="205" type="curve" smooth="yes"/>
      <point x="492" y="212"/>
      <point x="493" y="219"/>
      <point x="493" y="226" type="curve" smooth="yes"/>
      <point x="493" y="258"/>
      <point x="478" y="284"/>
      <point x="451" y="298" type="curve" smooth="yes"/>
      <point x="424" y="312"/>
      <point x="399" y="315"/>
      <point x="327" y="315" type="curve" smooth="yes"/>
      <point x="316" y="315" type="line"/>
      <point x="338" y="433" type="line"/>
      <point x="349" y="433" type="line" smooth="yes"/>
      <point x="401" y="433"/>
      <point x="447" y="477"/>
      <point x="458" y="536" type="curve" smooth="yes"/>
      <point x="460" y="544"/>
      <point x="461" y="553"/>
      <point x="461" y="560" type="curve" smooth="yes"/>
      <point x="461" y="603"/>
      <point x="435" y="630"/>
      <point x="391" y="630" type="curve" smooth="yes"/>
      <point x="333" y="630"/>
      <point x="296" y="588"/>
      <point x="280" y="503" type="curve" smooth="yes"/>
    </contour>
  </outline>
</glyph>
<glyph name="adieresis" format="1">
  <advance width="667"/>
  <unicode hex="00E4"/>
  <outline>
    <contour>
      <point x="716" y="554" type="line"/>
      <point x="613" y="0" type="line"/>
      <point x="491" y="0" type="line"/>
      <point x="504" y="72" type="line"/>
      <point x="440" y="11"/>
      <point x="383" y="-13"/>
      <point x="305" y="-13" type="curve" smooth="yes"/>
      <point x="164" y="-13"/>
      <point x="73" y="79"/>
      <point x="73" y="214" type="curve" smooth="yes"/>
      <point x="73" y="234"/>
      <point x="75" y="254"/>
      <point x="79" y="275" type="curve" smooth="yes"/>
      <point x="110" y="444"/>
      <point x="251" y="567"/>
      <point x="415" y="567" type="curve" smooth="yes"/>
      <point x="495" y="567"/>
      <point x="545" y="541"/>
      <point x="580" y="480" type="curve"/>
      <point x="594" y="554" type="line"/>
    </contour>
    <contour>
      <point x="404" y="445" type="curve" smooth="yes"/>
      <point x="311" y="445"/>
      <point x="231" y="372"/>
      <point x="212" y="272" type="curve" smooth="yes"/>
      <point x="210" y="260"/>
      <point x="209" y="248"/>
      <point x="209" y="237" type="curve" smooth="yes"/>
      <point x="209" y="160"/>
      <point x="261" y="109"/>
      <point x="346" y="109" type="curve" smooth="yes"/>
      <point x="442" y="109"/>
      <point x="520" y="176"/>
      <point x="538" y="275" type="curve" smooth="yes"/>
      <point x="540" y="288"/>
      <point x="542" y="300"/>
      <point x="542" y="312" type="curve" smooth="yes"/>
      <point x="542" y="392"/>
      <point x="488" y="445"/>
    </contour>
    <contour>
      <point x="289" y="630" type="line"/>
      <point x="313" y="763" type="line"/>
      <point x="446" y="763" type="line"/>
      <point x="422" y="630" type="line"/>
    </contour>
    <contour>
      <point x="499" y="630" type="line"/>
      <point x="523" y="763" type="line"/>
      <point x="656" y="763" type="line"/>
      <point x="632" y="630" type="line"/>
    </contour>
  </outline>
</glyph>
<glyph name="aring" format="1">
  <advance width="667"/>
  <unicode hex="00E5"/>
  <outline>
    <contour>
      <point x="716" y="554" type="line"/>
      <point x="613" y="0" type="line"/>
      <point x="491" y="0" type="line"/>
      <point x="504" y="72" type="line"/>
      <point x="440" y="11"/>
      <point x="383" y="-13"/>
      <point x="305" y="-13" type="curve" smooth="yes"/>
      <point x="164" y="-13"/>
      <point x="73" y="79"/>
      <point x="73" y="214" type="curve" smooth="yes"/>
      <point x="73" y="234"/>
      <point x="75" y="254"/>
      <point x="79" y="275" type="curve" smooth="yes"/>
      <point x="110" y="444"/>
      <point x="251" y="567"/>
      <point x="415" y="567" type="curve" smooth="yes"/>
      <point x="495" y="567"/>
      <point x="545" y="541"/>
      <point x="580" y="480" type="curve"/>
      <point x="594" y="554" type="line"/>
    </contour>
    <contour>
      <point x="404" y="445" type="curve" smooth="yes"/>
      <point x="311" y="445"/>
      <point x="231" y="372"/>
      <point x="212" y="272" type="curve" smooth="yes"/>
      <point x="210" y="260"/>
      <point x="209" y="248"/>
      <point x="209" y="237" type="curve" smooth="yes"/>
      <point x="209" y="160"/>
      <point x="261" y="109"/>
      <point x="346" y="109" type="curve" smooth="yes"/>
      <point x="442" y="109"/>
      <point x="520" y="176"/>
      <point x="538" y="275" type="curve" smooth="yes"/>
      <point x="540" y="288"/>
      <point x="542" y="300"/>
      <point x="542" y="312" type="curve" smooth="yes"/>
      <point x="542" y="392"/>
      <point x="488" y="445"/>
    </contour>
    <contour>
      <point x="496" y="816" type="curve" smooth="yes"/>
      <point x="546" y="816"/>
      <point x="581" y="779"/>
      <point x="581" y="732" type="curve" smooth="yes"/>
      <point x="581" y="726"/>
      <point x="580" y="719"/>
      <point x="579" y="713" type="curve" smooth="yes"/>
      <point x="568" y="656"/>
      <point x="514" y="610"/>
      <point x="457" y="610" type="curve" smooth="yes"/>
      <point x="406" y="610"/>
      <point x="371" y="646"/>
      <point x="371" y="694" type="curve" smooth="yes"/>
      <point x="371" y="700"/>
      <point x="372" y="707"/>
      <point x="373" y="713" type="curve" smooth="yes"/>
      <point x="384" y="770"/>
      <point x="438" y="816"/>
    </contour>
    <contour>
      <point x="482" y="749" type="curve" smooth="yes"/>
      <point x="463" y="749"/>
      <point x="444" y="733"/>
      <point x="440" y="713" type="curve"/>
      <point x="440" y="706" type="line" smooth="yes"/>
      <point x="440" y="689"/>
      <point x="451" y="677"/>
      <point x="469" y="677" type="curve" smooth="yes"/>
      <point x="489" y="677"/>
      <point x="508" y="693"/>
      <point x="512" y="713" type="curve" smooth="yes"/>
      <point x="512" y="715"/>
      <point x="513" y="718"/>
      <point x="513" y="720" type="curve" smooth="yes"/>
      <point x="513" y="737"/>
      <point x="501" y="749"/>
    </contour>
  </outline>
</glyph>
<glyph name="ae" format="1">
  <advance width="1077"/>
  <unicode hex="00E6"/>
  <outline>
    <contour>
      <point x="915" y="164" type="curve"/>
      <point x="1060" y="164" type="line"/>
      <point x="1008" y="63"/>
      <point x="886" y="-13"/>
      <point x="772" y="-13" type="curve" smooth="yes"/>
      <point x="698" y="-13"/>
      <point x="651" y="9"/>
      <point x="616" y="60" type="curve"/>
      <point x="605" y="0" type="line"/>
      <point x="483" y="0" type="line"/>
      <point x="494" y="60" type="line"/>
      <point x="439" y="6"/>
      <point x="392" y="-13"/>
      <point x="316" y="-13" type="curve" smooth="yes"/>
      <point x="170" y="-13"/>
      <point x="74" y="83"/>
      <point x="74" y="218" type="curve" smooth="yes"/>
      <point x="74" y="236"/>
      <point x="75" y="255"/>
      <point x="79" y="275" type="curve" smooth="yes"/>
      <point x="110" y="440"/>
      <point x="258" y="567"/>
      <point x="421" y="567" type="curve" smooth="yes"/>
      <point x="493" y="567"/>
      <point x="538" y="547"/>
      <point x="575" y="499" type="curve"/>
      <point x="586" y="554" type="line"/>
      <point x="708" y="554" type="line"/>
      <point x="697" y="499" type="line"/>
      <point x="753" y="547"/>
      <point x="806" y="567"/>
      <point x="877" y="567" type="curve" smooth="yes"/>
      <point x="1014" y="567"/>
      <point x="1107" y="472"/>
      <point x="1107" y="342" type="curve" smooth="yes"/>
      <point x="1107" y="325"/>
      <point x="1105" y="306"/>
      <point x="1102" y="288" type="curve" smooth="yes"/>
      <point x="1098" y="265"/>
      <point x="1094" y="249"/>
      <point x="1081" y="219" type="curve"/>
      <point x="653" y="219" type="line"/>
      <point x="663" y="150"/>
      <point x="713" y="109"/>
      <point x="788" y="109" type="curve" smooth="yes"/>
      <point x="838" y="109"/>
      <point x="876" y="125"/>
    </contour>
    <contour>
      <point x="401" y="445" type="curve" smooth="yes"/>
      <point x="313" y="445"/>
      <point x="231" y="372"/>
      <point x="214" y="278" type="curve" smooth="yes"/>
      <point x="212" y="266"/>
      <point x="210" y="253"/>
      <point x="210" y="242" type="curve" smooth="yes"/>
      <point x="210" y="164"/>
      <point x="262" y="109"/>
      <point x="342" y="109" type="curve" smooth="yes"/>
      <point x="432" y="109"/>
      <point x="512" y="181"/>
      <point x="530" y="276" type="curve" smooth="yes"/>
      <point x="532" y="288"/>
      <point x="534" y="301"/>
      <point x="534" y="312" type="curve" smooth="yes"/>
      <point x="534" y="390"/>
      <point x="481" y="445"/>
    </contour>
    <contour>
      <point x="667" y="337" type="curve"/>
      <point x="971" y="337" type="line"/>
      <point x="965" y="409"/>
      <point x="922" y="445"/>
      <point x="841" y="445" type="curve" smooth="yes"/>
      <point x="764" y="445"/>
      <point x="707" y="410"/>
    </contour>
  </outline>
</glyph>
<glyph name="ccedilla" format="1">
  <advance width="625"/>
  <unicode hex="00E7"/>
  <outline>
    <contour>
      <point x="315" y="-13" type="curve"/>
      <point x="287" y="-58" type="line"/>
      <point x="301" y="-52"/>
      <point x="309" y="-51"/>
      <point x="320" y="-51" type="curve" smooth="yes"/>
      <point x="363" y="-51"/>
      <point x="391" y="-83"/>
      <point x="391" y="-129" type="curve" smooth="yes"/>
      <point x="391" y="-136"/>
      <point x="390" y="-143"/>
      <point x="389" y="-151" type="curve" smooth="yes"/>
      <point x="378" y="-212"/>
      <point x="333" y="-251"/>
      <point x="275" y="-251" type="curve" smooth="yes"/>
      <point x="224" y="-251"/>
      <point x="192" y="-216"/>
      <point x="192" y="-166" type="curve"/>
      <point x="252" y="-166" type="line"/>
      <point x="256" y="-186"/>
      <point x="267" y="-196"/>
      <point x="285" y="-196" type="curve" smooth="yes"/>
      <point x="307" y="-196"/>
      <point x="326" y="-178"/>
      <point x="331" y="-153" type="curve" smooth="yes"/>
      <point x="332" y="-149"/>
      <point x="332" y="-145"/>
      <point x="332" y="-142" type="curve" smooth="yes"/>
      <point x="332" y="-122"/>
      <point x="320" y="-109"/>
      <point x="301" y="-109" type="curve" smooth="yes"/>
      <point x="287" y="-109"/>
      <point x="274" y="-115"/>
      <point x="258" y="-133" type="curve"/>
      <point x="211" y="-107" type="line"/>
      <point x="271" y="-9" type="line"/>
      <point x="150" y="13"/>
      <point x="74" y="106"/>
      <point x="74" y="224" type="curve" smooth="yes"/>
      <point x="74" y="241"/>
      <point x="76" y="259"/>
      <point x="79" y="277" type="curve" smooth="yes"/>
      <point x="109" y="440"/>
      <point x="261" y="567"/>
      <point x="425" y="567" type="curve" smooth="yes"/>
      <point x="504" y="567"/>
      <point x="574" y="538"/>
      <point x="618" y="485" type="curve" smooth="yes"/>
      <point x="647" y="451"/>
      <point x="658" y="423"/>
      <point x="667" y="369" type="curve"/>
      <point x="517" y="369" type="line"/>
      <point x="500" y="421"/>
      <point x="462" y="445"/>
      <point x="402" y="445" type="curve" smooth="yes"/>
      <point x="309" y="445"/>
      <point x="232" y="376"/>
      <point x="214" y="278" type="curve" smooth="yes"/>
      <point x="212" y="266"/>
      <point x="210" y="254"/>
      <point x="210" y="243" type="curve" smooth="yes"/>
      <point x="210" y="164"/>
      <point x="263" y="109"/>
      <point x="343" y="109" type="curve" smooth="yes"/>
      <point x="398" y="109"/>
      <point x="441" y="131"/>
      <point x="483" y="182" type="curve"/>
      <point x="633" y="182" type="line"/>
      <point x="567" y="58"/>
      <point x="452" y="-13"/>
    </contour>
  </outline>
</glyph>
<glyph name="ecircumflex" format="1">
  <advance width="634"/>
  <unicode hex="00EA"/>
  <outline>
    <contour>
      <point x="641" y="218" type="curve"/>
      <point x="212" y="218" type="line"/>
      <point x="216" y="151"/>
      <point x="266" y="109"/>
      <point x="345" y="109" type="curve" smooth="yes"/>
      <point x="400" y="109"/>
      <point x="436" y="124"/>
      <point x="477" y="164" type="curve"/>
      <point x="622" y="164" type="line"/>
      <point x="608" y="136"/>
      <point x="590" y="113"/>
      <point x="564" y="87" type="curve" smooth="yes"/>
      <point x="493" y="19"/>
      <point x="417" y="-13"/>
      <point x="326" y="-13" type="curve" smooth="yes"/>
      <point x="176" y="-13"/>
      <point x="74" y="86"/>
      <point x="74" y="222" type="curve" smooth="yes"/>
      <point x="74" y="239"/>
      <point x="76" y="257"/>
      <point x="79" y="275" type="curve" smooth="yes"/>
      <point x="109" y="438"/>
      <point x="262" y="567"/>
      <point x="425" y="567" type="curve" smooth="yes"/>
      <point x="569" y="567"/>
      <point x="662" y="471"/>
      <point x="662" y="332" type="curve" smooth="yes"/>
      <point x="662" y="312"/>
      <point x="660" y="291"/>
      <point x="656" y="269" type="curve" smooth="yes"/>
      <point x="652" y="249"/>
      <point x="649" y="237"/>
    </contour>
    <contour>
      <point x="230" y="335" type="curve"/>
      <point x="537" y="335" type="line"/>
      <point x="533" y="406"/>
      <point x="486" y="445"/>
      <point x="404" y="445" type="curve" smooth="yes"/>
      <point x="325" y="445"/>
      <point x="264" y="407"/>
    </contour>
    <contour>
      <point x="241" y="630" type="line"/>
      <point x="413" y="768" type="line"/>
      <point x="520" y="768" type="line"/>
      <point x="640" y="630" type="line"/>
      <point x="495" y="630" type="line"/>
      <point x="454" y="694" type="line"/>
      <point x="388" y="630" type="line"/>
    </contour>
  </outline>
</glyph>
<glyph name="igrave" format="1">
  <advance width="241"/>
  <unicode hex="00EC"/>
  <outline>
    <contour>
      <point x="54" y="0" type="line"/>
      <point x="157" y="554" type="line"/>
      <point x="290" y="554" type="line"/>
      <point x="187" y="0" type="line"/>
    </contour>
    <contour>
      <point x="121" y="737" type="line"/>
      <point x="194" y="825" type="line"/>
      <point x="391" y="692" type="line"/>
      <point x="324" y="613" type="line"/>
    </contour>
  </outline>
</glyph>
<glyph name="iacute" format="1">
  <advance width="241"/>
  <unicode hex="00ED"/>
  <outline>
    <contour>
      <point x="54" y="0" type="line"/>
      <point x="157" y="554" type="line"/>
      <point x="290" y="554" type="line"/>
      <point x="187" y="0" type="line"/>
    </contour>
    <contour>
      <point x="149" y="613" type="line"/>
      <point x="112" y="691" type="line"/>
      <point x="361" y="825" type="line"/>
      <point x="398" y="733" type="line"/>
    </contour>
  </outline>
</glyph>
<glyph name="icircumflex" format="1">
  <advance width="241"/>
  <unicode hex="00EE"/>
  <outline>
    <contour>
      <point x="54" y="0" type="line"/>
      <point x="157" y="554" type="line"/>
      <point x="290" y="554" type="line"/>
      <point x="187" y="0" type="line"/>
    </contour>
    <contour>
      <point x="38" y="630" type="line"/>
      <point x="210" y="768" type="line"/>
      <point x="317" y="768" type="line"/>
      <point x="437" y="630" type="line"/>
      <point x="292" y="630" type="line"/>
      <point x="251" y="694" type="line"/>
      <point x="185" y="630" type="line"/>
    </contour>
  </outline>
</glyph>
<glyph name="idieresis" format="1">
  <advance width="241"/>
  <unicode hex="00EF"/>
  <outline>
    <contour>
      <point x="54" y="0" type="line"/>
      <point x="157" y="554" type="line"/>
      <point x="290" y="554" type="line"/>
      <point x="187" y="0" type="line"/>
    </contour>
    <contour>
      <point x="66" y="630" type="line"/>
      <point x="90" y="763" type="line"/>
      <point x="223" y="763" type="line"/>
      <point x="199" y="630" type="line"/>
    </contour>
    <contour>
      <point x="276" y="630" type="line"/>
      <point x="300" y="763" type="line"/>
      <point x="433" y="763" type="line"/>
      <point x="409" y="630" type="line"/>
    </contour>
  </outline>
</glyph>
<glyph name="eth" format="1">
  <advance width="645"/>
  <unicode hex="00F0"/>
  <outline>
    <contour>
      <point x="301" y="721" type="curve"/>
      <point x="410" y="756" type="line"/>
      <point x="415" y="752"/>
      <point x="420" y="749"/>
      <point x="424" y="745" type="curve" smooth="yes"/>
      <point x="450" y="722" type="line" smooth="yes"/>
      <point x="456" y="719"/>
      <point x="461" y="714"/>
      <point x="466" y="709" type="curve"/>
      <point x="561" y="749" type="line"/>
      <point x="593" y="700" type="line"/>
      <point x="508" y="665" type="line"/>
      <point x="569" y="603"/>
      <point x="589" y="579"/>
      <point x="614" y="538" type="curve" smooth="yes"/>
      <point x="655" y="472"/>
      <point x="675" y="408"/>
      <point x="675" y="343" type="curve" smooth="yes"/>
      <point x="675" y="323"/>
      <point x="674" y="304"/>
      <point x="670" y="284" type="curve" smooth="yes"/>
      <point x="639" y="117"/>
      <point x="486" y="-13"/>
      <point x="321" y="-13" type="curve" smooth="yes"/>
      <point x="176" y="-13"/>
      <point x="75" y="91"/>
      <point x="75" y="226" type="curve" smooth="yes"/>
      <point x="75" y="243"/>
      <point x="77" y="260"/>
      <point x="80" y="278" type="curve" smooth="yes"/>
      <point x="99" y="381"/>
      <point x="175" y="480"/>
      <point x="273" y="526" type="curve" smooth="yes"/>
      <point x="309" y="543"/>
      <point x="364" y="556"/>
      <point x="398" y="556" type="curve" smooth="yes"/>
      <point x="415" y="556"/>
      <point x="437" y="553"/>
      <point x="464" y="547" type="curve"/>
      <point x="456" y="556"/>
      <point x="449" y="566"/>
      <point x="442" y="575" type="curve" smooth="yes"/>
      <point x="421" y="601"/>
      <point x="419" y="603"/>
      <point x="401" y="621" type="curve"/>
      <point x="307" y="581" type="line"/>
      <point x="275" y="627" type="line"/>
      <point x="360" y="664" type="line"/>
      <point x="323" y="701"/>
      <point x="320" y="704"/>
    </contour>
    <contour>
      <point x="402" y="445" type="curve" smooth="yes"/>
      <point x="316" y="445"/>
      <point x="230" y="369"/>
      <point x="213" y="277" type="curve" smooth="yes"/>
      <point x="211" y="266"/>
      <point x="210" y="255"/>
      <point x="210" y="245" type="curve" smooth="yes"/>
      <point x="210" y="168"/>
      <point x="264" y="109"/>
      <point x="342" y="109" type="curve" smooth="yes"/>
      <point x="431" y="109"/>
      <point x="517" y="184"/>
      <point x="534" y="276" type="curve" smooth="yes"/>
      <point x="536" y="287"/>
      <point x="537" y="298"/>
      <point x="537" y="309" type="curve" smooth="yes"/>
      <point x="537" y="387"/>
      <point x="482" y="445"/>
    </contour>
  </outline>
</glyph>
<glyph name="ntilde" format="1">
  <advance width="598"/>
  <unicode hex="00F1"/>
  <outline>
    <contour>
      <point x="54" y="0" type="line"/>
      <point x="157" y="554" type="line"/>
      <point x="280" y="554" type="line"/>
      <point x="270" y="501" type="line"/>
      <point x="328" y="549"/>
      <point x="374" y="567"/>
      <point x="438" y="567" type="curve" smooth="yes"/>
      <point x="517" y="567"/>
      <point x="573" y="537"/>
      <point x="599" y="482" type="curve" smooth="yes"/>
      <point x="609" y="460"/>
      <point x="614" y="437"/>
      <point x="614" y="407" type="curve" smooth="yes"/>
      <point x="614" y="379"/>
      <point x="610" y="344"/>
      <point x="601" y="297" type="curve" smooth="yes"/>
      <point x="546" y="0" type="line"/>
      <point x="413" y="0" type="line"/>
      <point x="463" y="271" type="line" smooth="yes"/>
      <point x="470" y="308"/>
      <point x="473" y="336"/>
      <point x="473" y="358" type="curve" smooth="yes"/>
      <point x="473" y="382"/>
      <point x="469" y="400"/>
      <point x="461" y="412" type="curve" smooth="yes"/>
      <point x="447" y="434"/>
      <point x="423" y="445"/>
      <point x="389" y="445" type="curve" smooth="yes"/>
      <point x="345" y="445"/>
      <point x="306" y="426"/>
      <point x="280" y="391" type="curve" smooth="yes"/>
      <point x="259" y="365"/>
      <point x="248" y="333"/>
      <point x="235" y="261" type="curve" smooth="yes"/>
      <point x="187" y="0" type="line"/>
    </contour>
    <contour>
      <point x="297" y="636" type="curve"/>
      <point x="258" y="716" type="line"/>
      <point x="299" y="751"/>
      <point x="327" y="763"/>
      <point x="369" y="763" type="curve" smooth="yes"/>
      <point x="391" y="763"/>
      <point x="400" y="761"/>
      <point x="427" y="749" type="curve" smooth="yes"/>
      <point x="446" y="741"/>
      <point x="458" y="738"/>
      <point x="472" y="738" type="curve" smooth="yes"/>
      <point x="498" y="738"/>
      <point x="520" y="748"/>
      <point x="545" y="772" type="curve"/>
      <point x="584" y="691" type="line"/>
      <point x="545" y="652"/>
      <point x="515" y="636"/>
      <point x="480" y="636" type="curve" smooth="yes"/>
      <point x="465" y="636"/>
      <point x="447" y="640"/>
      <point x="423" y="649" type="curve" smooth="yes"/>
      <point x="398" y="659"/>
      <point x="389" y="661"/>
      <point x="372" y="661" type="curve" smooth="yes"/>
      <point x="346" y="661"/>
      <point x="339" y="659"/>
    </contour>
  </outline>
</glyph>
<glyph name="oacute" format="1">
  <advance width="645"/>
  <unicode hex="00F3"/>
  <outline>
    <contour>
      <point x="430" y="567" type="curve" smooth="yes"/>
      <point x="573" y="567"/>
      <point x="673" y="464"/>
      <point x="673" y="329" type="curve" smooth="yes"/>
      <point x="673" y="312"/>
      <point x="671" y="294"/>
      <point x="668" y="276" type="curve" smooth="yes"/>
      <point x="639" y="117"/>
      <point x="483" y="-13"/>
      <point x="321" y="-13" type="curve" smooth="yes"/>
      <point x="176" y="-13"/>
      <point x="74" y="89"/>
      <point x="74" y="224" type="curve" smooth="yes"/>
      <point x="74" y="241"/>
      <point x="76" y="258"/>
      <point x="79" y="276" type="curve" smooth="yes"/>
      <point x="109" y="438"/>
      <point x="264" y="567"/>
    </contour>
    <contour>
      <point x="402" y="445" type="curve" smooth="yes"/>
      <point x="316" y="445"/>
      <point x="230" y="369"/>
      <point x="213" y="277" type="curve" smooth="yes"/>
      <point x="211" y="266"/>
      <point x="210" y="255"/>
      <point x="210" y="245" type="curve" smooth="yes"/>
      <point x="210" y="168"/>
      <point x="264" y="109"/>
      <point x="342" y="109" type="curve" smooth="yes"/>
      <point x="431" y="109"/>
      <point x="517" y="184"/>
      <point x="534" y="276" type="curve" smooth="yes"/>
      <point x="536" y="287"/>
      <point x="537" y="298"/>
      <point x="537" y="309" type="curve" smooth="yes"/>
      <point x="537" y="387"/>
      <point x="482" y="445"/>
    </contour>
    <contour>
      <point x="382" y="613" type="line"/>
      <point x="345" y="691" type="line"/>
      <point x="594" y="825" type="line"/>
      <point x="631" y="733" type="line"/>
    </contour>
  </outline>
</glyph>
<glyph name="divide" format="1">
  <advance width="600"/>
  <unicode hex="00F7"/>
  <outline>
    <contour>
      <point x="467" y="538" type="line"/>
      <point x="332" y="538" type="line"/>
      <point x="356" y="669" type="line"/>
      <point x="491" y="669" type="line"/>
    </contour>
    <contour>
      <point x="381" y="73" type="line"/>
      <point x="246" y="73" type="line"/>
      <point x="270" y="204" type="line"/>
      <point x="405" y="204" type="line"/>
    </contour>
    <contour>
      <point x="632" y="430" type="line"/>
      <point x="610" y="312" type="line"/>
      <point x="106" y="312" type="line"/>
      <point x="128" y="430" type="line"/>
    </contour>
  </outline>
</glyph>
<glyph name="oslash" format="1">
  <advance width="646"/>
  <unicode hex="00F8"/>
  <outline>
    <contour>
      <point x="55" y="-10" type="line"/>
      <point x="128" y="74" type="line"/>
      <point x="93" y="115"/>
      <point x="74" y="168"/>
      <point x="74" y="225" type="curve" smooth="yes"/>
      <point x="74" y="242"/>
      <point x="76" y="259"/>
      <point x="79" y="277" type="curve" smooth="yes"/>
      <point x="109" y="437"/>
      <point x="265" y="567"/>
      <point x="429" y="567" type="curve" smooth="yes"/>
      <point x="468" y="567"/>
      <point x="501" y="560"/>
      <point x="534" y="546" type="curve"/>
      <point x="600" y="623" type="line"/>
      <point x="676" y="565" type="line"/>
      <point x="612" y="492" type="line"/>
      <point x="653" y="446"/>
      <point x="674" y="392"/>
      <point x="674" y="331" type="curve" smooth="yes"/>
      <point x="674" y="314"/>
      <point x="672" y="295"/>
      <point x="669" y="277" type="curve" smooth="yes"/>
      <point x="639" y="117"/>
      <point x="484" y="-13"/>
      <point x="322" y="-13" type="curve" smooth="yes"/>
      <point x="278" y="-13"/>
      <point x="238" y="-4"/>
      <point x="201" y="15" type="curve"/>
      <point x="130" y="-67" type="line"/>
    </contour>
    <contour>
      <point x="223" y="185" type="curve"/>
      <point x="443" y="440" type="line"/>
      <point x="429" y="444"/>
      <point x="419" y="445"/>
      <point x="405" y="445" type="curve" smooth="yes"/>
      <point x="316" y="445"/>
      <point x="231" y="370"/>
      <point x="214" y="278" type="curve" smooth="yes"/>
      <point x="212" y="267"/>
      <point x="211" y="257"/>
      <point x="211" y="247" type="curve" smooth="yes"/>
      <point x="211" y="226"/>
      <point x="215" y="205"/>
    </contour>
    <contour>
      <point x="519" y="383" type="curve"/>
      <point x="291" y="119" type="line"/>
      <point x="309" y="112"/>
      <point x="324" y="109"/>
      <point x="343" y="109" type="curve" smooth="yes"/>
      <point x="432" y="109"/>
      <point x="518" y="184"/>
      <point x="535" y="276" type="curve" smooth="yes"/>
      <point x="537" y="288"/>
      <point x="538" y="298"/>
      <point x="538" y="309" type="curve" smooth="yes"/>
      <point x="538" y="336"/>
      <point x="532" y="360"/>
    </contour>
  </outline>
</glyph>
<glyph name="udieresis" format="1">
  <advance width="599"/>
  <unicode hex="00FC"/>
  <outline>
    <contour>
      <point x="648" y="554" type="line"/>
      <point x="545" y="0" type="line"/>
      <point x="422" y="0" type="line"/>
      <point x="432" y="53" type="line"/>
      <point x="372" y="4"/>
      <point x="328" y="-13"/>
      <point x="261" y="-13" type="curve" smooth="yes"/>
      <point x="186" y="-13"/>
      <point x="131" y="18"/>
      <point x="105" y="74" type="curve" smooth="yes"/>
      <point x="94" y="98"/>
      <point x="88" y="124"/>
      <point x="88" y="156" type="curve" smooth="yes"/>
      <point x="88" y="183"/>
      <point x="92" y="215"/>
      <point x="100" y="257" type="curve" smooth="yes"/>
      <point x="155" y="554" type="line"/>
      <point x="288" y="554" type="line"/>
      <point x="237" y="283" type="line" smooth="yes"/>
      <point x="230" y="246"/>
      <point x="227" y="218"/>
      <point x="227" y="196" type="curve" smooth="yes"/>
      <point x="227" y="172"/>
      <point x="231" y="155"/>
      <point x="239" y="142" type="curve" smooth="yes"/>
      <point x="254" y="120"/>
      <point x="276" y="109"/>
      <point x="310" y="109" type="curve" smooth="yes"/>
      <point x="356" y="109"/>
      <point x="398" y="128"/>
      <point x="423" y="162" type="curve" smooth="yes"/>
      <point x="442" y="187"/>
      <point x="453" y="222"/>
      <point x="466" y="293" type="curve" smooth="yes"/>
      <point x="515" y="554" type="line"/>
    </contour>
    <contour>
      <point x="244" y="630" type="line"/>
      <point x="268" y="763" type="line"/>
      <point x="401" y="763" type="line"/>
      <point x="377" y="630" type="line"/>
    </contour>
    <contour>
      <point x="454" y="630" type="line"/>
      <point x="478" y="763" type="line"/>
      <point x="611" y="763" type="line"/>
      <point x="587" y="630" type="line"/>
    </contour>
  </outline>
</glyph>
<glyph name="yacute" format="1">
  <advance width="568"/>
  <unicode hex="00FD"/>
  <outline>
    <contour>
      <point x="68" y="-185" type="line"/>
      <point x="216" y="52" type="line"/>
      <point x="106" y="554" type="line"/>
      <point x="258" y="554" type="line"/>
      <point x="314" y="195" type="line"/>
      <point x="515" y="554" type="line"/>
      <point x="668" y="554" type="line"/>
      <point x="211" y="-185" type="line"/>
    </contour>
    <contour>
      <point x="316" y="613" type="line"/>
      <point x="279" y="691" type="line"/>
      <point x="528" y="825" type="line"/>
      <point x="565" y="733" type="line"/>
    </contour>
  </outline>
</glyph>
<glyph name="thorn" format="1">
  <advance width="662"/>
  <unicode hex="00FE"/>
  <outline>
    <contour>
      <point x="191" y="739" type="line"/>
      <point x="324" y="739" type="line"/>
      <point x="279" y="495" type="line"/>
      <point x="331" y="543"/>
      <point x="394" y="567"/>
      <point x="464" y="567" type="curve" smooth="yes"/>
      <point x="603" y="567"/>
      <point x="691" y="475"/>
      <point x="691" y="340" type="curve" smooth="yes"/>
      <point x="691" y="320"/>
      <point x="689" y="299"/>
      <point x="685" y="277" type="curve" smooth="yes"/>
      <point x="654" y="108"/>
      <point x="517" y="-13"/>
      <point x="357" y="-13" type="curve" smooth="yes"/>
      <point x="287" y="-13"/>
      <point x="232" y="11"/>
      <point x="198" y="59" type="curve"/>
      <point x="153" y="-185" type="line"/>
      <point x="20" y="-185" type="line"/>
    </contour>
    <contour>
      <point x="420" y="445" type="curve" smooth="yes"/>
      <point x="330" y="445"/>
      <point x="248" y="372"/>
      <point x="230" y="277" type="curve" smooth="yes"/>
      <point x="228" y="265"/>
      <point x="227" y="253"/>
      <point x="227" y="242" type="curve" smooth="yes"/>
      <point x="227" y="164"/>
      <point x="280" y="109"/>
      <point x="361" y="109" type="curve" smooth="yes"/>
      <point x="451" y="109"/>
      <point x="533" y="182"/>
      <point x="551" y="277" type="curve" smooth="yes"/>
      <point x="553" y="289"/>
      <point x="555" y="301"/>
      <point x="555" y="312" type="curve" smooth="yes"/>
      <point x="555" y="390"/>
      <point x="501" y="445"/>
    </contour>
  </outline>
</glyph>
<glyph name="ydieresis" format="1">
  <advance width="568"/>
  <unicode hex="00FF"/>
  <outline>
    <contour>
      <point x="68" y="-185" type="line"/>
      <point x="216" y="52" type="line"/>
      <point x="106" y="554" type="line"/>
      <point x="258" y="554" type="line"/>
      <point x="314" y="195" type="line"/>
      <point x="515" y="554" type="line"/>
      <point x="668" y="554" type="line"/>
      <point x="211" y="-185" type="line"/>
    </contour>
    <contour>
      <point x="230" y="630" type="line"/>
      <point x="254" y="763" type="line"/>
      <point x="387" y="763" type="line"/>
      <point x="363" y="630" type="line"/>
    </contour>
    <contour>
      <point x="440" y="630" type="line"/>
      <point x="464" y="763" type="line"/>
      <point x="597" y="763" type="line"/>
      <point x="573" y="630" type="line"/>
    </contour>
  </outline>
</glyph>
<glyph name="Ldot" format="1">
  <advance width="454"/>
  <unicode hex="013F"/>
  <outline>
    <contour>
      <point x="71" y="0" type="line"/>
      <point x="208" y="739" type="line"/>
      <point x="345" y="739" type="line"/>
      <point x="232" y="131" type="line"/>
      <point x="458" y="131" type="line"/>
      <point x="434" y="0" type="line"/>
    </contour>
    <contour>
      <point x="342" y="309" type="line"/>
      <point x="366" y="442" type="line"/>
      <point x="500" y="442" type="line"/>
      <point x="475" y="309" type="line"/>
    </contour>
  </outline>
</glyph>
<glyph name="ldot" format="1">
  <advance width="523"/>
  <unicode hex="0140"/>
  <outline>
    <contour>
      <point x="55" y="0" type="line"/>
      <point x="192" y="739" type="line"/>
      <point x="325" y="739" type="line"/>
      <point x="188" y="0" type="line"/>
    </contour>
    <contour>
      <point x="362" y="300" type="line"/>
      <point x="386" y="433" type="line"/>
      <point x="520" y="433" type="line"/>
      <point x="495" y="300" type="line"/>
    </contour>
  </outline>
</glyph>
<glyph name="Lslash" format="1">
  <advance width="484"/>
  <unicode hex="0141"/>
  <outline>
    <contour>
      <point x="113" y="0" type="line"/>
      <point x="164" y="273" type="line"/>
      <point x="53" y="194" type="line"/>
      <point x="76" y="318" type="line"/>
      <point x="187" y="397" type="line"/>
      <point x="250" y="739" type="line"/>
      <point x="387" y="739" type="line"/>
      <point x="338" y="474" type="line"/>
      <point x="500" y="584" type="line"/>
      <point x="477" y="461" type="line"/>
      <point x="315" y="350" type="line"/>
      <point x="274" y="128" type="line"/>
      <point x="500" y="128" type="line"/>
      <point x="476" y="0" type="line"/>
    </contour>
  </outline>
</glyph>
<glyph name="lslash" format="1">
  <advance width="343"/>
  <unicode hex="0142"/>
  <outline>
    <contour>
      <point x="109" y="0" type="line"/>
      <point x="168" y="317" type="line"/>
      <point x="75" y="255" type="line"/>
      <point x="94" y="354" type="line"/>
      <point x="186" y="417" type="line"/>
      <point x="246" y="739" type="line"/>
      <point x="379" y="739" type="line"/>
      <point x="331" y="482" type="line"/>
      <point x="424" y="545" type="line"/>
      <point x="406" y="446" type="line"/>
      <point x="313" y="383" type="line"/>
      <point x="242" y="0" type="line"/>
    </contour>
  </outline>
</glyph>
<glyph name="OE" format="1">
  <advance width="1058"/>
  <unicode hex="0152"/>
  <outline>
    <contour>
      <point x="1002" y="0" type="line"/>
      <point x="645" y="0" type="line"/>
      <point x="660" y="81" type="line"/>
      <point x="594" y="20"/>
      <point x="507" y="-13"/>
      <point x="414" y="-13" type="curve" smooth="yes"/>
      <point x="223" y="-13"/>
      <point x="97" y="114"/>
      <point x="97" y="292" type="curve" smooth="yes"/>
      <point x="97" y="316"/>
      <point x="99" y="342"/>
      <point x="104" y="368" type="curve" smooth="yes"/>
      <point x="145" y="588"/>
      <point x="335" y="752"/>
      <point x="550" y="752" type="curve" smooth="yes"/>
      <point x="651" y="752"/>
      <point x="723" y="721"/>
      <point x="767" y="657" type="curve"/>
      <point x="782" y="739" type="line"/>
      <point x="1139" y="739" type="line"/>
      <point x="1115" y="608" type="line"/>
      <point x="897" y="608" type="line"/>
      <point x="864" y="434" type="line"/>
      <point x="1071" y="434" type="line"/>
      <point x="1047" y="303" type="line"/>
      <point x="840" y="303" type="line"/>
      <point x="808" y="131" type="line"/>
      <point x="1026" y="131" type="line"/>
    </contour>
    <contour>
      <point x="522" y="620" type="curve" smooth="yes"/>
      <point x="391" y="620"/>
      <point x="269" y="509"/>
      <point x="242" y="366" type="curve" smooth="yes"/>
      <point x="239" y="349"/>
      <point x="237" y="332"/>
      <point x="237" y="316" type="curve" smooth="yes"/>
      <point x="237" y="201"/>
      <point x="317" y="119"/>
      <point x="436" y="119" type="curve" smooth="yes"/>
      <point x="573" y="119"/>
      <point x="691" y="224"/>
      <point x="718" y="368" type="curve" smooth="yes"/>
      <point x="722" y="387"/>
      <point x="724" y="406"/>
      <point x="724" y="424" type="curve" smooth="yes"/>
      <point x="724" y="542"/>
      <point x="646" y="620"/>
    </contour>
  </outline>
</glyph>
